<?xml version="1.0" encoding="UTF-8" standalone="no"?>
<svg width="15px" height="12px" viewBox="0 0 15 12" version="1.1" xmlns="http://www.w3.org/2000/svg" xmlns:xlink="http://www.w3.org/1999/xlink">
    <!-- Generator: Sketch 3.6.1 (26313) - http://www.bohemiancoding.com/sketch -->
    <title>Shape</title>
    <desc>Created with Sketch.</desc>
    <defs></defs>
    <g id="5-april-2016" stroke="none" stroke-width="1" fill="none" fill-rule="evenodd">
        <g id="docs" transform="translate(-1049.000000, -1695.000000)" fill="#442484">
            <g id="Group-2" transform="translate(570.000000, 1688.000000)">
                <path d="M479.450961,7 C479.201902,7 479,7.19824896 479,7.44487732 L479,17.0648562 C479,17.3105552 479.20171,17.5097335 479.450565,17.5097335 L481.365837,17.5097335 L483.264703,18.927202 C483.39671,19.0257428 483.608596,19.0242913 483.739773,18.9225567 L485.56147,17.5097335 L493.549291,17.5097335 C493.798211,17.5097335 494,17.3114846 494,17.0648562 L494,7.44487732 C494,7.19917836 493.799298,7 493.549038,7 L479.450961,7 L479.450961,7 Z M480.057552,7.74091187 C479.890984,7.74091187 479.755953,7.87237659 479.755953,8.03697206 L479.755953,16.4977796 C479.755953,16.6612891 479.890593,16.7938398 480.056259,16.7938398 L481.586977,16.7938398 L483.254074,18.170699 C483.381555,18.275986 483.589441,18.2781692 483.718658,18.1753699 L485.455224,16.7938398 L492.987674,16.7938398 C493.153276,16.7938398 493.287523,16.6623751 493.287523,16.4977796 L493.287523,8.03697206 C493.287523,7.87346253 493.153597,7.74091187 492.985925,7.74091187 L480.057552,7.74091187 L480.057552,7.74091187 Z M482.218308,9.69206655 C482.135395,9.69206655 482.068182,9.75905847 482.068182,9.84143075 L482.068182,10.215719 C482.068182,10.2982106 482.134431,10.3650832 482.218308,10.3650832 L490.781692,10.3650832 C490.864604,10.3650832 490.931818,10.2980913 490.931818,10.215719 L490.931818,9.84143075 C490.931818,9.75893918 490.865568,9.69206655 490.781692,9.69206655 L482.218308,9.69206655 L482.218308,9.69206655 Z M482.218308,11.7111165 C482.135395,11.7111165 482.068182,11.7781084 482.068182,11.8604807 L482.068182,12.2347689 C482.068182,12.3172605 482.134431,12.3841331 482.218308,12.3841331 L490.781692,12.3841331 C490.864604,12.3841331 490.931818,12.3171412 490.931818,12.2347689 L490.931818,11.8604807 C490.931818,11.7779891 490.865568,11.7111165 490.781692,11.7111165 L482.218308,11.7111165 L482.218308,11.7111165 Z M482.218855,13.7301664 C482.13564,13.7301664 482.068182,13.7971583 482.068182,13.8795306 L482.068182,14.2538188 C482.068182,14.3363104 482.136586,14.403183 482.218855,14.403183 L488.398981,14.403183 C488.482195,14.403183 488.549654,14.3361911 488.549654,14.2538188 L488.549654,13.8795306 C488.549654,13.797039 488.481249,13.7301664 488.398981,13.7301664 L482.218855,13.7301664 L482.218855,13.7301664 Z" id="Shape"></path>
            </g>
        </g>
    </g>
</svg>