<?xml version="1.0" encoding="UTF-8" standalone="no"?>
<svg width="617px" height="250px" viewBox="0 0 617 250" version="1.1" xmlns="http://www.w3.org/2000/svg" xmlns:xlink="http://www.w3.org/1999/xlink">
    <!-- Generator: Sketch 3.7 (28169) - http://www.bohemiancoding.com/sketch -->
    <title>Group</title>
    <desc>Created with Sketch.</desc>
    <defs></defs>
    <g id="Page-1" stroke="none" stroke-width="1" fill="none" fill-rule="evenodd">
        <g id="logo-horizontal-flat" transform="translate(-92.000000, -189.000000)" fill="#323A4E">
            <g id="Group" transform="translate(92.000000, 189.000000)">
                <g id="logotype-flat" transform="translate(258.928571, 63.000000)">
                    <path d="M348.596617,38.9828475 C348.596617,40.1823198 349.04642,40.7820559 350.245892,40.7820559 L354.593979,40.7820559 C355.943385,40.7820559 356.393187,40.1823198 356.393187,38.9828475 L356.393187,31.6360801 C356.393187,19.9412259 349.646156,10.495382 326.256447,10.495382 C302.716805,10.495382 296.119707,19.9412259 296.119707,31.6360801 L296.119707,39.7325177 C296.119707,49.1783615 303.016673,55.1757227 309.014034,57.4247331 L336.901763,68.2199832 C342.74919,70.4689936 349.346288,74.0674103 349.346288,82.1638479 L349.346288,92.809164 C349.346288,101.805206 343.648795,108.102435 325.956579,108.102435 C308.414298,108.102435 302.866739,101.805206 302.866739,92.809164 L302.866739,85.9121986 C302.866739,84.5627924 302.267003,83.9630563 301.06753,83.9630563 L296.719443,83.9630563 C295.519971,83.9630563 294.920235,84.5627924 294.920235,85.9121986 L294.920235,93.7087681 C294.920235,105.403622 302.267003,114.849466 326.106513,114.849466 C349.946024,114.849466 357.142857,105.403622 357.142857,93.7087681 L357.142857,80.5145736 C357.142857,70.3190596 349.646156,64.6215665 342.149454,61.77282 L313.362121,50.8276358 C309.313902,49.3282955 303.916277,45.7298789 303.916277,38.0832434 L303.916277,32.5356843 C303.916277,23.5396426 308.8641,17.2424133 326.256447,17.2424133 C343.648795,17.2424133 348.596617,23.5396426 348.596617,32.5356843 L348.596617,38.9828475 Z M207.953155,0 C208.502315,0 208.831919,0.428111525 208.685646,0.969913555 L175.4626,124.030086 C175.317983,124.565755 174.74774,125 174.206405,125 L168.589158,125 C168.039997,125 167.710394,124.571888 167.856666,124.030086 L201.079713,0.969913555 C201.22433,0.43424509 201.794573,0 202.335907,0 L207.953155,0 Z M219.053616,94.0086362 C219.053616,105.70349 226.25045,115.149334 250.239894,115.149334 C274.379273,115.149334 281.726041,105.70349 281.726041,94.0086362 L281.726041,31.9359482 C281.726041,20.2410939 274.379273,10.7952501 250.239894,10.7952501 C226.25045,10.7952501 219.053616,20.2410939 219.053616,31.9359482 L219.053616,94.0086362 Z M273.629603,92.809164 C273.629603,101.95514 267.782176,108.252369 250.239894,108.252369 C232.847547,108.252369 227.00012,101.95514 227.00012,92.809164 L227.00012,33.1354204 C227.00012,23.9894446 232.847547,17.6922154 250.239894,17.6922154 C267.782176,17.6922154 273.629603,23.9894446 273.629603,33.1354204 L273.629603,92.809164 Z M157.43073,81.4141778 C157.43073,78.7153652 156.531126,77.665827 153.982248,77.665827 L141.537723,77.665827 C138.838911,77.665827 137.789373,78.7153652 137.789373,81.4141778 L137.789373,87.1116709 C137.789373,94.6083723 132.541682,98.356723 122.496102,98.356723 C112.450522,98.356723 107.352765,94.6083723 107.352765,87.1116709 L107.352765,38.8329135 C107.352765,31.3362121 112.450522,27.5878613 122.496102,27.5878613 C132.541682,27.5878613 137.789373,31.3362121 137.789373,38.8329135 L137.789373,42.4313302 C137.789373,45.1301427 138.838911,46.1796809 141.537723,46.1796809 L153.982248,46.1796809 C156.531126,46.1796809 157.43073,45.1301427 157.43073,42.4313302 L157.43073,35.2344968 C157.43073,22.6400384 149.334293,10.7952501 122.196234,10.7952501 C95.0581744,10.7952501 86.9617368,22.6400384 86.9617368,35.2344968 L86.9617368,90.7100876 C86.9617368,103.304546 95.0581744,115.149334 122.196234,115.149334 C149.334293,115.149334 157.43073,103.304546 157.43073,90.7100876 L157.43073,81.4141778 Z M36.284035,113.50006 C63.4220943,113.50006 72.8679381,101.655272 72.8679381,89.0608132 L72.8679381,35.984167 C72.8679381,23.3897085 63.4220943,11.5449202 36.284035,11.5449202 L3.5984167,11.5449202 C0.899604174,11.5449202 0,12.7443925 0,15.443205 L0,109.601775 C0,112.150654 0.749670145,113.50006 3.14861461,113.50006 L36.284035,113.50006 Z M36.284035,28.3375315 C46.479549,28.3375315 52.6268442,32.0858822 52.6268442,39.5825837 L52.6268442,85.4623965 C52.6268442,92.959098 46.479549,96.7074487 36.284035,96.7074487 L20.2410939,96.7074487 L20.2410939,28.3375315 L36.284035,28.3375315 Z" id="Combined-Shape"></path>
                </g>
                <g id="logomark-flat">
                    <path d="M14.429687,134.242069 L0.585660465,148.086095 C-0.195286822,148.867043 -0.195286822,150.132957 0.585660465,150.913905 L98.5860454,248.91429 C99.3669927,249.695237 100.632907,249.695237 101.413855,248.91429 L199.41424,150.913905 C200.195187,150.132957 200.195187,148.867043 199.41424,148.086095 L185.569942,134.241797 L105.655856,214.156776 C102.532557,217.280075 97.4676931,217.280075 94.3443939,214.156776 L14.429687,134.242069 L14.429687,134.242069 Z M101.426,150.8351 C100.638,150.0471 99.362,150.0471 98.574,150.8351 L71.175,178.2341 C70.388,179.0211 70.388,180.2981 71.175,181.0861 L98.574,208.4841 C99.362,209.2721 100.638,209.2721 101.426,208.4841 L128.825,181.0861 C129.612,180.2981 129.612,179.0211 128.825,178.2341 L101.426,150.8351 Z M136.718,115.5431 C135.931,114.7551 134.654,114.7551 133.866,115.5431 L106.468,142.9411 C105.68,143.7291 105.68,145.0061 106.468,145.7931 L133.866,173.1921 C134.654,173.9791 135.931,173.9791 136.718,173.1921 L164.117,145.7931 C164.905,145.0061 164.905,143.7291 164.117,142.9411 L136.718,115.5431 Z M93.532,142.9411 L66.134,115.5431 C65.346,114.7551 64.069,114.7551 63.282,115.5431 L35.883,142.9411 C35.095,143.7291 35.095,145.0061 35.883,145.7931 L63.282,173.1921 C64.069,173.9791 65.346,173.9791 66.134,173.1921 L93.532,145.7931 C94.32,145.0061 94.32,143.7291 93.532,142.9411 Z M98.574,58.2391 C99.362,59.0271 100.638,59.0271 101.426,58.2391 L128.825,30.8411 C129.612,30.0531 129.612,28.7761 128.825,27.9891 L101.426,0.5901 C100.638,-0.1969 99.362,-0.1969 98.574,0.5901 L71.175,27.9891 C70.388,28.7761 70.388,30.0531 71.175,30.8411 L98.574,58.2391 Z M106.468,71.1831 L133.866,98.5821 C134.654,99.3701 135.931,99.3701 136.718,98.5821 L164.117,71.1831 C164.905,70.3961 164.905,69.1191 164.117,68.3311 L136.718,40.9331 C135.931,40.1451 134.654,40.1451 133.866,40.9331 L106.468,68.3311 C105.68,69.1191 105.68,70.3961 106.468,71.1831 Z M63.282,98.5821 C64.069,99.3701 65.346,99.3701 66.134,98.5821 L93.532,71.1831 C94.32,70.3961 94.32,69.1191 93.532,68.3311 L66.134,40.9331 C65.346,40.1451 64.069,40.1451 63.282,40.9331 L35.883,68.3311 C35.095,69.1191 35.095,70.3961 35.883,71.1831 L63.282,98.5821 Z M199.409,107.6491 L172.011,80.2501 C171.223,79.4631 169.946,79.4631 169.159,80.2501 L141.76,107.6491 C140.973,108.4361 140.973,109.7131 141.76,110.5011 L169.159,137.8991 C169.946,138.6871 171.223,138.6871 172.011,137.8991 L199.409,110.5011 C200.197,109.7131 200.197,108.4361 199.409,107.6491 Z M98.574,80.2501 L71.175,107.6491 C70.388,108.4361 70.388,109.7131 71.175,110.5011 L98.574,137.8991 C99.362,138.6871 100.638,138.6871 101.426,137.8991 L128.825,110.5011 C129.612,109.7131 129.612,108.4361 128.825,107.6491 L101.426,80.2501 C100.638,79.4631 99.362,79.4631 98.574,80.2501 Z M58.24,110.5011 L30.841,137.8991 C30.054,138.6871 28.777,138.6871 27.989,137.8991 L0.591,110.5011 C-0.197,109.7131 -0.197,108.4361 0.591,107.6491 L27.989,80.2501 C28.777,79.4631 30.054,79.4631 30.841,80.2501 L58.24,107.6491 C59.027,108.4361 59.027,109.7131 58.24,110.5011 Z" id="logo"></path>
                </g>
            </g>
        </g>
    </g>
</svg>