<?xml version="1.0" encoding="UTF-8" standalone="no"?>
<svg width="32px" height="32px" viewBox="0 0 32 32" version="1.1" xmlns="http://www.w3.org/2000/svg" xmlns:xlink="http://www.w3.org/1999/xlink">
    <!-- Generator: Sketch 3.7 (28169) - http://www.bohemiancoding.com/sketch -->
    <title>envelope</title>
    <desc>Created with Sketch.</desc>
    <defs></defs>
    <g id="icons" stroke="none" stroke-width="1" fill="none" fill-rule="evenodd">
        <g id="General-icons-1" transform="translate(-666.000000, -693.000000)" fill="#A9A6AF">
            <path d="M667.483094,720.932089 C667.648511,720.976386 667.822372,721 668.001743,721 L695.998257,721 C696.208603,721 696.410969,720.967909 696.600852,720.908376 L687.306393,711.613917 L683.116346,715.803964 C682.880507,716.039803 682.555733,716.132393 682.24897,716.080278 C681.944473,716.129054 681.622622,716.036836 681.38975,715.803964 L677.000485,711.414698 L667.483094,720.932089 Z M666.068724,719.518032 C666.023906,719.351324 666,719.176001 666,718.995053 L666,700.414214 L675.586271,710.000485 L666.068724,719.518032 Z M697.952701,719.431798 C697.983682,719.291204 698,719.145052 698,718.995053 L698,700.92031 L688.720607,710.199704 L697.952701,719.431798 Z M697.850022,698.241861 C697.550369,697.512813 696.834145,697 695.998257,697 L668.001743,697 C667.295548,697 666.679303,697.361716 666.323377,697.909164 L682.253048,713.838835 L697.850022,698.241861 Z" id="Combined-Shape-Copy-2"></path>
        </g>
    </g>
</svg>