<?xml version="1.0" encoding="UTF-8" standalone="no"?>
<svg width="32px" height="32px" viewBox="0 0 32 32" version="1.1" xmlns="http://www.w3.org/2000/svg" xmlns:xlink="http://www.w3.org/1999/xlink">
    <!-- Generator: Sketch 3.7 (28169) - http://www.bohemiancoding.com/sketch -->
    <title>Shape</title>
    <desc>Created with Sketch.</desc>
    <defs></defs>
    <g id="icons" stroke="none" stroke-width="1" fill="none" fill-rule="evenodd">
        <g id="General-icons-1" transform="translate(-246.000000, -453.000000)" fill="#A9A6AF">
            <path d="M262.000133,453 C253.164662,453 246,460.344632 246,469.405075 C246,476.653268 250.584525,482.80259 256.941867,484.971805 C257.741503,485.123663 258.035074,484.615928 258.035074,484.182629 C258.035074,483.791437 258.020236,482.499144 258.013347,481.128342 C253.562095,482.12072 252.622828,479.192756 252.622828,479.192756 C251.894995,477.296561 250.846301,476.792358 250.846301,476.792358 C249.39461,475.774172 250.955728,475.79509 250.955728,475.79509 C252.562418,475.910817 253.408421,477.485637 253.408421,477.485637 C254.835471,479.993613 257.151447,479.26855 258.064484,478.849376 C258.208089,477.789083 258.622745,477.065377 259.080323,476.655712 C255.526475,476.240886 251.790602,474.834224 251.790602,468.548256 C251.790602,466.757194 252.415632,465.293755 253.439155,464.1449 C253.273028,463.731703 252.725365,462.06316 253.594154,459.803483 C253.594154,459.803483 254.937744,459.362577 257.99533,461.485065 C259.271621,461.121583 260.640381,460.939298 262.000133,460.93305 C263.359884,460.939298 264.729704,461.121583 266.008379,461.485065 C269.062256,459.362577 270.403991,459.803483 270.403991,459.803483 C271.2749,462.06316 270.726972,463.731703 270.560845,464.1449 C271.586752,465.293755 272.207543,466.757194 272.207543,468.548256 C272.207543,474.849166 268.464517,476.236539 264.90166,476.642673 C265.475554,477.151766 265.986918,478.15012 265.986918,479.68066 C265.986918,481.875682 265.968371,483.642295 265.968371,484.182629 C265.968371,484.619188 266.256377,485.130726 267.067406,484.969631 C273.421304,482.797972 278,476.650823 278,469.405075 C278,460.344632 270.836398,453 262.000133,453 L262.000133,453 Z M251.99257,476.369376 C251.957331,476.450875 251.832272,476.475324 251.718341,476.419362 C251.60229,476.365845 251.537111,476.254735 251.574735,476.172965 C251.609179,476.089022 251.734503,476.065659 251.850289,476.121893 C251.966604,476.17541 252.032843,476.287606 251.99257,476.369376 L251.99257,476.369376 Z M252.779599,477.089405 C252.703291,477.161938 252.554122,477.128252 252.452909,477.013611 C252.348251,476.899242 252.328644,476.746297 252.406011,476.672676 C252.484703,476.600143 252.629369,476.634101 252.734291,476.74847 C252.838949,476.864198 252.85935,477.016056 252.779599,477.089405 L252.779599,477.089405 Z M253.31953,478.010657 C253.221497,478.080474 253.061199,478.015003 252.962105,477.869121 C252.864072,477.723239 252.864072,477.548289 252.964225,477.478201 C253.063583,477.408112 253.221497,477.471138 253.321915,477.615933 C253.419683,477.76426 253.419683,477.93921 253.31953,478.010657 L253.31953,478.010657 Z M254.23267,479.077596 C254.14497,479.176753 253.958176,479.15013 253.821459,479.014843 C253.681562,478.882544 253.642614,478.694826 253.730579,478.595669 C253.819339,478.496241 254.007193,478.524223 254.14497,478.658423 C254.283806,478.790451 254.326199,478.979527 254.23267,479.077596 L254.23267,479.077596 Z M255.412814,479.437783 C255.374131,479.566279 255.194226,479.624686 255.012997,479.570082 C254.832032,479.513848 254.713597,479.363348 254.750161,479.233494 C254.787784,479.104183 254.968484,479.043331 255.151038,479.101738 C255.331738,479.157701 255.450438,479.307114 255.412814,479.437783 L255.412814,479.437783 Z M256.755868,479.590565 C256.760373,479.725852 256.606698,479.838048 256.41646,479.840493 C256.225163,479.84484 256.070429,479.735361 256.068309,479.602246 C256.068309,479.465601 256.218539,479.354492 256.409836,479.351232 C256.600075,479.347428 256.755868,479.456093 256.755868,479.590565 L256.755868,479.590565 Z M258.075268,479.53871 C258.098055,479.670737 257.965842,479.806296 257.776928,479.842427 C257.591195,479.877199 257.419239,479.795701 257.395658,479.66476 C257.372606,479.529473 257.507204,479.393914 257.692673,479.35887 C257.881851,479.325184 258.051157,479.404509 258.075268,479.53871 L258.075268,479.53871 Z" id="Shape"></path>
        </g>
    </g>
</svg>