<?xml version="1.0" encoding="UTF-8" standalone="no"?>
<svg width="1233px" height="499px" viewBox="0 0 1233 499" version="1.1" xmlns="http://www.w3.org/2000/svg" xmlns:xlink="http://www.w3.org/1999/xlink">
    <!-- Generator: Sketch Xcode 3.6 (27746) - http://www.bohemiancoding.com/sketch -->
    <title>logo</title>
    <desc>Created with Sketch Xcode.</desc>
    <defs></defs>
    <g id="Logo-(Horizontal)" stroke="none" stroke-width="1" fill="none" fill-rule="evenodd">
        <g id="logo-horizontal-black-large" fill="#000000">
            <path d="M933.74781,126 C934.85477,126 935.520981,126.856223 935.228436,127.939827 L868.782342,374.060173 C868.493109,375.13151 867.363859,376 866.254311,376 L855.051101,376 C853.944141,376 853.27793,375.143777 853.570475,374.060173 L920.016569,127.939827 C920.305802,126.86849 921.435052,126 922.5446,126 L933.74781,126 Z M1215.05038,203.965695 C1215.05038,206.36464 1215.94998,207.564112 1218.34893,207.564112 L1227.0451,207.564112 C1229.74391,207.564112 1230.64352,206.36464 1230.64352,203.965695 L1230.64352,189.27216 C1230.64352,165.882452 1217.14945,146.990764 1170.37004,146.990764 C1123.29075,146.990764 1110.09656,165.882452 1110.09656,189.27216 L1110.09656,205.465035 C1110.09656,224.356723 1123.89049,236.351445 1135.88521,240.849466 L1191.66067,262.439966 C1203.35552,266.937987 1216.54972,274.134821 1216.54972,290.327696 L1216.54972,311.618328 C1216.54972,329.610411 1205.15473,342.20487 1169.7703,342.20487 C1134.68574,342.20487 1123.59062,329.610411 1123.59062,311.618328 L1123.59062,297.824397 C1123.59062,295.125585 1122.39115,293.926113 1119.9922,293.926113 L1111.29603,293.926113 C1108.89709,293.926113 1107.69761,295.125585 1107.69761,297.824397 L1107.69761,313.417536 C1107.69761,336.807245 1122.39115,355.698932 1170.07017,355.698932 C1217.74919,355.698932 1232.14286,336.807245 1232.14286,313.417536 L1232.14286,287.029147 C1232.14286,266.638119 1217.14945,255.243133 1202.15605,249.54564 L1144.58138,227.655272 C1136.48495,224.656591 1125.6897,217.459758 1125.6897,202.166487 L1125.6897,191.071369 C1125.6897,173.079285 1135.58534,160.484827 1170.37004,160.484827 C1205.15473,160.484827 1215.05038,173.079285 1215.05038,191.071369 L1215.05038,203.965695 Z M955.964376,314.017272 C955.964376,337.406981 970.358042,356.298669 1018.33693,356.298669 C1066.61569,356.298669 1081.30922,337.406981 1081.30922,314.017272 L1081.30922,189.871896 C1081.30922,166.482188 1066.61569,147.5905 1018.33693,147.5905 C970.358042,147.5905 955.964376,166.482188 955.964376,189.871896 L955.964376,314.017272 Z M1065.11635,311.618328 C1065.11635,329.910279 1053.42149,342.504738 1018.33693,342.504738 C983.552237,342.504738 971.857383,329.910279 971.857383,311.618328 L971.857383,192.270841 C971.857383,173.978889 983.552237,161.384431 1018.33693,161.384431 C1053.42149,161.384431 1065.11635,173.978889 1065.11635,192.270841 L1065.11635,311.618328 Z M832.718604,288.828356 C832.718604,283.43073 830.919395,281.331654 825.821638,281.331654 L800.93259,281.331654 C795.534965,281.331654 793.435888,283.43073 793.435888,288.828356 L793.435888,300.223342 C793.435888,315.216745 782.940506,322.713446 762.849346,322.713446 C742.758186,322.713446 732.562672,315.216745 732.562672,300.223342 L732.562672,203.665827 C732.562672,188.672424 742.758186,181.175723 762.849346,181.175723 C782.940506,181.175723 793.435888,188.672424 793.435888,203.665827 L793.435888,210.86266 C793.435888,216.260285 795.534965,218.359362 800.93259,218.359362 L825.821638,218.359362 C830.919395,218.359362 832.718604,216.260285 832.718604,210.86266 L832.718604,196.468994 C832.718604,171.280077 816.525729,147.5905 762.24961,147.5905 C707.973492,147.5905 691.780617,171.280077 691.780617,196.468994 L691.780617,307.420175 C691.780617,332.609092 707.973492,356.298669 762.24961,356.298669 C816.525729,356.298669 832.718604,332.609092 832.718604,307.420175 L832.718604,288.828356 Z M590.425213,353.00012 C644.701331,353.00012 663.593019,329.310543 663.593019,304.121626 L663.593019,197.968334 C663.593019,172.779417 644.701331,149.08984 590.425213,149.08984 L525.053976,149.08984 C519.656351,149.08984 517.857143,151.488785 517.857143,156.88641 L517.857143,345.20355 C517.857143,350.301307 519.356483,353.00012 524.154372,353.00012 L590.425213,353.00012 Z M590.425213,182.675063 C610.816241,182.675063 623.110831,190.171764 623.110831,205.165167 L623.110831,296.924793 C623.110831,311.918196 610.816241,319.414897 590.425213,319.414897 L558.339331,319.414897 L558.339331,182.675063 L590.425213,182.675063 Z M28.8593741,268.484138 L1.17132093,296.172191 C-0.390573643,297.734085 -0.390573643,300.265915 1.17132093,301.827809 L197.172091,497.828579 C198.733985,499.390474 201.265815,499.390474 202.827709,497.828579 L398.828479,301.827809 C400.390374,300.265915 400.390374,297.734085 398.828479,296.172191 L371.139883,268.483595 L211.311712,428.313551 C205.065114,434.56015 194.935386,434.56015 188.688788,428.313551 L28.8593741,268.484138 L28.8593741,268.484138 Z M202.852,301.6702 C201.276,300.0942 198.724,300.0942 197.148,301.6702 L142.35,356.4682 C140.776,358.0422 140.776,360.5962 142.35,362.1722 L197.148,416.9682 C198.724,418.5442 201.276,418.5442 202.852,416.9682 L257.65,362.1722 C259.224,360.5962 259.224,358.0422 257.65,356.4682 L202.852,301.6702 Z M273.436,231.0862 C271.862,229.5102 269.308,229.5102 267.732,231.0862 L212.936,285.8822 C211.36,287.4582 211.36,290.0122 212.936,291.5862 L267.732,346.3842 C269.308,347.9582 271.862,347.9582 273.436,346.3842 L328.234,291.5862 C329.81,290.0122 329.81,287.4582 328.234,285.8822 L273.436,231.0862 Z M187.064,285.8822 L132.268,231.0862 C130.692,229.5102 128.138,229.5102 126.564,231.0862 L71.766,285.8822 C70.19,287.4582 70.19,290.0122 71.766,291.5862 L126.564,346.3842 C128.138,347.9582 130.692,347.9582 132.268,346.3842 L187.064,291.5862 C188.64,290.0122 188.64,287.4582 187.064,285.8822 Z M197.148,116.4782 C198.724,118.0542 201.276,118.0542 202.852,116.4782 L257.65,61.6822 C259.224,60.1062 259.224,57.5522 257.65,55.9782 L202.852,1.1802 C201.276,-0.3938 198.724,-0.3938 197.148,1.1802 L142.35,55.9782 C140.776,57.5522 140.776,60.1062 142.35,61.6822 L197.148,116.4782 Z M212.936,142.3662 L267.732,197.1642 C269.308,198.7402 271.862,198.7402 273.436,197.1642 L328.234,142.3662 C329.81,140.7922 329.81,138.2382 328.234,136.6622 L273.436,81.8662 C271.862,80.2902 269.308,80.2902 267.732,81.8662 L212.936,136.6622 C211.36,138.2382 211.36,140.7922 212.936,142.3662 Z M126.564,197.1642 C128.138,198.7402 130.692,198.7402 132.268,197.1642 L187.064,142.3662 C188.64,140.7922 188.64,138.2382 187.064,136.6622 L132.268,81.8662 C130.692,80.2902 128.138,80.2902 126.564,81.8662 L71.766,136.6622 C70.19,138.2382 70.19,140.7922 71.766,142.3662 L126.564,197.1642 Z M398.818,215.2982 L344.022,160.5002 C342.446,158.9262 339.892,158.9262 338.318,160.5002 L283.52,215.2982 C281.946,216.8722 281.946,219.4262 283.52,221.0022 L338.318,275.7982 C339.892,277.3742 342.446,277.3742 344.022,275.7982 L398.818,221.0022 C400.394,219.4262 400.394,216.8722 398.818,215.2982 Z M197.148,160.5002 L142.35,215.2982 C140.776,216.8722 140.776,219.4262 142.35,221.0022 L197.148,275.7982 C198.724,277.3742 201.276,277.3742 202.852,275.7982 L257.65,221.0022 C259.224,219.4262 259.224,216.8722 257.65,215.2982 L202.852,160.5002 C201.276,158.9262 198.724,158.9262 197.148,160.5002 Z M116.48,221.0022 L61.682,275.7982 C60.108,277.3742 57.554,277.3742 55.978,275.7982 L1.182,221.0022 C-0.394,219.4262 -0.394,216.8722 1.182,215.2982 L55.978,160.5002 C57.554,158.9262 60.108,158.9262 61.682,160.5002 L116.48,215.2982 C118.054,216.8722 118.054,219.4262 116.48,221.0022 Z" id="logo"></path>
        </g>
    </g>
</svg>