<?xml version="1.0" encoding="UTF-8" standalone="no"?>
<svg width="29px" height="30px" viewBox="0 0 29 30" version="1.1" xmlns="http://www.w3.org/2000/svg" xmlns:xlink="http://www.w3.org/1999/xlink">
    <!-- Generator: Sketch 3.7 (28169) - http://www.bohemiancoding.com/sketch -->
    <title>Group 4</title>
    <desc>Created with Sketch.</desc>
    <defs></defs>
    <g id="icons-exporting" stroke="none" stroke-width="1" fill="none" fill-rule="evenodd">
        <g id="Why-DCOS-Hyperscale-Operations" transform="translate(-696.000000, -48.000000)" fill="#BF97F0">
            <g id="Group-4" transform="translate(696.000000, 48.000000)">
                <g id="Group">
                    <path d="M21.185621,23.0998346 C18.9508088,24.9133182 16.1023085,26 13,26 C5.82029825,26 0,20.1797017 0,13 C0,5.82029825 5.82029825,0 13,0 C20.1797017,0 26,5.82029825 26,13 C26,16.3572666 24.7273643,19.4172932 22.6381932,21.7239796 L28.3922145,27.4780009 C28.7810117,27.8667981 28.7823343,28.4958403 28.3890873,28.8890873 C27.998563,29.2796116 27.3674333,29.2816468 26.9780009,28.8922145 L21.185621,23.0998346 Z M13,24 C19.0751322,24 24,19.0751322 24,13 C24,6.92486775 19.0751322,2 13,2 C6.92486775,2 2,6.92486775 2,13 C2,19.0751322 6.92486775,24 13,24 Z M11.0995398,6.99539757 C11.0445655,6.44565467 11.4433532,6 12.0093689,6 L13.9906311,6 C14.5480902,6 14.9557409,6.44259056 14.9004602,6.99539757 L14.0995398,15.0046024 C14.0445655,15.5543453 13.5561352,16 13,16 C12.4477153,16 11.9557409,15.5574094 11.9004602,15.0046024 L11.0995398,6.99539757 Z M13,20 C13.5522847,20 14,19.5522847 14,19 C14,18.4477153 13.5522847,18 13,18 C12.4477153,18 12,18.4477153 12,19 C12,19.5522847 12.4477153,20 13,20 Z" id="Combined-Shape"></path>
                </g>
            </g>
        </g>
    </g>
</svg>