<svg xmlns="http://www.w3.org/2000/svg" width="16" height="16" viewBox="0 0 16 16">
  <path fill="#A1A1A1" fill-rule="evenodd" d="M71.2351819,55.6926777 C70.9685152,55.426011 70.5685152,55.426011 70.3018485,55.6926777 L64.7018485,61.2926777 C64.4351819,61.5593443 64.4351819,61.9593443 64.7018485,62.226011 C64.9685152,62.4926777 65.3685152,62.4926777 65.6351819,62.226011 L71.2351819,56.626011 C71.5018485,56.3593443 71.5018485,55.9593443 71.2351819,55.6926777 Z M65.6351819,65.9593443 L67.9685152,63.626011 C68.9018485,62.6926777 69.1685152,61.2926777 68.7018485,60.0926777 L67.5685152,61.226011 C67.5685152,61.7593443 67.4351819,62.2926777 66.9685152,62.7593443 L64.6351819,65.0926777 C63.8351819,65.8926777 62.5685152,65.8926777 61.8351819,65.0926777 C61.0351819,64.2926777 61.0351819,63.026011 61.8351819,62.2926777 L64.1685152,59.9593443 C64.5685152,59.5593443 65.1685152,59.3593443 65.7018485,59.3593443 L66.8351819,58.226011 C65.6351819,57.7593443 64.2351819,57.9593443 63.3018485,58.9593443 L60.9685152,61.2926777 C59.7018485,62.5593443 59.7018485,64.6926777 60.9685152,65.9593443 C62.2351819,67.2926777 64.3685152,67.2926777 65.6351819,65.9593443 Z M68.9018485,55.226011 L71.2351819,52.8926777 C72.0351819,52.0926777 73.3018485,52.0926777 74.0351819,52.8926777 C74.7685152,53.6926777 74.8351819,54.9593443 74.0351819,55.6926777 L71.7018485,58.026011 C71.3018485,58.426011 70.7018485,58.626011 70.1685152,58.626011 L69.0351819,59.7593443 C70.2351819,60.226011 71.6351819,59.9593443 72.5685152,59.026011 L74.9018485,56.6926777 C76.1685152,55.426011 76.1685152,53.2926777 74.9018485,52.026011 C73.6351819,50.7593443 71.5018485,50.7593443 70.2351819,52.026011 L67.9685152,54.2926777 C67.0351819,55.226011 66.7685152,56.626011 67.2351819,57.826011 L68.3685152,56.6926777 C68.3018485,56.1593443 68.5018485,55.626011 68.9018485,55.226011 Z" transform="translate(-60 -51)"/>
</svg>
