<?xml version="1.0" encoding="UTF-8" standalone="no"?>
<svg width="30px" height="30px" viewBox="0 0 30 30" version="1.1" xmlns="http://www.w3.org/2000/svg" xmlns:xlink="http://www.w3.org/1999/xlink">
    <!-- Generator: Sketch 3.7 (28169) - http://www.bohemiancoding.com/sketch -->
    <title>attracttoptalent</title>
    <desc>Created with Sketch.</desc>
    <defs></defs>
    <g id="icons-exporting" stroke="none" stroke-width="1" fill="none" fill-rule="evenodd">
        <g id="Why-DCOS-Continuous-Business-Innovations-" transform="translate(-696.000000, -48.000000)" fill="#BF97F0">
            <g id="attracttoptalent" transform="translate(696.000000, 48.000000)">
                <path d="M15.0000727,24.7811235 L7.37825345,28.9832368 C6.41055044,29.5167575 5.76955156,29.071984 5.95027741,27.9669705 L7.41634694,19.0029697 L1.23243128,12.6816713 C0.45933753,11.8914024 0.726178595,11.1145999 1.80391392,10.9503714 L10.3130724,9.65372044 L14.1512923,1.49800305 C14.6200607,0.50193111 15.3836296,0.509463728 15.848853,1.49800305 L19.6870729,9.65372044 L28.1962314,10.9503714 C29.2849463,11.116273 29.546916,11.8851585 28.767714,12.6816713 L22.5837984,19.0029697 L24.0498679,27.9669705 C24.2289215,29.0617595 23.5909744,29.517518 22.6218919,28.9832368 L15.0000727,24.7811235 L15.0000727,24.7811235 Z M14.0344515,23.0296739 L15.0000727,22.497301 L15.9656938,23.0296739 L21.7312489,26.1813074 L20.6100223,19.3257824 L20.4467489,18.3274781 L21.1541345,17.6043771 L26.0103398,12.640366 L19.3857849,11.6308966 L18.3315502,11.4702492 L17.8774556,10.5053572 L15.0040822,4.38277336 L12.1226897,10.5053572 L11.6685951,11.4702492 L10.6143604,11.6308966 L4.00204877,12.6528009 L8.84601083,17.6043771 L9.55339647,18.3274781 L9.39012301,19.3257824 L8.26490465,26.2057141 L14.0344515,23.0296739 Z" id="Star-1"></path>
            </g>
        </g>
    </g>
</svg>