<?xml version="1.0" encoding="UTF-8" standalone="no"?>
<svg width="30px" height="30px" viewBox="0 0 30 30" version="1.1" xmlns="http://www.w3.org/2000/svg" xmlns:xlink="http://www.w3.org/1999/xlink">
    <!-- Generator: Sketch 3.7 (28169) - http://www.bohemiancoding.com/sketch -->
    <title>Group 4</title>
    <desc>Created with Sketch.</desc>
    <defs></defs>
    <g id="icons-exporting" stroke="none" stroke-width="1" fill="none" fill-rule="evenodd">
        <g id="Why-DCOS-Continuous-Business-Innovations-" transform="translate(-696.000000, -48.000000)" fill="#BF97F0">
            <g id="Group-4" transform="translate(696.000000, 48.000000)">
                <g id="Group-2">
                    <path d="M14.0344515,23.0296739 L14.0344515,23.0296739 L15.0000727,22.497301 L15.9656938,23.0296739 L23.587513,27.2317872 C23.5911133,27.2337721 23.5456414,27.2186483 23.4368429,27.2100362 C23.1799541,27.1897019 22.8780673,27.2632238 22.6058529,27.4571838 C22.3357384,27.6496475 22.1696053,27.9070758 22.1049409,28.1517713 C22.0781402,28.2531873 22.0773065,28.2972098 22.0760918,28.2897832 L20.6100223,19.3257824 L20.4467489,18.3274781 L21.1541345,17.6043771 L27.3380502,11.2830787 C27.3415139,11.279538 27.3162237,11.3173391 27.2810446,11.4139123 C27.1999408,11.6365573 27.1882605,11.9215744 27.285088,12.2120368 C27.3820271,12.5028342 27.5628605,12.7243819 27.7623405,12.8543971 C27.8502422,12.9116889 27.8959906,12.9277071 27.8949434,12.9275476 L19.3857849,11.6308966 L18.3315502,11.4702492 L17.8774556,10.5053572 L14.0392358,2.34963985 C14.0376479,2.34626576 14.0655104,2.38528259 14.1489971,2.45709916 C14.3503692,2.63032254 14.647268,2.75269932 14.9952808,2.75376446 C15.3451715,2.75483535 15.6454556,2.63275929 15.8494193,2.45817518 C15.934377,2.38545508 15.9626748,2.34588901 15.9609096,2.34963985 L12.1226897,10.5053572 L11.6685951,11.4702492 L10.6143604,11.6308966 L2.10520193,12.9275476 C2.63453001,12.846887 3.03113609,11.6603183 2.66209517,11.2830787 L8.84601083,17.6043771 L9.55339647,18.3274781 L9.39012301,19.3257824 L7.92405348,28.2897832 C7.92235665,28.3001581 7.92159009,28.2579249 7.8948992,28.156759 C7.82964666,27.9094336 7.66114098,27.6492277 7.38728027,27.4558366 C7.11336122,27.2624043 6.8115213,27.1905457 6.55588637,27.2117829 C6.44974773,27.2206004 6.4069385,27.2349264 6.4126323,27.2317872 L14.0344515,23.0296739 Z M15.0000727,24.7811235 L7.37825345,28.9832368 C6.41055044,29.5167575 5.76955156,29.071984 5.95027741,27.9669705 L7.41634694,19.0029697 L1.23243128,12.6816713 C0.45933753,11.8914024 0.726178595,11.1145999 1.80391392,10.9503714 L10.3130724,9.65372044 L14.1512923,1.49800305 C14.6200607,0.50193111 15.3836296,0.509463728 15.848853,1.49800305 L19.6870729,9.65372044 L28.1962314,10.9503714 C29.2849463,11.116273 29.546916,11.8851585 28.767714,12.6816713 L22.5837984,19.0029697 L24.0498679,27.9669705 C24.2289215,29.0617595 23.5909744,29.517518 22.6218919,28.9832368 L15.0000727,24.7811235 L15.0000727,24.7811235 Z" id="Star-1"></path>
                </g>
            </g>
        </g>
    </g>
</svg>