<?xml version="1.0" encoding="UTF-8" standalone="no"?>
<svg width="30px" height="30px" viewBox="0 0 30 30" version="1.1" xmlns="http://www.w3.org/2000/svg" xmlns:xlink="http://www.w3.org/1999/xlink">
    <!-- Generator: Sketch 3.7 (28169) - http://www.bohemiancoding.com/sketch -->
    <title>Group 2</title>
    <desc>Created with Sketch.</desc>
    <defs></defs>
    <g id="icons-exporting" stroke="none" stroke-width="1" fill="none" fill-rule="evenodd">
        <g id="Why-DCOS-Build-Amazing-Applications" transform="translate(-440.000000, -48.000000)" fill="#BF97F0">
            <g id="Group-2" transform="translate(440.000000, 48.000000)">
                <path d="M0,1.99161703 C0,0.891677316 0.89784041,0 1.99161703,0 L28.008383,0 C29.1083227,0 30,0.89784041 30,1.99161703 L30,28.008383 C30,29.1083227 29.1021596,30 28.008383,30 L1.99161703,30 C0.891677316,30 0,29.1021596 0,28.008383 L0,1.99161703 Z M2,3.00329963 C2,2.44919255 2.45127869,2 3.00329963,2 L26.9967004,2 C27.5508075,2 28,2.45127869 28,3.00329963 L28,26.9967004 C28,27.5508075 27.5487213,28 26.9967004,28 L3.00329963,28 C2.44919255,28 2,27.5487213 2,26.9967004 L2,3.00329963 Z M4,8.99339768 C4,8.44475929 4.44335318,8 5.0093689,8 L6.9906311,8 C7.54809015,8 8,8.44494629 8,8.99339768 L8,25.0066023 C8,25.5552407 7.55664682,26 6.9906311,26 L5.0093689,26 C4.45190985,26 4,25.5550537 4,25.0066023 L4,8.99339768 Z M10,15.9955775 C10,15.4457352 10.4433532,15 11.0093689,15 L12.9906311,15 C13.5480902,15 14,15.444837 14,15.9955775 L14,25.0044225 C14,25.5542648 13.5566468,26 12.9906311,26 L11.0093689,26 C10.4519098,26 10,25.555163 10,25.0044225 L10,15.9955775 Z M16,11.0008717 C16,10.4481055 16.4433532,10 17.0093689,10 L18.9906311,10 C19.5480902,10 20,10.4446309 20,11.0008717 L20,24.9991283 C20,25.5518945 19.5566468,26 18.9906311,26 L17.0093689,26 C16.4519098,26 16,25.5553691 16,24.9991283 L16,11.0008717 Z M22,5.99874609 C22,5.44715386 22.4433532,5 23.0093689,5 L24.9906311,5 C25.5480902,5 26,5.43861485 26,5.99874609 L26,25.0012539 C26,25.5528461 25.5566468,26 24.9906311,26 L23.0093689,26 C22.4519098,26 22,25.5613852 22,25.0012539 L22,5.99874609 Z M23,6 L25,6 L25,25 L23,25 L23,6 Z" id="Combined-Shape"></path>
            </g>
        </g>
    </g>
</svg>