<?xml version="1.0" encoding="UTF-8" standalone="no"?>
<svg width="42px" height="42px" viewBox="0 0 42 42" version="1.1" xmlns="http://www.w3.org/2000/svg" xmlns:xlink="http://www.w3.org/1999/xlink">
    <!-- Generator: Sketch 3.7 (28169) - http://www.bohemiancoding.com/sketch -->
    <title>Group</title>
    <desc>Created with Sketch.</desc>
    <defs></defs>
    <g id="icons-exporting" stroke="none" stroke-width="1" fill="none" fill-rule="evenodd">
        <g id="Homepage-3-paragraphs" transform="translate(-174.000000, -42.000000)" fill="#BF97F0">
            <g id="Group" transform="translate(174.000000, 42.000000)">
                <path d="M32.9434101,26.7007694 L32.9497475,26.7071068 L33.6568542,26 L28,20.3431458 L27.2928932,21.0502525 L32.2363033,25.9936626 L32.2315529,25.9984131 L32.2378902,26.0047504 L27.2928932,30.9497475 L28,31.6568542 L33.6568542,26 L32.9497475,25.2928932 L32.944997,25.2976437 L33.6457664,25.9984131 L32.9434101,26.7007694 Z M8.69669914,25.6464466 L8.34314575,26 L14,31.6568542 L14.7071068,30.9497475 L9.75735931,26 L14.7071068,21.0502525 L14,20.3431458 L8.69669914,25.6464466 Z M0,1.99749218 C0,0.894307712 0.896660339,0 1.99749218,0 L40.0025078,0 C41.1056923,0 42,0.896660339 42,1.99749218 L42,40.0025078 C42,41.1056923 41.1033397,42 40.0025078,42 L1.99749218,42 C0.894307712,42 0,41.1033397 0,40.0025078 L0,1.99749218 Z M2,2.9968754 C2,2.44631632 2.45323029,2 2.9968754,2 L39.0031246,2 C39.5536837,2 40,2.45323029 40,2.9968754 L40,39.0031246 C40,39.5536837 39.5467697,40 39.0031246,40 L2.9968754,40 C2.44631632,40 2,39.5467697 2,39.0031246 L2,2.9968754 Z M2,9 L40,9 L40,11 L2,11 L2,9 Z M5.5,7 C6.32842712,7 7,6.32842712 7,5.5 C7,4.67157288 6.32842712,4 5.5,4 C4.67157288,4 4,4.67157288 4,5.5 C4,6.32842712 4.67157288,7 5.5,7 Z M10.5,7 C11.3284271,7 12,6.32842712 12,5.5 C12,4.67157288 11.3284271,4 10.5,4 C9.67157288,4 9,4.67157288 9,5.5 C9,6.32842712 9.67157288,7 10.5,7 Z M15.5,7 C16.3284271,7 17,6.32842712 17,5.5 C17,4.67157288 16.3284271,4 15.5,4 C14.6715729,4 14,4.67157288 14,5.5 C14,6.32842712 14.6715729,7 15.5,7 Z M16.7724925,34.888859 L25.313962,15.7044044 L26.2275075,16.111141 L17.686038,35.2955956 L16.7724925,34.888859 Z" id="Combined-Shape"></path>
            </g>
        </g>
    </g>
</svg>