<?xml version="1.0" encoding="UTF-8" standalone="no"?>
<svg width="20px" height="20px" viewBox="0 0 20 20" version="1.1" xmlns="http://www.w3.org/2000/svg" xmlns:xlink="http://www.w3.org/1999/xlink">
    <!-- Generator: Sketch 3.6.1 (26313) - http://www.bohemiancoding.com/sketch -->
    <title>Cancel</title>
    <desc>Created with Sketch.</desc>
    <defs></defs>
    <g id="7-april-2016" stroke="none" stroke-width="1" fill="none" fill-rule="evenodd">
        <g id="video-overlay" transform="translate(-1380.000000, -40.000000)" fill="#FFFFFF">
            <path d="M1391.6109,50 L1399.66481,41.9460829 C1400.10192,41.5089717 1400.11021,40.7794645 1399.66537,40.3346281 C1399.21743,39.8866903 1398.49906,39.8900421 1398.05392,40.3351876 L1390,48.3891047 L1381.94608,40.3351876 C1381.50897,39.8980764 1380.77946,39.8897916 1380.33463,40.3346281 C1379.88669,40.7825659 1379.89004,41.5009374 1380.33519,41.9460829 L1388.3891,50 L1380.33519,58.0539171 C1379.89808,58.4910283 1379.88979,59.2205355 1380.33463,59.6653719 C1380.78257,60.1133097 1381.50094,60.1099579 1381.94608,59.6648124 L1390,51.6108953 L1398.05392,59.6648124 C1398.49103,60.1019236 1399.22054,60.1102084 1399.66537,59.6653719 C1400.11331,59.2174341 1400.10996,58.4990626 1399.66481,58.0539171 L1391.6109,50 L1391.6109,50 Z" id="Cancel"></path>
        </g>
    </g>
</svg>