<?xml version="1.0" encoding="UTF-8" standalone="no"?>
<svg width="42px" height="27px" viewBox="0 0 42 27" version="1.1" xmlns="http://www.w3.org/2000/svg" xmlns:xlink="http://www.w3.org/1999/xlink">
    <!-- Generator: Sketch 3.7 (28169) - http://www.bohemiancoding.com/sketch -->
    <title>Group 2</title>
    <desc>Created with Sketch.</desc>
    <defs>
        <path d="M33.7826087,27 L9.13043478,27 C4.08783489,27 0,22.9705627 0,18 C0,13.6311747 3.15799608,9.98940186 7.34659663,9.17168188 C7.71286626,6.03536305 10.4157326,3.6 13.6956522,3.6 C14.277782,3.6 14.8417345,3.67671442 15.3776726,3.82044663 C17.3874438,1.48338824 20.3875446,0 23.7391304,0 C29.7902503,0 34.6956522,4.8353247 34.6956522,10.8 C34.6956522,10.8164832 34.6956147,10.8329578 34.6955399,10.8494237 C38.8042444,11.2970732 42,14.7306637 42,18.9 C42,23.3735065 38.3209486,27 33.7826087,27 Z" id="path-1"></path>
        <mask id="mask-2" maskContentUnits="userSpaceOnUse" maskUnits="objectBoundingBox" x="0" y="0" width="42" height="27" fill="white">
            <use xlink:href="#path-1"></use>
        </mask>
    </defs>
    <g id="icons" stroke="none" stroke-width="1" fill="none" fill-rule="evenodd" opacity="0.6">
        <g id="Install-DCOS" transform="translate(-333.000000, -50.000000)" stroke="#9351E5" stroke-width="4">
            <g id="Group-2" transform="translate(333.000000, 50.000000)">
                <use id="Combined-Shape" mask="url(#mask-2)" xlink:href="#path-1"></use>
            </g>
        </g>
    </g>
</svg>