<svg xmlns="http://www.w3.org/2000/svg" width="42" height="27" viewBox="0 0 42 27">
  <path fill="none" stroke="#9351E5" stroke-width="2" d="M32.173913,25 L8.69565217,25 C3.89317609,25 0,21.2690396 0,16.6666667 C0,12.6214591 3.00761368,9.24944801 6.99675543,8.49229866 C7.34558692,5.58829912 9.91974538,3.33333333 13.0434783,3.33333333 C13.5978876,3.33333333 14.1349852,3.40436521 14.6454025,3.53745059 C16.5594703,1.37350763 19.4167091,0 22.6086957,0 C28.371667,0 33.0434783,4.4771525 33.0434783,10 C33.0434783,10.0152622 33.0434426,10.0305165 33.0433713,10.0457627 C36.9564232,10.460253 40,13.6395034 40,17.5 C40,21.6421356 36.4961415,25 32.173913,25 Z" transform="translate(1 1)" opacity=".6"/>
</svg>
