<?xml version="1.0" encoding="UTF-8" standalone="no"?>
<svg width="30px" height="26px" viewBox="0 0 30 26" version="1.1" xmlns="http://www.w3.org/2000/svg" xmlns:xlink="http://www.w3.org/1999/xlink">
    <!-- Generator: Sketch 3.7 (28169) - http://www.bohemiancoding.com/sketch -->
    <title>Group 2</title>
    <desc>Created with Sketch.</desc>
    <defs></defs>
    <g id="icons-exporting" stroke="none" stroke-width="1" fill="none" fill-rule="evenodd">
        <g id="Why-DCOS-Build-Amazing-Applications" transform="translate(-689.000000, -52.000000)" fill="#BF97F0">
            <g id="Group-2" transform="translate(689.000000, 50.000000)">
                <g id="Group">
                    <path d="M6,18.9725356 C3.75002477,18.7238135 2,16.8162768 2,14.5 C2,12.0147186 4.01471863,10 6.5,10 C6.88364301,10 7.25607304,10.0480085 7.61161012,10.1383454 C7.23061305,9.69957888 7,9.12672072 7,8.5 C7,7.11928813 8.11928813,6 9.5,6 C10.42549,6 11.233522,6.5028972 11.6657365,7.250332 C12.662899,5.319781 14.6773238,4 17,4 C20.3137085,4 23,6.6862915 23,10 C23,10.3955777 22.9617186,10.7822143 22.8886582,11.1564073 C23.2414929,11.0545694 23.6143738,11 24,11 C26.209139,11 28,12.790861 28,15 C28,17.209139 26.209139,19 24,19 L24,21 L6,21 L6,20.9810552 C6.16502081,20.9936085 6.331764,21 6.5,21 C6.50724915,21 6.51449554,20.9999881 6.52173913,20.9999644 L24.1304348,21 L24.1304348,20.9986103 C27.3839144,20.9292207 30,18.2701201 30,15 C30,12.0085293 27.8107566,9.52838371 24.9470207,9.07431438 C24.4881831,5.09209112 21.1051898,2 17,2 C14.773128,2 12.7587661,2.90986362 11.3083898,4.37811521 C10.7549638,4.13496258 10.143243,4 9.5,4 C7.12531297,4 5.18024068,5.83939937 5.01183272,8.17114851 C2.13917231,8.84401239 0,11.422191 0,14.5 C0,17.9216149 2.64377614,20.7257427 6,20.9810552 Z" id="Combined-Shape"></path>
                    <path d="M8,16.0058587 C8,14.8980535 8.89706013,14 10.0058587,14 L19.9941413,14 C21.1019465,14 22,14.8970601 22,16.0058587 L22,25.9941413 C22,27.1019465 21.1029399,28 19.9941413,28 L10.0058587,28 C8.89805351,28 8,27.1029399 8,25.9941413 L8,16.0058587 Z M10,16 L20,16 L20,26 L10,26 L10,16 Z M15,16 L20,16 L20,21 L15,21 L15,16 Z M10,21 L15,21 L15,26 L10,26 L10,21 Z" id="Combined-Shape"></path>
                </g>
            </g>
        </g>
    </g>
</svg>