<?xml version="1.0" encoding="UTF-8" standalone="no"?>
<svg width="42px" height="42px" viewBox="0 0 42 42" version="1.1" xmlns="http://www.w3.org/2000/svg" xmlns:xlink="http://www.w3.org/1999/xlink">
    <!-- Generator: Sketch 3.7 (28169) - http://www.bohemiancoding.com/sketch -->
    <title>Group 4</title>
    <desc>Created with Sketch.</desc>
    <defs></defs>
    <g id="icons-exporting" stroke="none" stroke-width="1" fill="none" fill-rule="evenodd">
        <g id="Homepage-header-Copy" transform="translate(-134.000000, -37.000000)" fill="#A9A6AF">
            <g id="Group-4" transform="translate(134.000000, 37.000000)">
                <path d="M19,33.9710233 C18.5055738,33.9902103 18.0052877,34 17.5,34 C10.7704654,34 4.92810921,32.2635602 2,29.7173406 L2,33.3147185 C4.68453647,35.9112466 10.6299627,38 17.5,38 C18.0053121,38 18.505622,37.9886997 19,37.9667283 L19,39.9710233 C18.5055738,39.9902103 18.0052877,40 17.5,40 C8.14234982,40 0.500135525,36.6424438 0.0235740747,32.4188593 L0,32.4 L0,26.0000002 C0,25.9067321 0.00349138892,25.813837 0.010417679,25.7213405 C1.92881933,29.0000219 9.03145097,32 17.5,32 C18.0051298,32 18.5053999,31.9893265 19,31.9685571 L19,33.9710233 Z M31.161749,19 C31.8599181,18.6018574 32.4765291,18.1725394 33,17.7173406 L33,19 L35,19 L35,14.0000002 C35,13.9067321 34.9965086,13.813837 34.9895823,13.7213405 L34.9895823,13.7213405 C33.7477392,15.8437365 30.3335016,17.849345 25.7826152,19 L31.161749,19 Z M19,21.9710233 C18.5055738,21.9902103 18.0052877,22 17.5,22 C10.7704654,22 4.92810921,20.2635602 2,17.7173406 L2,21.2946499 C4.67103407,23.9004755 10.6214465,26 17.5,26 C18.0053197,26 18.5056305,25.9886692 19,25.9666394 L19,27.9710233 C18.5055738,27.9902103 18.0052877,28 17.5,28 C8.14234982,28 0.500135525,24.6424438 0.0235740747,20.4188593 L0,20.4 L0,14 C0,13.9067321 0.00349138892,13.813837 0.010417679,13.7213405 C1.92881933,17.0000219 9.03145097,20 17.5,20 C18.0051298,20 18.5053999,19.9893265 19,19.9685571 L19,21.9710233 Z M17.5,16 C27.1649831,16 35,12.418278 35,8 C35,3.581722 27.1649831,0 17.5,0 C7.83501688,0 0,3.581722 0,8 C0,12.418278 7.83501688,16 17.5,16 Z M17.5,14 C26.0604136,14 33,11.3137085 33,8 C33,4.6862915 26.0604136,2 17.5,2 C8.93958638,2 2,4.6862915 2,8 C2,11.3137085 8.93958638,14 17.5,14 Z M21,22.9945615 C21,21.8929956 21.9023438,21 22.9945615,21 L40.0054385,21 C41.1070044,21 42,21.9023438 42,22.9945615 L42,40.0054385 C42,41.1070044 41.0976562,42 40.0054385,42 L22.9945615,42 C21.8929956,42 21,41.0976562 21,40.0054385 L21,22.9945615 Z M23,23.9999602 C23,23.4476974 23.4547089,23 23.9999602,23 L39.0000398,23 C39.5523026,23 40,23.4547089 40,23.9999602 L40,39.0000398 C40,39.5523026 39.5452911,40 39.0000398,40 L23.9999602,40 C23.4476974,40 23,39.5452911 23,39.0000398 L23,23.9999602 Z M24,25.0029293 C24,24.4490268 24.4378814,24 25.0029293,24 L29.9970707,24 C30.5509732,24 31,24.4378814 31,25.0029293 L31,29.9970707 C31,30.5509732 30.5621186,31 29.9970707,31 L25.0029293,31 C24.4490268,31 24,30.5621186 24,29.9970707 L24,25.0029293 Z M24,33.0029293 C24,32.4490268 24.4378814,32 25.0029293,32 L29.9970707,32 C30.5509732,32 31,32.4378814 31,33.0029293 L31,37.9970707 C31,38.5509732 30.5621186,39 29.9970707,39 L25.0029293,39 C24.4490268,39 24,38.5621186 24,37.9970707 L24,33.0029293 Z M32,33.0029293 C32,32.4490268 32.4378814,32 33.0029293,32 L37.9970707,32 C38.5509732,32 39,32.4378814 39,33.0029293 L39,37.9970707 C39,38.5509732 38.5621186,39 37.9970707,39 L33.0029293,39 C32.4490268,39 32,38.5621186 32,37.9970707 L32,33.0029293 Z" id="Combined-Shape"></path>
            </g>
        </g>
    </g>
</svg>