<?xml version="1.0" encoding="UTF-8" standalone="no"?>
<svg width="42px" height="42px" viewBox="0 0 42 42" version="1.1" xmlns="http://www.w3.org/2000/svg" xmlns:xlink="http://www.w3.org/1999/xlink">
    <!-- Generator: Sketch 3.7 (28169) - http://www.bohemiancoding.com/sketch -->
    <title>Combined Shape</title>
    <desc>Created with Sketch.</desc>
    <defs></defs>
    <g id="icons-exporting" stroke="none" stroke-width="1" fill="none" fill-rule="evenodd">
        <g id="Homepage-header-Copy" transform="translate(-134.000000, -37.000000)" fill="#A9A6AF">
            <path d="M153,70.9710233 C152.505574,70.9902103 152.005288,71 151.5,71 C144.770465,71 138.928109,69.2635602 136,66.7173406 L136,70.3147185 C138.684536,72.9112466 144.629963,75 151.5,75 C152.005312,75 152.505622,74.9886997 153,74.9667283 L153,76.9710233 C152.505574,76.9902103 152.005288,77 151.5,77 C142.14235,77 134.500136,73.6424438 134.023574,69.4188593 L134,69.4 L134,63.0000002 C134,62.9067321 134.003491,62.813837 134.010418,62.7213405 C135.928819,66.0000219 143.031451,69 151.5,69 C152.00513,69 152.5054,68.9893265 153,68.9685571 L153,70.9710233 Z M165.161749,56 C165.859918,55.6018574 166.476529,55.1725394 167,54.7173406 L167,56 L169,56 L169,51.0000002 C169,50.9067321 168.996509,50.813837 168.989582,50.7213405 L168.989582,50.7213405 C167.747739,52.8437365 164.333502,54.849345 159.782615,56 L165.161749,56 Z M153,58.9710233 C152.505574,58.9902103 152.005288,59 151.5,59 C144.770465,59 138.928109,57.2635602 136,54.7173406 L136,58.2946499 C138.671034,60.9004755 144.621447,63 151.5,63 C152.00532,63 152.50563,62.9886692 153,62.9666394 L153,64.9710233 C152.505574,64.9902103 152.005288,65 151.5,65 C142.14235,65 134.500136,61.6424438 134.023574,57.4188593 L134,57.4 L134,51 C134,50.9067321 134.003491,50.813837 134.010418,50.7213405 C135.928819,54.0000219 143.031451,57 151.5,57 C152.00513,57 152.5054,56.9893265 153,56.9685571 L153,58.9710233 Z M151.5,53 C161.164983,53 169,49.418278 169,45 C169,40.581722 161.164983,37 151.5,37 C141.835017,37 134,40.581722 134,45 C134,49.418278 141.835017,53 151.5,53 Z M151.5,51 C160.060414,51 167,48.3137085 167,45 C167,41.6862915 160.060414,39 151.5,39 C142.939586,39 136,41.6862915 136,45 C136,48.3137085 142.939586,51 151.5,51 Z M155,59.9945615 C155,58.8929956 155.902344,58 156.994561,58 L174.005439,58 C175.107004,58 176,58.9023438 176,59.9945615 L176,77.0054385 C176,78.1070044 175.097656,79 174.005439,79 L156.994561,79 C155.892996,79 155,78.0976562 155,77.0054385 L155,59.9945615 Z M157,60.9999602 C157,60.4476974 157.454709,60 157.99996,60 L173.00004,60 C173.552303,60 174,60.4547089 174,60.9999602 L174,76.0000398 C174,76.5523026 173.545291,77 173.00004,77 L157.99996,77 C157.447697,77 157,76.5452911 157,76.0000398 L157,60.9999602 Z M158,62.0029293 C158,61.4490268 158.437881,61 159.002929,61 L163.997071,61 C164.550973,61 165,61.4378814 165,62.0029293 L165,66.9970707 C165,67.5509732 164.562119,68 163.997071,68 L159.002929,68 C158.449027,68 158,67.5621186 158,66.9970707 L158,62.0029293 Z M158,70.0029293 C158,69.4490268 158.437881,69 159.002929,69 L163.997071,69 C164.550973,69 165,69.4378814 165,70.0029293 L165,74.9970707 C165,75.5509732 164.562119,76 163.997071,76 L159.002929,76 C158.449027,76 158,75.5621186 158,74.9970707 L158,70.0029293 Z M166,70.0029293 C166,69.4490268 166.437881,69 167.002929,69 L171.997071,69 C172.550973,69 173,69.4378814 173,70.0029293 L173,74.9970707 C173,75.5509732 172.562119,76 171.997071,76 L167.002929,76 C166.449027,76 166,75.5621186 166,74.9970707 L166,70.0029293 Z" id="Combined-Shape"></path>
        </g>
    </g>
</svg>