<svg xmlns="http://www.w3.org/2000/svg" width="42" height="38" viewBox="0 0 42 38" xmlns:xlink="http://www.w3.org/1999/xlink">
  <defs>
    <rect id="a" width="1" height="10" x="17" y="20" rx=".5"/>
    <mask id="c" width="1" height="10" x="0" y="0" fill="white">
      <use xlink:href="#a"/>
    </mask>
    <rect id="b" width="1" height="10" x="22" y="20" rx=".5"/>
    <mask id="d" width="1" height="10" x="0" y="0" fill="white">
      <use xlink:href="#b"/>
    </mask>
  </defs>
  <g fill="none" fill-rule="evenodd" transform="translate(1 1)" opacity=".6">
    <path stroke="#9351E5" stroke-width="2" d="M33.0433713,10.0457627 C36.9564232,10.460253 40,13.6395034 40,17.5 C40,21.6421356 36.4961415,25 32.173913,25 L8.69565217,25 C3.89317609,25 0,21.2690396 0,16.6666667 C0,12.6214591 3.00761368,9.24944801 6.99675543,8.49229866 C7.34558692,5.58829912 9.91974538,3.33333333 13.0434783,3.33333333 C13.5978876,3.33333333 14.1349852,3.40436521 14.6454025,3.53745059 C16.5594703,1.37350763 19.4167091,0 22.6086957,0 C28.371667,0 33.0434783,4.4771525 33.0434783,10 C33.0434783,10.0152622 33.0434426,10.0305165 33.0433713,10.0457627 Z"/>
    <circle cx="20" cy="25" r="12" fill="#FFFFFF"/>
    <path fill="#9351E5" d="M20,35 C25.5228475,35 30,30.5228475 30,25 C30,19.4771525 25.5228475,15 20,15 C14.4771525,15 10,19.4771525 10,25 C10,30.5228475 14.4771525,35 20,35 Z M20,33 C24.418278,33 28,29.418278 28,25 C28,20.581722 24.418278,17 20,17 C15.581722,17 12,20.581722 12,25 C12,29.418278 15.581722,33 20,33 Z"/>
    <rect width="3" height="2" x="16" y="26" fill="#9351E5" rx="1"/>
    <rect width="3" height="2" x="21" y="23" fill="#9351E5" rx="1"/>
    <use stroke="#9351E5" stroke-width="2" mask="url(#c)" xlink:href="#a"/>
    <use stroke="#9351E5" stroke-width="2" mask="url(#d)" xlink:href="#b"/>
  </g>
</svg>
