<?xml version="1.0" encoding="UTF-8" standalone="no"?>
<svg width="9px" height="11px" viewBox="0 0 9 11" version="1.1" xmlns="http://www.w3.org/2000/svg" xmlns:xlink="http://www.w3.org/1999/xlink">
    <!-- Generator: Sketch 3.7 (28169) - http://www.bohemiancoding.com/sketch -->
    <title>Group 4</title>
    <desc>Created with Sketch.</desc>
    <defs></defs>
    <g id="icons" stroke="none" stroke-width="1" fill="none" fill-rule="evenodd" fill-opacity="0.6">
        <g id="General-icons-1" transform="translate(-324.000000, -898.000000)" fill="#404040">
            <g id="Group-4" transform="translate(324.000000, 898.000000)">
                <path d="M0,0.995577499 C0,0.445735229 0.446311399,0 0.997544646,0 L8.00245535,0 C8.55338405,0 9,0.444836974 9,0.995577499 L9,10.0044225 C9,10.5542648 8.5536886,11 8.00245535,11 L0.997544646,11 C0.446615951,11 0,10.555163 0,10.0044225 L0,0.995577499 Z M1,1 L8,1 L8,10 L1,10 L1,1 Z M2,3.5 C2,3.22385763 2.21484375,3 2.49769878,3 L6.50230122,3 C6.77717266,3 7,3.23193359 7,3.5 C7,3.77614237 6.78515625,4 6.50230122,4 L2.49769878,4 C2.22282734,4 2,3.76806641 2,3.5 Z M2,5.5 C2,5.22385763 2.21484375,5 2.49769878,5 L6.50230122,5 C6.77717266,5 7,5.23193359 7,5.5 C7,5.77614237 6.78515625,6 6.50230122,6 L2.49769878,6 C2.22282734,6 2,5.76806641 2,5.5 Z M2,7.5 C2,7.22385763 2.21484375,7 2.49769878,7 L6.50230122,7 C6.77717266,7 7,7.23193359 7,7.5 C7,7.77614237 6.78515625,8 6.50230122,8 L2.49769878,8 C2.22282734,8 2,7.76806641 2,7.5 Z" id="Combined-Shape"></path>
            </g>
        </g>
    </g>
</svg>