<?xml version="1.0" encoding="UTF-8" standalone="no"?>
<svg width="42px" height="42px" viewBox="0 0 42 42" version="1.1" xmlns="http://www.w3.org/2000/svg" xmlns:xlink="http://www.w3.org/1999/xlink">
    <!-- Generator: Sketch 3.6.1 (26313) - http://www.bohemiancoding.com/sketch -->
    <title>Combined Shape</title>
    <desc>Created with Sketch.</desc>
    <defs></defs>
    <g id="icons" stroke="none" stroke-width="1" fill="none" fill-rule="evenodd">
        <g id="Icons-Copy" transform="translate(-998.000000, -99.000000)" fill="#FFFFFF">
            <path d="M1004.87637,107.290584 C1002.05304,110.426035 1000.25887,114.506518 1000.02586,119 L1001.00104,119 C1001.55275,119 1002,119.443865 1002,120 C1002,120.552285 1001.55734,121 1001.00104,121 L1000.02586,121 C1000.25887,125.493482 1002.05304,129.573965 1004.87637,132.709416 L1005.56571,132.020077 C1005.95583,131.629961 1006.58594,131.627568 1006.97918,132.020815 C1007.36971,132.41134 1007.37328,133.04093 1006.97992,133.434291 L1006.29058,134.12363 C1009.42604,136.946956 1013.50652,138.741135 1018,138.974136 L1018,137.998957 C1018,137.447248 1018.44386,137 1019,137 C1019.55228,137 1020,137.44266 1020,137.998957 L1020,138.974136 C1024.49348,138.741135 1028.57396,136.946956 1031.70942,134.12363 L1031.02008,133.434291 C1030.62996,133.044174 1030.62757,132.414062 1031.02082,132.020815 C1031.41134,131.630291 1032.04093,131.626717 1032.43429,132.020077 L1033.12363,132.709416 C1035.94696,129.573965 1037.74113,125.493482 1037.97414,121 L1036.99896,121 C1036.44725,121 1036,120.556135 1036,120 C1036,119.447715 1036.44266,119 1036.99896,119 L1037.97414,119 C1037.74113,114.506518 1035.94696,110.426035 1033.12363,107.290584 L1032.43429,107.979923 C1032.04417,108.370039 1031.41406,108.372432 1031.02082,107.979185 C1030.63029,107.58866 1030.62672,106.95907 1031.02008,106.565709 L1031.70942,105.87637 C1028.57396,103.053044 1024.49348,101.258865 1020,101.025864 L1020,102.001043 C1020,102.552752 1019.55614,103 1019,103 C1018.44772,103 1018,102.55734 1018,102.001043 L1018,101.025864 C1013.50652,101.258865 1009.42604,103.053044 1006.29058,105.87637 L1006.97992,106.565709 C1007.37004,106.955826 1007.37243,107.585938 1006.97918,107.979185 C1006.58866,108.369709 1005.95907,108.373283 1005.56571,107.979923 L1004.87637,107.290584 Z M1019,141 C1030.59798,141 1040,131.59798 1040,120 C1040,108.40202 1030.59798,99 1019,99 C1007.40202,99 998,108.40202 998,120 C998,131.59798 1007.40202,141 1019,141 Z M1017.76777,122.081475 C1016.79146,121.105165 1016.81625,119.538841 1017.8234,118.601578 C1017.8234,118.601578 1027.51293,109.199219 1029.08148,110.767767 C1030.65002,112.336315 1021.24766,122.025839 1021.24766,122.025839 C1020.30208,123.032877 1018.75088,123.064593 1017.76777,122.081475 Z" id="Combined-Shape"></path>
        </g>
    </g>
</svg>