<svg xmlns="http://www.w3.org/2000/svg" width="42" height="42" viewBox="0 0 42 42">
  <g fill="#BF97F0" fill-rule="evenodd">
    <path d="M0 24.9974219C0 23.8942762.896660339 23 1.99749218 23L40.0025078 23C41.1056923 23 42 23.8909254 42 24.9974219L42 40.0025781C42 41.1057238 41.1033397 42 40.0025078 42L1.99749218 42C.894307712 42 0 41.1090746 0 40.0025781L0 24.9974219zM5.5 30C6.32842712 30 7 29.3284271 7 28.5 7 27.6715729 6.32842712 27 5.5 27 4.67157288 27 4 27.6715729 4 28.5 4 29.3284271 4.67157288 30 5.5 30zM10.5 30C11.3284271 30 12 29.3284271 12 28.5 12 27.6715729 11.3284271 27 10.5 27 9.67157288 27 9 27.6715729 9 28.5 9 29.3284271 9.67157288 30 10.5 30zM0 1.99742191C0 .894276248.896660339 0 1.99749218 0L40.0025078 0C41.1056923 0 42 .890925393 42 1.99742191L42 17.0025781C42 18.1057238 41.1033397 19 40.0025078 19L1.99749218 19C.894307712 19 0 18.1090746 0 17.0025781L0 1.99742191zM2 3.00748397C2 2.45106594 2.45323029 2 2.9968754 2L39.0031246 2C39.5536837 2 40 2.44892021 40 3.00748397L40 15.992516C40 16.5489341 39.5467697 17 39.0031246 17L2.9968754 17C2.44631632 17 2 16.5510798 2 15.992516L2 3.00748397zM5.5 7C6.32842712 7 7 6.32842712 7 5.5 7 4.67157288 6.32842712 4 5.5 4 4.67157288 4 4 4.67157288 4 5.5 4 6.32842712 4.67157288 7 5.5 7zM10.5 7C11.3284271 7 12 6.32842712 12 5.5 12 4.67157288 11.3284271 4 10.5 4 9.67157288 4 9 4.67157288 9 5.5 9 6.32842712 9.67157288 7 10.5 7z"/>
  </g>
</svg>
