<?xml version="1.0" encoding="UTF-8" standalone="no"?>
<svg width="16px" height="18px" viewBox="0 0 16 18" version="1.1" xmlns="http://www.w3.org/2000/svg" xmlns:xlink="http://www.w3.org/1999/xlink">
    <!-- Generator: Sketch 3.7 (28169) - http://www.bohemiancoding.com/sketch -->
    <title>Combined Shape</title>
    <desc>Created with Sketch.</desc>
    <defs></defs>
    <g id="icons" stroke="none" stroke-width="1" fill="none" fill-rule="evenodd">
        <g id="General-icons-1" transform="translate(-374.000000, -706.000000)" fill="#9351E5">
            <path d="M385.002895,720.970447 L388.999128,720.970447 C389.555369,720.970447 390,720.52027 390,719.964948 L390,707.005499 C390,706.448036 389.551894,706 388.999128,706 L375.000872,706 C374.444631,706 374,706.450177 374,707.005499 L374,719.964948 C374,720.522411 374.448106,720.970447 375.000872,720.970447 L378.989294,720.970447 L381.996042,724.003958 L385.002895,720.970447 Z M385.992154,719.972417 L389,719.972417 L389,706.99803 L375,706.99803 L375,719.972417 L381.982268,719.972417 L385.996077,719.968459 L385.992154,719.972417 Z M381.982268,719.972417 L379,719.972417 L379,719.975358 L381.982268,719.972417 Z M377,710.491134 C377,710.215536 377.227653,709.992119 377.495902,709.992119 L386.504098,709.992119 C386.777977,709.992119 387,710.223596 387,710.491134 C387,710.766732 386.772347,710.990149 386.504098,710.990149 L377.495902,710.990149 C377.222023,710.990149 377,710.758672 377,710.491134 Z M377,713.485223 C377,713.209625 377.227653,712.986208 377.495902,712.986208 L386.504098,712.986208 C386.777977,712.986208 387,713.217685 387,713.485223 C387,713.760822 386.772347,713.984238 386.504098,713.984238 L377.495902,713.984238 C377.222023,713.984238 377,713.752762 377,713.485223 Z M377,716.479313 C377,716.203714 377.227653,715.980298 377.495902,715.980298 L386.504098,715.980298 C386.777977,715.980298 387,716.211774 387,716.479313 C387,716.754911 386.772347,716.978328 386.504098,716.978328 L377.495902,716.978328 C377.222023,716.978328 377,716.746851 377,716.479313 Z M379.357298,719.975006 L384.607553,719.969828 L381.995332,722.589816 L379.357298,719.975006 Z" id="Combined-Shape"></path>
        </g>
    </g>
</svg>