<?xml version="1.0" encoding="UTF-8" standalone="no"?>
<svg width="29px" height="18px" viewBox="0 0 29 18" version="1.1" xmlns="http://www.w3.org/2000/svg" xmlns:xlink="http://www.w3.org/1999/xlink">
    <!-- Generator: Sketch 3.8.2 (29753) - http://www.bohemiancoding.com/sketch -->
    <title>Group 13</title>
    <desc>Created with Sketch.</desc>
    <defs></defs>
    <g id="May-17th-2016" stroke="none" stroke-width="1" fill="none" fill-rule="evenodd">
        <g id="install-copy" transform="translate(-686.000000, -1855.000000)" fill="#442484">
            <g id="Group-3" transform="translate(403.000000, 705.000000)">
                <g id="Group-2" transform="translate(283.000000, 1147.000000)">
                    <g id="Group-8">
                        <g id="Group-13" transform="translate(0.000000, 3.000000)">
                            <path d="M9.57017167,-1.77635684e-15 C4.59570815,-1.77635684e-15 0.571459227,4.02360515 0.571459227,9 C0.571459227,13.9763948 4.59506438,18 9.57017167,18 C14.7654506,18 18.2096567,14.3497854 18.2096567,9.20600858 C18.2096567,8.61373391 18.2096567,8.16309013 18.0680258,7.71244635 L9.57017167,7.71244635 L9.57017167,10.8025751 L14.6753219,10.8025751 C14.4693133,12.1223176 13.1302575,14.6845494 9.57017167,14.6845494 C6.49935622,14.6845494 3.99120172,12.1351931 3.99120172,9 C3.99120172,5.86480687 6.49935622,3.31545064 9.57017167,3.31545064 C11.3212446,3.31545064 12.4929185,4.06223176 13.1560086,4.70600858 L15.6023605,2.35622318 C14.0315451,0.888412017 12.0036481,1.65437525e-15 9.57017167,1.65437525e-15 L9.57017167,-1.77635684e-15 Z M23.7139485,5.14377682 L23.7139485,7.71244635 L21.1388412,7.71244635 L21.1388412,10.2875536 L23.7139485,10.2875536 L23.7139485,12.8562232 L26.282618,12.8562232 L26.282618,10.2875536 L28.8577253,10.2875536 L28.8577253,7.71244635 L26.282618,7.71244635 L26.282618,5.14377682 L23.7139485,5.14377682 L23.7139485,5.14377682 Z" id="Shape"></path>
                        </g>
                    </g>
                </g>
            </g>
        </g>
    </g>
</svg>