<?xml version="1.0" encoding="UTF-8" standalone="no"?>
<svg width="16px" height="19px" viewBox="0 0 16 19" version="1.1" xmlns="http://www.w3.org/2000/svg" xmlns:xlink="http://www.w3.org/1999/xlink">
    <!-- Generator: Sketch 3.8.2 (29753) - http://www.bohemiancoding.com/sketch -->
    <title>Shape</title>
    <desc>Created with Sketch.</desc>
    <defs></defs>
    <g id="May-17th-2016" stroke="none" stroke-width="1" fill="none" fill-rule="evenodd">
        <g id="install-copy" transform="translate(-839.000000, -1855.000000)" fill="#442484">
            <g id="ycombinator" transform="translate(839.000000, 1855.000000)">
                <g id="Group">
                    <path d="M6.75009445,11.4664722 L0.4,0 L3.30207938,0 L7.03742909,7.25655975 C7.09489625,7.38581204 7.16194043,7.51967854 7.23856335,7.6581633 C7.31518628,7.79664791 7.38223031,7.9397466 7.43969747,8.08746354 C7.47800901,8.14285736 7.50674223,8.19363432 7.52589785,8.23979595 C7.54505362,8.28595744 7.5642091,8.32750221 7.58336486,8.36443152 C7.67914356,8.54907762 7.76534307,8.72910506 7.841966,8.90451898 C7.91858893,9.0799329 7.98563296,9.24149582 8.04310012,9.38921276 C8.19634612,9.07531423 8.3639562,8.73834003 8.5459357,8.37827987 C8.72791521,8.0182197 8.91468077,7.64431676 9.10623816,7.25655975 L12.8990548,0 L15.6,0 L9.19243854,11.6049563 L9.19243854,19 L6.75009445,19 L6.75009445,11.4664722 L6.75009445,11.4664722 Z" id="Shape"></path>
                </g>
            </g>
        </g>
    </g>
</svg>