<svg xmlns="http://www.w3.org/2000/svg" width="18" height="17" viewBox="0 0 18 17">
  <path fill="#9351E5" fill-rule="evenodd" d="M438.099449,705.95306 L430.522749,712.310666 C430.417354,712.399104 430.280454,712.572462 430.219255,712.69596 L429.298121,714.554782 C429.054617,715.046166 429.283743,715.32176 429.811651,715.166783 L431.802187,714.582424 C431.935645,714.543245 432.127911,714.43974 432.234328,714.350446 L439.811028,707.99284 L438.099449,705.95306 Z M438.865494,705.310273 L440.043533,704.32178 C440.255325,704.144066 440.572944,704.17391 440.748951,704.383667 L441.816659,705.656113 C441.994459,705.868006 441.963343,706.186833 441.755111,706.36156 L440.577072,707.350052 L438.865494,705.310273 Z M433,706 L425.000872,706 C424.444631,706 424,706.451066 424,707.007484 L424,719.992516 C424,720.55108 424.448106,721 425.000872,721 L438.999128,721 C439.555369,721 440,720.548934 440,719.992516 L440,713 L439,713 L439,720 L425,720 L425,707 L433,707 L433,706 Z" transform="translate(-424 -704)"/>
</svg>
