<?xml version="1.0" encoding="UTF-8" standalone="no"?>
<svg width="42px" height="42px" viewBox="0 0 42 42" version="1.1" xmlns="http://www.w3.org/2000/svg" xmlns:xlink="http://www.w3.org/1999/xlink">
    <!-- Generator: Sketch 3.7 (28169) - http://www.bohemiancoding.com/sketch -->
    <title>Group</title>
    <desc>Created with Sketch.</desc>
    <defs></defs>
    <g id="icons" stroke="none" stroke-width="1" fill="none" fill-rule="evenodd" opacity="0.6">
        <g id="Install-DCOS" transform="translate(-135.000000, -42.000000)" fill="#9351E5">
            <g id="Group" transform="translate(135.000000, 42.000000)">
                <path d="M0,2.00746124 C0,0.89877101 0.896660339,0 1.99749218,0 L40.0025078,0 C41.1056923,0 42,0.900345519 42,2.00746124 L42,32.9925388 C42,34.101229 41.1033397,35 40.0025078,35 L1.99749218,35 C0.894307712,35 0,34.0996545 0,32.9925388 L0,2.00746124 Z M2,2.99296544 C2,2.44456577 2.45323029,2 2.9968754,2 L39.0031246,2 C39.5536837,2 40,2.44610862 40,2.99296544 L40,28.0070346 C40,28.5554342 39.5467697,29 39.0031246,29 L2.9968754,29 C2.44631632,29 2,28.5538914 2,28.0070346 L2,2.99296544 Z" id="Combined-Shape"></path>
                <path d="M4,4.99539757 C4,4.44565467 4.4556644,4 4.99539757,4 L13.0046024,4 C13.5543453,4 14,4.4556644 14,4.99539757 L14,13.0046024 C14,13.5543453 13.5443356,14 13.0046024,14 L4.99539757,14 C4.44565467,14 4,13.5443356 4,13.0046024 L4,4.99539757 Z M5,5 L13,5 L13,13 L5,13 L5,5 Z" id="Combined-Shape"></path>
                <path d="M4,16.9953976 C4,16.4456547 4.4556644,16 4.99539757,16 L13.0046024,16 C13.5543453,16 14,16.4556644 14,16.9953976 L14,25.0046024 C14,25.5543453 13.5443356,26 13.0046024,26 L4.99539757,26 C4.44565467,26 4,25.5443356 4,25.0046024 L4,16.9953976 Z M5,17 L13,17 L13,25 L5,25 L5,17 Z" id="Combined-Shape-Copy"></path>
                <path d="M16,16.9953976 C16,16.4456547 16.4556644,16 16.9953976,16 L25.0046024,16 C25.5543453,16 26,16.4556644 26,16.9953976 L26,25.0046024 C26,25.5543453 25.5443356,26 25.0046024,26 L16.9953976,26 C16.4456547,26 16,25.5443356 16,25.0046024 L16,16.9953976 Z M17,17 L25,17 L25,25 L17,25 L17,17 Z" id="Combined-Shape-Copy-2"></path>
                <path d="M16,4.99539757 C16,4.44565467 16.4556644,4 16.9953976,4 L25.0046024,4 C25.5543453,4 26,4.4556644 26,4.99539757 L26,13.0046024 C26,13.5543453 25.5443356,14 25.0046024,14 L16.9953976,14 C16.4456547,14 16,13.5443356 16,13.0046024 L16,4.99539757 Z M17,5 L25,5 L25,13 L17,13 L17,5 Z" id="Combined-Shape-Copy-4"></path>
                <path d="M28,16.9953976 C28,16.4456547 28.4556644,16 28.9953976,16 L37.0046024,16 C37.5543453,16 38,16.4556644 38,16.9953976 L38,25.0046024 C38,25.5543453 37.5443356,26 37.0046024,26 L28.9953976,26 C28.4456547,26 28,25.5443356 28,25.0046024 L28,16.9953976 Z M29,17 L37,17 L37,25 L29,25 L29,17 Z" id="Combined-Shape-Copy-3"></path>
                <path d="M28,4.99539757 C28,4.44565467 28.4556644,4 28.9953976,4 L37.0046024,4 C37.5543453,4 38,4.4556644 38,4.99539757 L38,13.0046024 C38,13.5543453 37.5443356,14 37.0046024,14 L28.9953976,14 C28.4456547,14 28,13.5443356 28,13.0046024 L28,4.99539757 Z M29,5 L37,5 L37,13 L29,13 L29,5 Z" id="Combined-Shape-Copy-5"></path>
                <path d="M16,37 L26,37 L27.2552738,40.1381845 C27.6665747,41.1664368 27.1029399,42 25.9941413,42 L16.0058587,42 C14.8980535,42 14.3302593,41.1743517 14.7447262,40.1381845 L16,37 Z" id="Rectangle-214"></path>
            </g>
        </g>
    </g>
</svg>