<svg xmlns="http://www.w3.org/2000/svg" width="41" height="39" viewBox="0 0 41 39">
  <g fill="none" fill-rule="evenodd">
    <path fill="#BF97F0" d="M20.6191444,19 C20.0315168,19.6123364 19.5032623,20.2820879 19.0436358,21 L3.00564303,21 C2.44154413,21 2,21.4488226 2,22.0024733 L2,31.9975267 C2,32.544239 2.45024172,33 3.00564303,33 L17.9963267,33 C18.2881289,33.699732 18.6393316,34.3684984 19.0436358,35 L2.00239962,35 C0.896504848,35 0,34.1054862 0,33.0059397 L0,20.9940603 C0,19.8927712 0.896278629,19 2.00239962,19 L20.6191444,19 Z M35.0087272,15.9999699 C33.4672012,15.3557977 31.7751511,15 30,15 C28.2248212,15 26.532746,15.3558088 24.9912007,16 L2.00239962,16 C0.896504848,16 0,15.1054862 0,14.0059397 L0,1.99406028 C0,0.892771196 0.896278629,0 2.00239962,0 L34.9976004,0 C36.1034952,0 37,0.894513756 37,1.99406028 L37,14.0059397 C37,15.1035337 36.1097258,15.9940067 35.0087272,15.9999699 Z M2,3.00247329 L2,12.9975267 C2,13.544239 2.45024172,14 3.00564303,14 L33.994357,14 C34.5584559,14 35,13.5511774 35,12.9975267 L35,3.00247329 C35,2.45576096 34.5497583,2 33.994357,2 L3.00564303,2 C2.44154413,2 2,2.44882258 2,3.00247329 Z M10.5,26 C9.67157288,26 9,25.3284271 9,24.5 C9,23.6715729 9.67157288,23 10.5,23 C11.3284271,23 12,23.6715729 12,24.5 C12,25.3284271 11.3284271,26 10.5,26 Z M5.5,26 C4.67157288,26 4,25.3284271 4,24.5 C4,23.6715729 4.67157288,23 5.5,23 C6.32842712,23 7,23.6715729 7,24.5 C7,25.3284271 6.32842712,26 5.5,26 Z M10.5,7 C9.67157288,7 9,6.32842712 9,5.5 C9,4.67157288 9.67157288,4 10.5,4 C11.3284271,4 12,4.67157288 12,5.5 C12,6.32842712 11.3284271,7 10.5,7 Z M5.5,7 C4.67157288,7 4,6.32842712 4,5.5 C4,4.67157288 4.67157288,4 5.5,4 C6.32842712,4 7,4.67157288 7,5.5 C7,6.32842712 6.32842712,7 5.5,7 Z M30,39 C23.9248678,39 19,34.0751322 19,28 C19,21.9248678 23.9248678,17 30,17 C36.0751322,17 41,21.9248678 41,28 C41,34.0751322 36.0751322,39 30,39 Z"/>
    <path fill="#FFFFFF" d="M31,25.8215973 L33.5444638,28.366061 C33.9338282,28.7554255 34.5633303,28.757208 34.9565773,28.363961 C35.3471016,27.9734367 35.343339,27.3365092 34.9586773,26.9518475 L30.7118366,22.7050068 C30.5175009,22.5106711 30.2633443,22.4128862 30.0085986,22.4125782 C29.7486366,22.415918 29.4938095,22.5130204 29.3018231,22.7050068 L25.0549824,26.9518475 C24.6656179,27.341212 24.6638354,27.9707141 25.0570824,28.363961 C25.4476067,28.7544853 26.0845342,28.7507228 26.4691959,28.366061 L29,25.835257 L29,33.0046024 C29,33.5443356 29.4477153,34 30,34 C30.5561352,34 31,33.5543453 31,33.0046024 L31,25.8215973 L31,25.8215973 Z"/>
  </g>
</svg>
