<svg xmlns="http://www.w3.org/2000/svg" width="30" height="30" viewBox="0 0 30 30">
  <g fill="#9351E5" fill-rule="evenodd" opacity=".6">
    <path d="M0,8.00494659 C0,6.89764516 0.89784041,6 1.99161703,6 L28.008383,6 C29.1083227,6 30,6.89702623 30,8.00494659 L30,27.9950534 C30,29.1023548 29.1021596,30 28.008383,30 L1.99161703,30 C0.891677316,30 0,29.1029738 0,27.9950534 L0,8.00494659 Z M2,8.99180311 L2,27.0081969 C2,27.5446944 2.44919255,28 3.00329963,28 L26.9967004,28 C27.5487213,28 28,27.5559546 28,27.0081969 L28,8.99180311 C28,8.45530558 27.5508075,8 26.9967004,8 L3.00329963,8 C2.45127869,8 2,8.44404538 2,8.99180311 Z"/>
    <rect width="4" height="14" x="13" y="11" rx="1"/>
    <rect width="14" height="4" x="8" y="16" rx="1"/>
    <path d="M9,1.99810135 C9,0.894580447 9.90195036,0 11.0085302,0 L18.9914698,0 C20.1007504,0 21,0.886706352 21,1.99810135 L21,6.00189865 C21,7.10541955 20.0980496,8 18.9914698,8 L11.0085302,8 C9.8992496,8 9,7.11329365 9,6.00189865 L9,1.99810135 Z M11,3.0093689 L11,6 L19,6 L19,3.0093689 C19,2.44335318 18.5536144,2 18.0029699,2 L11.9970301,2 C11.4530363,2 11,2.45190985 11,3.0093689 Z"/>
  </g>
</svg>
