<?xml version="1.0" encoding="UTF-8" standalone="no"?>
<svg width="20px" height="18px" viewBox="0 0 20 18" version="1.1" xmlns="http://www.w3.org/2000/svg" xmlns:xlink="http://www.w3.org/1999/xlink">
    <!-- Generator: Sketch 3.7 (28169) - http://www.bohemiancoding.com/sketch -->
    <title>Group</title>
    <desc>Created with Sketch.</desc>
    <defs></defs>
    <g id="13-april-2016" stroke="none" stroke-width="1" fill="none" fill-rule="evenodd">
        <g id="homepage-copy-6" transform="translate(-280.000000, -23.000000)" fill="#FFFFFF">
            <g id="Group" transform="translate(280.000000, 23.000000)">
                <path d="M0,1 C0,0.44771525 0.455305576,0 0.99180311,0 L19.0081969,0 C19.5559546,0 20,0.443864822 20,1 C20,1.55228475 19.5446944,2 19.0081969,2 L0.99180311,2 C0.444045377,2 0,1.55613518 0,1 Z M0,9 C0,8.44771525 0.455305576,8 0.99180311,8 L19.0081969,8 C19.5559546,8 20,8.44386482 20,9 C20,9.55228475 19.5446944,10 19.0081969,10 L0.99180311,10 C0.444045377,10 0,9.55613518 0,9 Z M0,17 C0,16.4477153 0.455305576,16 0.99180311,16 L19.0081969,16 C19.5559546,16 20,16.4438648 20,17 C20,17.5522847 19.5446944,18 19.0081969,18 L0.99180311,18 C0.444045377,18 0,17.5561352 0,17 Z" id="Combined-Shape"></path>
            </g>
        </g>
    </g>
</svg>