<?xml version="1.0" encoding="UTF-8" standalone="no"?>
<svg width="20px" height="20px" viewBox="0 0 20 20" version="1.1" xmlns="http://www.w3.org/2000/svg" xmlns:xlink="http://www.w3.org/1999/xlink">
    <!-- Generator: Sketch 3.7 (28169) - http://www.bohemiancoding.com/sketch -->
    <title>Group</title>
    <desc>Created with Sketch.</desc>
    <defs></defs>
    <g id="13-april-2016" stroke="none" stroke-width="1" fill="none" fill-rule="evenodd">
        <g id="homepage-copy-7" transform="translate(-280.000000, -23.000000)" fill="#FFFFFF">
            <g id="Group" transform="translate(280.000000, 23.000000)">
                <path d="M10,11.3871914 L18.3255519,19.7127433 C18.7116917,20.0988831 19.3272776,20.0934023 19.7103399,19.7103399 C20.0960729,19.3246069 20.0944783,18.7072869 19.7127433,18.3255519 L11.3871914,10 L19.7127433,1.67444807 C20.0988831,1.28830829 20.0934023,0.672722413 19.7103399,0.289660081 C19.3246069,-0.0960728914 18.7072869,-0.0944783039 18.3255519,0.28725665 L10,8.61280858 L1.67444807,0.28725665 C1.28830829,-0.098883123 0.672722413,-0.0934022512 0.289660081,0.289660081 C-0.0960728914,0.675393054 -0.0944783039,1.29271311 0.28725665,1.67444807 L8.61280858,10 L0.28725665,18.3255519 C-0.098883123,18.7116917 -0.0934022512,19.3272776 0.289660081,19.7103399 C0.675393054,20.0960729 1.29271311,20.0944783 1.67444807,19.7127433 L10,11.3871914 Z" id="Combined-Shape"></path>
            </g>
        </g>
    </g>
</svg>