<?xml version="1.0" encoding="UTF-8" standalone="no"?>
<svg width="30px" height="30px" viewBox="0 0 30 30" version="1.1" xmlns="http://www.w3.org/2000/svg" xmlns:xlink="http://www.w3.org/1999/xlink">
    <!-- Generator: Sketch 3.7 (28169) - http://www.bohemiancoding.com/sketch -->
    <title>Group</title>
    <desc>Created with Sketch.</desc>
    <defs></defs>
    <g id="icons-exporting" stroke="none" stroke-width="1" fill="none" fill-rule="evenodd">
        <g id="Why-DCOS-Build-Amazing-Applications" transform="translate(-180.000000, -48.000000)" fill="#BF97F0">
            <g id="Group" transform="translate(180.000000, 48.000000)">
                <path d="M0,2.00585866 C0,0.898053512 0.897060126,0 2.00585866,0 L11.9941413,0 C13.1019465,0 14,0.897060126 14,2.00585866 L14,11.9941413 C14,13.1019465 13.1029399,14 11.9941413,14 L2.00585866,14 C0.898053512,14 0,13.1029399 0,11.9941413 L0,2.00585866 Z M2,2.99539757 C2,2.44565467 2.4556644,2 2.99539757,2 L11.0046024,2 C11.5543453,2 12,2.4556644 12,2.99539757 L12,11.0046024 C12,11.5543453 11.5443356,12 11.0046024,12 L2.99539757,12 C2.44565467,12 2,11.5443356 2,11.0046024 L2,2.99539757 Z M16,2.00585866 C16,0.898053512 16.8970601,0 18.0058587,0 L27.9941413,0 C29.1019465,0 30,0.897060126 30,2.00585866 L30,11.9941413 C30,13.1019465 29.1029399,14 27.9941413,14 L18.0058587,14 C16.8980535,14 16,13.1029399 16,11.9941413 L16,2.00585866 Z M0,18.0058587 C0,16.8980535 0.897060126,16 2.00585866,16 L11.9941413,16 C13.1019465,16 14,16.8970601 14,18.0058587 L14,27.9941413 C14,29.1019465 13.1029399,30 11.9941413,30 L2.00585866,30 C0.898053512,30 0,29.1029399 0,27.9941413 L0,18.0058587 Z M16,18.0058587 C16,16.8980535 16.8970601,16 18.0058587,16 L27.9941413,16 C29.1019465,16 30,16.8970601 30,18.0058587 L30,27.9941413 C30,29.1019465 29.1029399,30 27.9941413,30 L18.0058587,30 C16.8980535,30 16,29.1029399 16,27.9941413 L16,18.0058587 Z M18,18.9953976 C18,18.4456547 18.4556644,18 18.9953976,18 L27.0046024,18 C27.5543453,18 28,18.4556644 28,18.9953976 L28,27.0046024 C28,27.5543453 27.5443356,28 27.0046024,28 L18.9953976,28 C18.4456547,28 18,27.5443356 18,27.0046024 L18,18.9953976 Z" id="Combined-Shape"></path>
            </g>
        </g>
    </g>
</svg>