<svg xmlns="http://www.w3.org/2000/svg" width="30" height="30" viewBox="0 0 30 30">
  <g fill="none" fill-rule="evenodd">
    <path fill="#9351E5" d="M0,1.99161703 C0,0.891677316 0.89784041,0 1.99161703,0 L28.008383,0 C29.1083227,0 30,0.89784041 30,1.99161703 L30,28.008383 C30,29.1083227 29.1021596,30 28.008383,30 L1.99161703,30 C0.891677316,30 0,29.1021596 0,28.008383 L0,1.99161703 Z M2,3.00329963 L2,26.9967004 C2,27.5487213 2.44919255,28 3.00329963,28 L26.9967004,28 C27.5487213,28 28,27.5508075 28,26.9967004 L28,3.00329963 C28,2.45127869 27.5508075,2 26.9967004,2 L3.00329963,2 C2.45127869,2 2,2.44919255 2,3.00329963 Z" opacity=".6"/>
    <polyline stroke="#BF97F0" stroke-width="2" points="1 16 7 16 10 7 13 22 16 12 19 19 21 13 23 16 28 16" stroke-linecap="round" stroke-linejoin="round"/>
  </g>
</svg>
