<?xml version="1.0" encoding="UTF-8" standalone="no"?>
<svg width="42px" height="42px" viewBox="0 0 42 42" version="1.1" xmlns="http://www.w3.org/2000/svg" xmlns:xlink="http://www.w3.org/1999/xlink">
    <!-- Generator: Sketch 3.7 (28169) - http://www.bohemiancoding.com/sketch -->
    <title>Group 3</title>
    <desc>Created with Sketch.</desc>
    <defs></defs>
    <g id="icons" stroke="none" stroke-width="1" fill="none" fill-rule="evenodd" opacity="0.6">
        <g id="Install-DCOS" transform="translate(-732.000000, -42.000000)" fill="#9351E5">
            <g id="Group-3" transform="translate(732.000000, 42.000000)">
                <path d="M0,1.99079514 C0,0.891309342 0.896660339,0 1.99749218,0 L40.0025078,0 C41.1056923,0 42,0.898212381 42,1.99079514 L42,18.0092049 C42,19.1086907 41.1033397,20 40.0025078,20 L1.99749218,20 C0.894307712,20 0,19.1017876 0,18.0092049 L0,1.99079514 Z M2,3.00087166 C2,2.4481055 2.45323029,2 2.9968754,2 L39.0031246,2 C39.5536837,2 40,2.44463086 40,3.00087166 L40,16.9991283 C40,17.5518945 39.5467697,18 39.0031246,18 L2.9968754,18 C2.44631632,18 2,17.5553691 2,16.9991283 L2,3.00087166 Z M0,23.9907951 C0,22.8913093 0.896660339,22 1.99749218,22 L40.0025078,22 C41.1056923,22 42,22.8982124 42,23.9907951 L42,40.0092049 C42,41.1086907 41.1033397,42 40.0025078,42 L1.99749218,42 C0.894307712,42 0,41.1017876 0,40.0092049 L0,23.9907951 Z M2,24.9529572 C2,24.4266535 2.42675781,24 2.9583364,24 L39.0416636,24 C39.5709382,24 40,24.4279613 40,24.9529572 L40,39.0470428 C40,39.5733465 39.5732422,40 39.0416636,40 L2.9583364,40 C2.42906182,40 2,39.5720387 2,39.0470428 L2,24.9529572 Z" id="Combined-Shape"></path>
                <path d="M4,10.0029293 C4,9.44902676 4.43788135,9 5.00292933,9 L9.99707067,9 C10.5509732,9 11,9.43788135 11,10.0029293 L11,14.9970707 C11,15.5509732 10.5621186,16 9.99707067,16 L5.00292933,16 C4.44902676,16 4,15.5621186 4,14.9970707 L4,10.0029293 Z M5,10 L10,10 L10,15 L5,15 L5,10 Z" id="Combined-Shape"></path>
                <path d="M13,10.0029293 C13,9.44902676 13.4378814,9 14.0029293,9 L18.9970707,9 C19.5509732,9 20,9.43788135 20,10.0029293 L20,14.9970707 C20,15.5509732 19.5621186,16 18.9970707,16 L14.0029293,16 C13.4490268,16 13,15.5621186 13,14.9970707 L13,10.0029293 Z M14,10 L19,10 L19,15 L14,15 L14,10 Z" id="Combined-Shape"></path>
                <path d="M22,10.0029293 C22,9.44902676 22.4378814,9 23.0029293,9 L27.9970707,9 C28.5509732,9 29,9.43788135 29,10.0029293 L29,14.9970707 C29,15.5509732 28.5621186,16 27.9970707,16 L23.0029293,16 C22.4490268,16 22,15.5621186 22,14.9970707 L22,10.0029293 Z M23,10 L28,10 L28,15 L23,15 L23,10 Z" id="Combined-Shape"></path>
                <path d="M31,10.0029293 C31,9.44902676 31.4378814,9 32.0029293,9 L36.9970707,9 C37.5509732,9 38,9.43788135 38,10.0029293 L38,14.9970707 C38,15.5509732 37.5621186,16 36.9970707,16 L32.0029293,16 C31.4490268,16 31,15.5621186 31,14.9970707 L31,10.0029293 Z M32,10 L37,10 L37,15 L32,15 L32,10 Z" id="Combined-Shape"></path>
                <path d="M4,32.0029293 C4,31.4490268 4.43788135,31 5.00292933,31 L9.99707067,31 C10.5509732,31 11,31.4378814 11,32.0029293 L11,36.9970707 C11,37.5509732 10.5621186,38 9.99707067,38 L5.00292933,38 C4.44902676,38 4,37.5621186 4,36.9970707 L4,32.0029293 Z M5,32 L10,32 L10,37 L5,37 L5,32 Z" id="Combined-Shape"></path>
                <path d="M13,32.0029293 C13,31.4490268 13.4378814,31 14.0029293,31 L18.9970707,31 C19.5509732,31 20,31.4378814 20,32.0029293 L20,36.9970707 C20,37.5509732 19.5621186,38 18.9970707,38 L14.0029293,38 C13.4490268,38 13,37.5621186 13,36.9970707 L13,32.0029293 Z M14,32 L19,32 L19,37 L14,37 L14,32 Z" id="Combined-Shape"></path>
                <path d="M22,32.0029293 C22,31.4490268 22.4378814,31 23.0029293,31 L27.9970707,31 C28.5509732,31 29,31.4378814 29,32.0029293 L29,36.9970707 C29,37.5509732 28.5621186,38 27.9970707,38 L23.0029293,38 C22.4490268,38 22,37.5621186 22,36.9970707 L22,32.0029293 Z M23,32 L28,32 L28,37 L23,37 L23,32 Z" id="Combined-Shape"></path>
                <path d="M31,32.0029293 C31,31.4490268 31.4378814,31 32.0029293,31 L36.9970707,31 C37.5509732,31 38,31.4378814 38,32.0029293 L38,36.9970707 C38,37.5509732 37.5621186,38 36.9970707,38 L32.0029293,38 C31.4490268,38 31,37.5621186 31,36.9970707 L31,32.0029293 Z M32,32 L37,32 L37,37 L32,37 L32,32 Z" id="Combined-Shape"></path>
                <circle id="Oval-16" cx="5.5" cy="5.5" r="1.5"></circle>
                <circle id="Oval-16" cx="10.5" cy="5.5" r="1.5"></circle>
                <circle id="Oval-16" cx="5.5" cy="27.5" r="1.5"></circle>
                <circle id="Oval-16" cx="10.5" cy="27.5" r="1.5"></circle>
            </g>
        </g>
    </g>
</svg>