<svg xmlns="http://www.w3.org/2000/svg" width="45" height="45" viewBox="0 0 45 45" xmlns:xlink="http://www.w3.org/1999/xlink">
  <defs>
    <path id="a" d="M35.2930417,33.1717214 L38.7222907,29.7424724 C39.4997239,28.9650391 39.2884494,28.0302035 38.2450145,27.65984 L23.7254567,22.5061756 C22.6820111,22.1358083 22.1363895,22.6814444 22.506753,23.7248794 L27.6604174,38.2444371 C28.0307847,39.2878828 28.9632071,39.5015559 29.7430497,38.7217133 L33.1717214,35.2930417 L40.268612,42.3899323 C40.8542806,42.975601 41.8046457,42.9762186 42.3904322,42.3904322 C42.9803026,41.8005617 42.9759948,40.8546745 42.3899323,40.268612 L35.2930417,33.1717214 Z"/>
    <mask id="b" width="24.44" height="24.439" x="-2" y="-2">
      <rect width="24.44" height="24.439" x="20.391" y="20.39" fill="white"/>
      <use fill="black" xlink:href="#a"/>
    </mask>
  </defs>
  <g fill="none" fill-rule="evenodd">
    <path fill="#BF97F0" d="M38,25 L38,3.00041944 C38,2.45517302 37.552097,2 36.9995806,2 L3.00041944,2 C2.45517302,2 2,2.44790304 2,3.00041944 L2,36.9995806 C2,37.544827 2.44790304,38 3.00041944,38 L25,38 L25,40 L40,40 L40,25 L38,25 Z M0,1.99729162 C0,0.894217919 0.891539827,0 1.99729162,0 L38.0027084,0 C39.1057821,0 40,0.891539827 40,1.99729162 L40,40 L1.99729162,40 C0.894217919,40 0,39.1084602 0,38.0027084 L0,1.99729162 Z"/>
    <path fill="#BF97F0" d="M15.5,7 C16.3284271,7 17,6.32842712 17,5.5 C17,4.67157288 16.3284271,4 15.5,4 C14.6715729,4 14,4.67157288 14,5.5 C14,6.32842712 14.6715729,7 15.5,7 Z"/>
    <polygon fill="#BF97F0" points="0 9 40 9 40 11 0 11"/>
    <path fill="#BF97F0" d="M10.5 7C11.3284271 7 12 6.32842712 12 5.5 12 4.67157288 11.3284271 4 10.5 4 9.67157288 4 9 4.67157288 9 5.5 9 6.32842712 9.67157288 7 10.5 7zM5.5 7C6.32842712 7 7 6.32842712 7 5.5 7 4.67157288 6.32842712 4 5.5 4 4.67157288 4 4 4.67157288 4 5.5 4 6.32842712 4.67157288 7 5.5 7z"/>
    <use fill="#BF97F0" xlink:href="#a"/>
    <use stroke="#FFFFFF" stroke-width="4" mask="url(#b)" xlink:href="#a"/>
  </g>
</svg>
