<svg xmlns="http://www.w3.org/2000/svg" width="47" height="47" viewBox="0 0 47 47">
  <g fill="#BF97F0" fill-rule="evenodd">
    <path d="M0,1.99749218 C0,0.894307712 0.896660339,0 1.99749218,0 L36.0025078,0 C37.1056923,0 38,0.896660339 38,1.99749218 L38,36.0025078 C38,37.1056923 37.1033397,38 36.0025078,38 L1.99749218,38 C0.894307712,38 0,37.1033397 0,36.0025078 L0,1.99749218 Z M2,2.9968754 C2,2.44631632 2.45323029,2 2.9968754,2 L35.0031246,2 C35.5536837,2 36,2.45323029 36,2.9968754 L36,35.0031246 C36,35.5536837 35.5467697,36 35.0031246,36 L2.9968754,36 C2.44631632,36 2,35.5467697 2,35.0031246 L2,2.9968754 Z M5.5,7 C6.32842712,7 7,6.32842712 7,5.5 C7,4.67157288 6.32842712,4 5.5,4 C4.67157288,4 4,4.67157288 4,5.5 C4,6.32842712 4.67157288,7 5.5,7 Z M10.5,7 C11.3284271,7 12,6.32842712 12,5.5 C12,4.67157288 11.3284271,4 10.5,4 C9.67157288,4 9,4.67157288 9,5.5 C9,6.32842712 9.67157288,7 10.5,7 Z M15.5,7 C16.3284271,7 17,6.32842712 17,5.5 C17,4.67157288 16.3284271,4 15.5,4 C14.6715729,4 14,4.67157288 14,5.5 C14,6.32842712 14.6715729,7 15.5,7 Z"/>
    <polygon points="0 9 38 9 38 11 0 11"/>
    <path stroke="#FFFFFF" stroke-width="2" d="M41.8158472,28.4862989 C41.7637644,28.2543569 41.5964053,28.0647756 41.3721023,27.9849154 L21.9278836,21.0405454 C21.6751087,20.9502686 21.3931676,21.0134623 21.2035864,21.2030436 C21.0140053,21.3926249 20.9501171,21.6752608 21.0403939,21.9273414 L27.9847577,41.3715774 C28.0646179,41.5958806 28.254199,41.7632399 28.4868352,41.8153226 C28.7173881,41.866711 28.9618297,41.7972673 29.1298833,41.6285191 L33.4999715,37.2584271 L42.0366779,45.7951411 C42.172093,45.9319452 42.3498688,46 42.5276445,46 C42.7054202,46 42.8831959,45.9319452 43.018611,45.79653 L45.7963565,43.018782 C46.0678812,42.7472571 46.0678812,42.3083729 45.7963565,42.036848 L37.2596501,33.500134 L41.6297382,29.130042 C41.7977918,28.9619882 41.8679299,28.7189353 41.8158472,28.4862989 Z"/>
  </g>
</svg>
