<?xml version="1.0" encoding="UTF-8" standalone="no"?>
<svg width="30px" height="30px" viewBox="0 0 30 30" version="1.1" xmlns="http://www.w3.org/2000/svg" xmlns:xlink="http://www.w3.org/1999/xlink">
    <!-- Generator: Sketch 3.7 (28169) - http://www.bohemiancoding.com/sketch -->
    <title>Group 2</title>
    <desc>Created with Sketch.</desc>
    <defs></defs>
    <g id="icons-exporting" stroke="none" stroke-width="1" fill="none" fill-rule="evenodd">
        <g id="Why-DCOS-Hyperscale-Operations" transform="translate(-180.000000, -48.000000)" fill="#BF97F0">
            <g id="Group-2" transform="translate(180.000000, 48.000000)">
                <path d="M26.5857864,2 L3.00329963,2 C2.45127869,2 2,2.44919255 2,3.00329963 L2,26.5857864 L26.5857864,2 Z M28,3.41421356 L28,26.9967004 C28,27.5508075 27.5487213,28 26.9967004,28 L3.41421356,28 L28,3.41421356 Z M0,1.99161703 C0,0.891677316 0.89784041,0 1.99161703,0 L28.008383,0 C29.1083227,0 30,0.89784041 30,1.99161703 L30,28.008383 C30,29.1083227 29.1021596,30 28.008383,30 L1.99161703,30 C0.891677316,30 0,29.1021596 0,28.008383 L0,1.99161703 Z" id="Combined-Shape"></path>
            </g>
        </g>
    </g>
</svg>