<?xml version="1.0" encoding="UTF-8" standalone="no"?>
<svg width="42px" height="41px" viewBox="0 0 42 41" version="1.1" xmlns="http://www.w3.org/2000/svg" xmlns:xlink="http://www.w3.org/1999/xlink">
    <!-- Generator: Sketch 3.7 (28169) - http://www.bohemiancoding.com/sketch -->
    <title>Group 11</title>
    <desc>Created with Sketch.</desc>
    <defs></defs>
    <g id="13-april-2016" stroke="none" stroke-width="1" fill="none" fill-rule="evenodd">
        <g id="homepage-copy-5" transform="translate(-490.000000, -760.000000)" fill="#A9A6AF">
            <g id="Group-11" transform="translate(490.000000, 760.000000)">
                <path d="M17.6231649,28.2544858 L12.6975275,40.2949327 C5.22867733,37.0768478 0,29.6490354 0,21 C0,9.40202025 9.40202025,0 21,0 C32.5979797,0 42,9.40202025 42,21 C42,29.6490354 36.7713227,37.0768478 29.3024725,40.2949327 L24.3768351,28.2544858 C27.1074933,26.9812459 29,24.2116323 29,21 C29,16.581722 25.418278,13 21,13 C16.581722,13 13,16.581722 13,21 C13,24.2116323 14.8925067,26.9812459 17.6231649,28.2544858 Z" id="Combined-Shape"></path>
            </g>
        </g>
    </g>
</svg>
