<?xml version="1.0" encoding="UTF-8" standalone="no"?>
<svg width="42px" height="42px" viewBox="0 0 42 42" version="1.1" xmlns="http://www.w3.org/2000/svg" xmlns:xlink="http://www.w3.org/1999/xlink">
    <!-- Generator: Sketch 3.7 (28169) - http://www.bohemiancoding.com/sketch -->
    <title>Group 2</title>
    <desc>Created with Sketch.</desc>
    <defs></defs>
    <g id="icons-exporting" stroke="none" stroke-width="1" fill="none" fill-rule="evenodd">
        <g id="Homepage-3-paragraphs" transform="translate(-433.000000, -42.000000)" fill="#BF97F0">
            <g id="Group-2" transform="translate(433.000000, 42.000000)">
                <path d="M24.6448049,18.0623018 L26.2928152,19.7146802 C26.677817,20.1007025 27,19.9783535 27,19.428942 L27,15.9947974 C27,15.4438474 26.5557914,15 26.0078324,15 L22.582766,15 C22.0332724,15 21.9072158,15.3174566 22.2977832,15.7090592 L23.938634,17.3542592 L17.3551951,23.9376982 L15.7071848,22.2853198 C15.322183,21.8992975 15,22.0216465 15,22.571058 L15,26.0052026 C15,26.5561526 15.4442086,27 15.9921676,27 L19.417234,27 C19.9667276,27 20.0927842,26.6825434 19.7022168,26.2909408 L18.061366,24.6457408 L24.6448049,18.0623018 Z M8,9.99700466 C8,8.89408944 8.89497885,8 9.99700466,8 L32.0029953,8 C33.1059106,8 34,8.89497885 34,9.99700466 L34,32.0029953 C34,33.1059106 33.1050211,34 32.0029953,34 L9.99700466,34 C8.89408944,34 8,33.1050211 8,32.0029953 L8,9.99700466 Z M9,10.0006946 C9,9.44802625 9.44746922,9 10.0006946,9 L31.9993054,9 C32.5519738,9 33,9.44746922 33,10.0006946 L33,31.9993054 C33,32.5519738 32.5525308,33 31.9993054,33 L10.0006946,33 C9.44802625,33 9,32.5525308 9,31.9993054 L9,10.0006946 Z M2.00591905,42 C0.898080551,42 5.42858272e-17,41.1134452 1.22827117e-16,39.9940809 L3.6721467e-16,36.0029293 C4.01131421e-16,35.4490268 0.444745292,35 1.00198364,35 C1.55536393,35 2.00396729,35.4437166 2.00396729,35.9998075 L2.00396729,40 L6.00098581,40 C6.55272611,40 7,40.4438648 7,41 C7,41.5522847 6.56211865,42 5.99707067,42 L2.00591905,42 Z M42,39.9940809 C42,41.1019194 41.1134452,42 39.9940809,42 L36.0029293,42 C35.4490268,42 35,41.5552547 35,40.9980164 C35,40.4446361 35.4437166,39.9960327 35.9998075,39.9960327 L40,39.9960327 L40,35.9990142 C40,35.4472739 40.4438648,35 41,35 C41.5522847,35 42,35.4378814 42,36.0029293 L42,39.9940809 Z M39.9940809,7.56078575e-17 C41.1019194,2.79114489e-16 42,0.886554837 42,2.00591905 L42,5.99707067 C42,6.55097324 41.5552547,7 40.9980164,7 C40.4446361,7 39.9960327,6.55628335 39.9960327,6.00019251 L39.9960327,2 L35.9990142,2 C35.4472739,2 35,1.55613518 35,1 C35,0.44771525 35.4378814,-7.6135243e-16 36.0029293,-6.575548e-16 L39.9940809,7.56078575e-17 Z M0,2.00591905 C0,0.898080551 0.886554837,0 2.00591905,0 L5.99707067,0 C6.55097324,0 7,0.444745292 7,1.00198364 C7,1.55536393 6.55628335,2.00396729 6.00019251,2.00396729 L2,2.00396729 L2,6.00098581 C2,6.55272611 1.55613518,7 1,7 C0.44771525,7 0,6.56211865 0,5.99707067 L0,2.00591905 Z M0,23.9970301 C0,23.4463856 0.443864822,23 1,23 C1.55228475,23 2,23.4530363 2,23.9970301 L2,30.0029699 C2,30.5536144 1.55613518,31 1,31 C0.44771525,31 0,30.5469637 0,30.0029699 L0,23.9970301 Z M0,11.9970301 C0,11.4463856 0.443864822,11 1,11 C1.55228475,11 2,11.4530363 2,11.9970301 L2,18.0029699 C2,18.5536144 1.55613518,19 1,19 C0.44771525,19 0,18.5469637 0,18.0029699 L0,11.9970301 Z M40,23.9970301 C40,23.4463856 40.4438648,23 41,23 C41.5522847,23 42,23.4530363 42,23.9970301 L42,30.0029699 C42,30.5536144 41.5561352,31 41,31 C40.4477153,31 40,30.5469637 40,30.0029699 L40,23.9970301 Z M40,11.9970301 C40,11.4463856 40.4438648,11 41,11 C41.5522847,11 42,11.4530363 42,11.9970301 L42,18.0029699 C42,18.5536144 41.5561352,19 41,19 C40.4477153,19 40,18.5469637 40,18.0029699 L40,11.9970301 Z M23,41 C23,40.4477153 23.4530363,40 23.9970301,40 L30.0029699,40 C30.5536144,40 31,40.4438648 31,41 C31,41.5522847 30.5469637,42 30.0029699,42 L23.9970301,42 C23.4463856,42 23,41.5561352 23,41 Z M23,1 C23,0.44771525 23.4530363,0 23.9970301,0 L30.0029699,0 C30.5536144,0 31,0.443864822 31,1 C31,1.55228475 30.5469637,2 30.0029699,2 L23.9970301,2 C23.4463856,2 23,1.55613518 23,1 Z M11,41 C11,40.4477153 11.4530363,40 11.9970301,40 L18.0029699,40 C18.5536144,40 19,40.4438648 19,41 C19,41.5522847 18.5469637,42 18.0029699,42 L11.9970301,42 C11.4463856,42 11,41.5561352 11,41 Z M11,1 C11,0.44771525 11.4530363,0 11.9970301,0 L18.0029699,0 C18.5536144,0 19,0.443864822 19,1 C19,1.55228475 18.5469637,2 18.0029699,2 L11.9970301,2 C11.4463856,2 11,1.55613518 11,1 Z" id="Combined-Shape"></path>
            </g>
        </g>
    </g>
</svg>