<?xml version="1.0" encoding="UTF-8" standalone="no"?>
<svg width="42px" height="42px" viewBox="0 0 42 42" version="1.1" xmlns="http://www.w3.org/2000/svg" xmlns:xlink="http://www.w3.org/1999/xlink">
    <!-- Generator: Sketch 3.7 (28169) - http://www.bohemiancoding.com/sketch -->
    <title>Group</title>
    <desc>Created with Sketch.</desc>
    <defs></defs>
    <g id="icons-exporting" stroke="none" stroke-width="1" fill="none" fill-rule="evenodd">
        <g id="Homepage-header-Copy" transform="translate(-535.000000, -38.000000)" fill="#A9A6AF">
            <g id="Group" transform="translate(535.000000, 38.000000)">
                <path d="M42,13.5314766 L42,1.99079514 C42,0.898212381 41.1056923,0 40.0025078,0 L1.99749218,0 C0.896660339,0 0,0.891309342 0,1.99079514 L0,18.0092049 C0,19.1017876 0.894307712,20 1.99749218,20 L13.2035409,20 C13.1280128,19.2755518 13.0785715,18.6049452 13.047355,18 L2.9968754,18 C2.44631632,18 2,17.5553691 2,16.9991283 L2,3.00087166 C2,2.4481055 2.45323029,2 2.9968754,2 L39.0031246,2 C39.5536837,2 40,2.44463086 40,3.00087166 L40,13.5910304 C40.6342471,13.5947362 41.3005321,13.576054 42,13.5314766 Z M13.4642536,22 L1.99749218,22 C0.896660339,22 0,22.8913093 0,23.9907951 L0,40.0092049 C0,41.1017876 0.894307712,42 1.99749218,42 L24.4506364,42 C23.6500765,41.3574831 22.9049952,40.6889106 22.2115889,40.0000006 L2.9583364,40 C2.42906182,40 2,39.5720387 2,39.0470428 L2,24.9529572 C2,24.4266535 2.42675781,24 2.9583364,24 L13.8315459,24 C13.6858283,23.3098742 13.5647026,22.6412455 13.4642536,22 Z M42,30.5938436 L42,40.0092049 C42,41.1086907 41.1033397,42 40.0025078,42 L33.5438643,42 C34.3373159,41.3597516 35.0763903,40.6911509 35.7647654,40 L39.0416636,40 C39.5732422,40 40,39.5733465 40,39.0470428 L40,34.5417947 C40.7804408,33.2399415 41.4411171,31.9145109 42,30.5938436 Z M5.5,7 C6.32842712,7 7,6.32842712 7,5.5 C7,4.67157288 6.32842712,4 5.5,4 C4.67157288,4 4,4.67157288 4,5.5 C4,6.32842712 4.67157288,7 5.5,7 Z M10.5,7 C11.3284271,7 12,6.32842712 12,5.5 C12,4.67157288 11.3284271,4 10.5,4 C9.67157288,4 9,4.67157288 9,5.5 C9,6.32842712 9.67157288,7 10.5,7 Z M5.5,29 C6.32842712,29 7,28.3284271 7,27.5 C7,26.6715729 6.32842712,26 5.5,26 C4.67157288,26 4,26.6715729 4,27.5 C4,28.3284271 4.67157288,29 5.5,29 Z M10.5,29 C11.3284271,29 12,28.3284271 12,27.5 C12,26.6715729 11.3284271,26 10.5,26 C9.67157288,26 9,26.6715729 9,27.5 C9,28.3284271 9.67157288,29 10.5,29 Z M16.0424552,15.7826087 C25.8644431,17.1250531 28.9924776,12 28.9924776,12 C28.9924776,12 32.2284022,17.2093984 41.9425,15.7826087 C41.9425,15.7826087 43.6094676,33.4049231 28.9924776,41 C14.5683468,33.4049231 16.0424552,15.7826087 16.0424552,15.7826087 Z M27.3786797,28.7426407 L33.7426407,22.3786797 L34.4497475,23.0857864 L28.0857864,29.4497475 L27.3786797,28.7426407 Z M24.5502525,25.9142136 L25.2573593,25.2071068 L28.0857864,28.0355339 L27.3786797,28.7426407 L24.5502525,25.9142136 Z" id="Combined-Shape"></path>
            </g>
        </g>
    </g>
</svg>