<?xml version="1.0" encoding="UTF-8" standalone="no"?>
<svg width="14px" height="14px" viewBox="0 0 14 14" version="1.1" xmlns="http://www.w3.org/2000/svg" xmlns:xlink="http://www.w3.org/1999/xlink">
    <!-- Generator: Sketch 3.7 (28169) - http://www.bohemiancoding.com/sketch -->
    <title>Combined Shape</title>
    <desc>Created with Sketch.</desc>
    <defs></defs>
    <g id="icons" stroke="none" stroke-width="1" fill="none" fill-rule="evenodd">
        <g id="General-icons-1" transform="translate(-520.000000, -911.000000)" fill="#A9A6AF">
            <path d="M530.031738,919.617524 L530.207107,919.792893 L533.035534,922.62132 L533.742641,923.328427 L532.328427,924.742641 L531.62132,924.035534 L528.792893,921.207107 L528.617524,921.031738 C527.731483,921.642436 526.657498,922 525.5,922 C522.462434,922 520,919.537566 520,916.5 C520,913.462434 522.462434,911 525.5,911 C528.537566,911 531,913.462434 531,916.5 C531,917.657498 530.642436,918.731483 530.031738,919.617524 Z M525.5,920 C527.432997,920 529,918.432997 529,916.5 C529,914.567003 527.432997,913 525.5,913 C523.567003,913 522,914.567003 522,916.5 C522,918.432997 523.567003,920 525.5,920 Z" id="Combined-Shape"></path>
        </g>
    </g>
</svg>