<?xml version="1.0" encoding="UTF-8" standalone="no"?>
<svg width="30px" height="30px" viewBox="0 0 30 30" version="1.1" xmlns="http://www.w3.org/2000/svg" xmlns:xlink="http://www.w3.org/1999/xlink">
    <!-- Generator: Sketch 3.7 (28169) - http://www.bohemiancoding.com/sketch -->
    <title>Group 3</title>
    <desc>Created with Sketch.</desc>
    <defs></defs>
    <g id="icons-exporting" stroke="none" stroke-width="1" fill="none" fill-rule="evenodd">
        <g id="Why-DCOS-Hyperscale-Operations" transform="translate(-440.000000, -48.000000)" fill="#BF97F0">
            <g id="Group-3" transform="translate(440.000000, 48.000000)">
                <path d="M9,6 L1.99161703,6 C0.89784041,6 0,6.89764516 0,8.00494659 L0,27.9950534 C0,29.1029738 0.891677316,30 1.99161703,30 L28.008383,30 C29.1021596,30 30,29.1023548 30,27.9950534 L30,8.00494659 C30,6.89702623 29.1083227,6 28.008383,6 L21,6 L21,1.99810135 C21,0.886706352 20.1007504,0 18.9914698,0 L11.0085302,0 C9.90195036,0 9,0.894580447 9,1.99810135 L9,6 Z M17,16 L17,12.0068455 C17,11.4499488 16.5480902,11 15.9906311,11 L14.0093689,11 C13.4433532,11 13,11.4507801 13,12.0068455 L13,16 L9.00684547,16 C8.44994876,16 8,16.4519098 8,17.0093689 L8,18.9906311 C8,19.5566468 8.45078007,20 9.00684547,20 L13,20 L13,23.9931545 C13,24.5500512 13.4519098,25 14.0093689,25 L15.9906311,25 C16.5566468,25 17,24.5492199 17,23.9931545 L17,20 L20.9931545,20 C21.5500512,20 22,19.5480902 22,18.9906311 L22,17.0093689 C22,16.4433532 21.5492199,16 20.9931545,16 L17,16 Z M2,8.99180311 C2,8.44404538 2.45127869,8 3.00329963,8 L26.9967004,8 C27.5508075,8 28,8.45530558 28,8.99180311 L28,27.0081969 C28,27.5559546 27.5487213,28 26.9967004,28 L3.00329963,28 C2.44919255,28 2,27.5446944 2,27.0081969 L2,8.99180311 Z M11,3.0093689 C11,2.45190985 11.4530363,2 11.9970301,2 L18.0029699,2 C18.5536144,2 19,2.44335318 19,3.0093689 L19,6 L11,6 L11,3.0093689 Z" id="Combined-Shape"></path>
            </g>
        </g>
    </g>
</svg>