<?xml version="1.0" encoding="UTF-8" standalone="no"?>
<svg width="30px" height="30px" viewBox="0 0 30 30" version="1.1" xmlns="http://www.w3.org/2000/svg" xmlns:xlink="http://www.w3.org/1999/xlink">
    <!-- Generator: Sketch 3.7 (28169) - http://www.bohemiancoding.com/sketch -->
    <title>Group</title>
    <desc>Created with Sketch.</desc>
    <defs></defs>
    <g id="icons-exporting" stroke="none" stroke-width="1" fill="none" fill-rule="evenodd">
        <g id="Why-DCOS-Continuous-Business-Innovations-" transform="translate(-180.000000, -48.000000)" fill="#BF97F0">
            <g id="Group" transform="translate(180.000000, 48.000000)">
                <path d="M0,1.99161703 C0,0.891677316 0.89784041,0 1.99161703,0 L28.008383,0 C29.1083227,0 30,0.89784041 30,1.99161703 L30,28.008383 C30,29.1083227 29.1021596,30 28.008383,30 L1.99161703,30 C0.891677316,30 0,29.1021596 0,28.008383 L0,1.99161703 Z M2,3.00329963 C2,2.44919255 2.45127869,2 3.00329963,2 L26.9967004,2 C27.5508075,2 28,2.45127869 28,3.00329963 L28,26.9967004 C28,27.5508075 27.5487213,28 26.9967004,28 L3.00329963,28 C2.44919255,28 2,27.5487213 2,26.9967004 L2,3.00329963 Z M4,5.99961498 C4,4.89525812 4.88743329,4 5.99961498,4 L12.000385,4 C13.1047419,4 14,4.88743329 14,5.99961498 L14,12.000385 C14,13.1047419 13.1125667,14 12.000385,14 L5.99961498,14 C4.89525812,14 4,13.1125667 4,12.000385 L4,5.99961498 Z M5,5.99703014 C5,5.4463856 5.45303631,5 5.99703014,5 L12.0029699,5 C12.5536144,5 13,5.45303631 13,5.99703014 L13,12.0029699 C13,12.5536144 12.5469637,13 12.0029699,13 L5.99703014,13 C5.4463856,13 5,12.5469637 5,12.0029699 L5,5.99703014 Z M16,5.99961498 C16,4.89525812 16.8874333,4 17.999615,4 L24.000385,4 C25.1047419,4 26,4.88743329 26,5.99961498 L26,12.000385 C26,13.1047419 25.1125667,14 24.000385,14 L17.999615,14 C16.8952581,14 16,13.1125667 16,12.000385 L16,5.99961498 Z M16,17.999615 C16,16.8952581 16.8874333,16 17.999615,16 L24.000385,16 C25.1047419,16 26,16.8874333 26,17.999615 L26,24.000385 C26,25.1047419 25.1125667,26 24.000385,26 L17.999615,26 C16.8952581,26 16,25.1125667 16,24.000385 L16,17.999615 Z M17,17.9970301 C17,17.4463856 17.4530363,17 17.9970301,17 L24.0029699,17 C24.5536144,17 25,17.4530363 25,17.9970301 L25,24.0029699 C25,24.5536144 24.5469637,25 24.0029699,25 L17.9970301,25 C17.4463856,25 17,24.5469637 17,24.0029699 L17,17.9970301 Z M4,17.999615 C4,16.8952581 4.88743329,16 5.99961498,16 L12.000385,16 C13.1047419,16 14,16.8874333 14,17.999615 L14,24.000385 C14,25.1047419 13.1125667,26 12.000385,26 L5.99961498,26 C4.89525812,26 4,25.1125667 4,24.000385 L4,17.999615 Z" id="Combined-Shape"></path>
            </g>
        </g>
    </g>
</svg>