<?xml version="1.0" encoding="UTF-8" standalone="no"?>
<svg width="42px" height="42px" viewBox="0 0 42 42" version="1.1" xmlns="http://www.w3.org/2000/svg" xmlns:xlink="http://www.w3.org/1999/xlink">
    <!-- Generator: Sketch 3.7 (28169) - http://www.bohemiancoding.com/sketch -->
    <title>Group 2</title>
    <desc>Created with Sketch.</desc>
    <defs></defs>
    <g id="icons-exporting" stroke="none" stroke-width="1" fill="none" fill-rule="evenodd">
        <g id="Homepage-header-Copy" transform="translate(-733.000000, -39.000000)" fill="#A9A6AF">
            <g id="Group-2" transform="translate(733.000000, 39.000000)">
                <path d="M0,1.99749218 C0,0.894307712 0.896660339,0 1.99749218,0 L40.0025078,0 C41.1056923,0 42,0.896660339 42,1.99749218 L42,40.0025078 C42,41.1056923 41.1033397,42 40.0025078,42 L1.99749218,42 C0.894307712,42 0,41.1033397 0,40.0025078 L0,1.99749218 Z M2,2.9968754 C2,2.44631632 2.45323029,2 2.9968754,2 L39.0031246,2 C39.5536837,2 40,2.45323029 40,2.9968754 L40,39.0031246 C40,39.5536837 39.5467697,40 39.0031246,40 L2.9968754,40 C2.44631632,40 2,39.5467697 2,39.0031246 L2,2.9968754 Z M7,9.0085302 C7,7.8992496 7.90195036,7 9.0085302,7 L16.9914698,7 C18.1007504,7 19,7.90195036 19,9.0085302 L19,16.9914698 C19,18.1007504 18.0980496,19 16.9914698,19 L9.0085302,19 C7.8992496,19 7,18.0980496 7,16.9914698 L7,9.0085302 Z M8,8.99539757 C8,8.44565467 8.4556644,8 8.99539757,8 L17.0046024,8 C17.5543453,8 18,8.4556644 18,8.99539757 L18,17.0046024 C18,17.5543453 17.5443356,18 17.0046024,18 L8.99539757,18 C8.44565467,18 8,17.5443356 8,17.0046024 L8,8.99539757 Z M23,9.0085302 C23,7.8992496 23.9019504,7 25.0085302,7 L32.9914698,7 C34.1007504,7 35,7.90195036 35,9.0085302 L35,16.9914698 C35,18.1007504 34.0980496,19 32.9914698,19 L25.0085302,19 C23.8992496,19 23,18.0980496 23,16.9914698 L23,9.0085302 Z M7,25.0085302 C7,23.8992496 7.90195036,23 9.0085302,23 L16.9914698,23 C18.1007504,23 19,23.9019504 19,25.0085302 L19,32.9914698 C19,34.1007504 18.0980496,35 16.9914698,35 L9.0085302,35 C7.8992496,35 7,34.0980496 7,32.9914698 L7,25.0085302 Z M23,25.0085302 C23,23.8992496 23.9019504,23 25.0085302,23 L32.9914698,23 C34.1007504,23 35,23.9019504 35,25.0085302 L35,32.9914698 C35,34.1007504 34.0980496,35 32.9914698,35 L25.0085302,35 C23.8992496,35 23,34.0980496 23,32.9914698 L23,25.0085302 Z M24,24.9953976 C24,24.4456547 24.4556644,24 24.9953976,24 L33.0046024,24 C33.5543453,24 34,24.4556644 34,24.9953976 L34,33.0046024 C34,33.5543453 33.5443356,34 33.0046024,34 L24.9953976,34 C24.4456547,34 24,33.5443356 24,33.0046024 L24,24.9953976 Z" id="Combined-Shape"></path>
            </g>
        </g>
    </g>
</svg>