<?xml version="1.0" encoding="UTF-8" standalone="no"?>
<svg width="14px" height="16px" viewBox="0 0 14 16" version="1.1" xmlns="http://www.w3.org/2000/svg" xmlns:xlink="http://www.w3.org/1999/xlink">
    <!-- Generator: Sketch 3.7 (28169) - http://www.bohemiancoding.com/sketch -->
    <title>Combined Shape</title>
    <desc>Created with Sketch.</desc>
    <defs></defs>
    <g id="icons" stroke="none" stroke-width="1" fill="none" fill-rule="evenodd">
        <g id="General-icons-1" transform="translate(-574.000000, -708.000000)" fill="#9351E5">
            <path d="M577.918239,716.567848 C577.971444,716.387841 578,716.197255 578,716 C578,715.802745 577.971444,715.612159 577.918239,715.432152 L584.59672,711.425063 C584.957752,711.780611 585.453255,712 586,712 C587.104569,712 588,711.104569 588,710 C588,708.895431 587.104569,708 586,708 C584.895431,708 584,708.895431 584,710 C584,710.197255 584.028556,710.387841 584.081761,710.567848 L577.40328,714.574937 C577.042248,714.219389 576.546745,714 576,714 C574.895431,714 574,714.895431 574,716 C574,717.104569 574.895431,718 576,718 C576.546745,718 577.042248,717.780611 577.40328,717.425063 L584.081761,721.432152 C584.028556,721.612159 584,721.802745 584,722 C584,723.104569 584.895431,724 586,724 C587.104569,724 588,723.104569 588,722 C588,720.895431 587.104569,720 586,720 C585.453255,720 584.957752,720.219389 584.59672,720.574937 L577.918239,716.567848 Z" id="Combined-Shape"></path>
        </g>
    </g>
</svg>