<svg xmlns="http://www.w3.org/2000/svg" width="42" height="40" viewBox="0 0 42 40">
  <g fill="none" fill-rule="evenodd">
    <path fill="#BF97F0" d="M22.4852389,32.2848178 C23.6568414,32.7536184 24.5549736,33.7605635 24.8739825,35 L34,35 C37.7427374,31.2836406 40,26.4054263 40,21 C40,10.5065898 31.4934102,2 21,2 C10.5065898,2 2,10.5065898 2,21 C2,26.7049086 4.51431431,31.8225676 8,35 L17.1260175,35 C17.5282485,33.4372228 18.8511765,32.2440629 20.4821021,32.0332197 L23.714461,19.969892 C23.8584726,19.4324335 24.4039575,19.1116179 24.9411428,19.2555563 C25.4746089,19.3984981 25.7908796,19.947999 25.6463126,20.4875301 L22.4852389,32.2848178 Z M17.1260175,37 L7.20000076,37 C3.26416016,33.3847656 0,27.7071159 0,21 C0,9.40202025 9.40202025,0 21,0 C32.5979797,0 42,9.40202025 42,21 C42,27.6279952 38.7973633,33.6518555 34.5644531,37 L24.8739825,37 C24.4299397,38.7252272 22.8638394,40 21,40 C19.1361606,40 17.5700603,38.7252272 17.1260175,37 Z M21,38 C22.1045695,38 23,37.1045695 23,36 C23,34.8954305 22.1045695,34 21,34 C19.8954305,34 19,34.8954305 19,36 C19,37.1045695 19.8954305,38 21,38 Z"/>
    <path fill="#D9C1F6" d="M20,9.54699995 L20,4 L22,4 L22,9.54699995 C21.6708536,9.51590296 21.337284,9.5 21,9.5 C20.662716,9.5 20.3291464,9.51590296 20,9.54699995 Z M27.9535168,12.1322696 L31.9601551,8.12563133 L33.3743687,9.53984489 L29.3201476,13.594066 C28.9117461,13.0644114 28.4538985,12.5748419 27.9535168,12.1322696 Z M31.4883049,19.5 L37.5,19.5 L37.5,21.5 L31.3936667,21.5 C31.4637421,21.0100955 31.5,20.509282 31.5,20 C31.5,19.832387 31.4960726,19.6656914 31.4883049,19.5 Z M28.8677304,26.9535168 L33.3743687,31.4601551 L31.9601551,32.8743687 L27.405934,28.3201476 C27.9355886,27.9117461 28.4251581,27.4538985 28.8677304,26.9535168 Z M14.594066,28.3201476 L10.0398449,32.8743687 L8.62563133,31.4601551 L13.1322696,26.9535168 C13.5748419,27.4538985 14.0644114,27.9117461 14.594066,28.3201476 Z M10.6063333,21.5 L4.5,21.5 L4.5,19.5 L10.5116951,19.5 C10.5039274,19.6656914 10.5,19.832387 10.5,20 C10.5,20.509282 10.5362579,21.0100955 10.6063333,21.5 Z M12.6798524,13.594066 L8.62563133,9.53984489 L10.0398449,8.12563133 L14.0464832,12.1322696 C13.5461015,12.5748419 13.0882539,13.0644114 12.6798524,13.594066 Z"/>
  </g>
</svg>
