<svg xmlns="http://www.w3.org/2000/svg" width="47" height="45" viewBox="0 0 47 45">
  <g fill="none" fill-rule="evenodd">
    <g fill="#BF97F0">
      <path d="M0 20.9940603C0 19.8927712.896278629 19 2.00239962 19L34.9976004 19C36.1034952 19 37 19.8945138 37 20.9940603L37 33.0059397C37 34.1072288 36.1037214 35 34.9976004 35L2.00239962 35C.896504848 35 0 34.1054862 0 33.0059397L0 20.9940603zM2 22.0024733C2 21.4488226 2.44154413 21 3.00564303 21L33.994357 21C34.5497583 21 35 21.455761 35 22.0024733L35 31.9975267C35 32.5511774 34.5584559 33 33.994357 33L3.00564303 33C2.45024172 33 2 32.544239 2 31.9975267L2 22.0024733zM0 1.99406028C0 .892771196.896278629 0 2.00239962 0L34.9976004 0C36.1034952 0 37 .894513756 37 1.99406028L37 14.0059397C37 15.1072288 36.1037214 16 34.9976004 16L2.00239962 16C.896504848 16 0 15.1054862 0 14.0059397L0 1.99406028zM2 3.00247329C2 2.44882258 2.44154413 2 3.00564303 2L33.994357 2C34.5497583 2 35 2.45576096 35 3.00247329L35 12.9975267C35 13.5511774 34.5584559 14 33.994357 14L3.00564303 14C2.45024172 14 2 13.544239 2 12.9975267L2 3.00247329z"/>
      <circle cx="5.5" cy="5.5" r="1.5"/>
      <circle cx="10.5" cy="5.5" r="1.5"/>
      <circle cx="5.5" cy="24.5" r="1.5"/>
      <circle cx="10.5" cy="24.5" r="1.5"/>
    </g>
    <g transform="translate(17 15)">
      <path fill="#BF97F0" d="M21.0706996,23.19202 C18.853536,24.9500826 16.0493787,26 13,26 C5.82029825,26 0,20.1797017 0,13 C0,5.82029825 5.82029825,0 13,0 C20.1797017,0 26,5.82029825 26,13 C26,16.0493787 24.9500826,18.853536 23.19202,21.0706996 L28.7802245,26.6589041 C29.3648788,27.2435584 29.368045,28.1883042 28.7781746,28.7781746 C28.1923882,29.363961 27.2425819,29.3639023 26.6589041,28.7802245 L21.0706996,23.19202 Z"/>
      <path fill="#FFFFFF" d="M13 20C13.5522847 20 14 19.5522847 14 19 14 18.4477153 13.5522847 18 13 18 12.4477153 18 12 18.4477153 12 19 12 19.5522847 12.4477153 20 13 20zM11.0995398 6.99539757C11.0445655 6.44565467 11.4433532 6 12.0093689 6L13.9906311 6C14.5480902 6 14.9557409 6.44259056 14.9004602 6.99539757L14.0995398 15.0046024C14.0445655 15.5543453 13.5561352 16 13 16 12.4477153 16 11.9557409 15.5574094 11.9004602 15.0046024L11.0995398 6.99539757z"/>
    </g>
  </g>
</svg>
