<svg xmlns="http://www.w3.org/2000/svg" width="29" height="30" viewBox="0 0 29 30">
  <g fill="#BF97F0" fill-rule="evenodd">
    <path d="M13,26 C5.82029825,26 0,20.1797017 0,13 C0,5.82029825 5.82029825,0 13,0 C20.1797017,0 26,5.82029825 26,13 C26,20.1797017 20.1797017,26 13,26 Z M13,24 C19.0751322,24 24,19.0751322 24,13 C24,6.92486775 19.0751322,2 13,2 C6.92486775,2 2,6.92486775 2,13 C2,19.0751322 6.92486775,24 13,24 Z"/>
    <rect width="11" height="2" x="19" y="24" transform="rotate(45 24.5 25)" rx="1"/>
    <path d="M11.0995532,6.99539757 C11.0445785,6.44565467 11.4433696,6 12.0093901,6 L13.990669,6 C14.5481328,6 14.955787,6.44259056 14.9005059,6.99539757 L14.0995786,15.0046024 C14.0446038,15.5543453 13.5561694,16 13.0000295,16 L13.0000295,16 C12.4477401,16 11.9557617,15.5574094 11.9004805,15.0046024 L11.0995532,6.99539757 Z"/>
    <circle cx="13" cy="19" r="1"/>
  </g>
</svg>
