<?xml version="1.0" encoding="UTF-8" standalone="no"?>
<svg width="20px" height="18px" viewBox="0 0 20 18" version="1.1" xmlns="http://www.w3.org/2000/svg" xmlns:xlink="http://www.w3.org/1999/xlink">
    <!-- Generator: Sketch 3.8.2 (29753) - http://www.bohemiancoding.com/sketch -->
    <title>Group 11</title>
    <desc>Created with Sketch.</desc>
    <defs></defs>
    <g id="May-17th-2016" stroke="none" stroke-width="1" fill="none" fill-rule="evenodd">
        <g id="install-copy" transform="translate(-413.000000, -1855.000000)" fill="#442484">
            <g id="Group-10" transform="translate(413.000000, 1852.000000)">
                <g id="Group-11" transform="translate(0.000000, 3.000000)">
                    <path d="M19.4483753,0.332767294 C18.6548474,0.852968505 17.7780151,1.23129666 16.8408405,1.43372529 C16.0943049,0.551344077 15.0273676,0 13.8461538,0 C11.5819828,0 9.74447975,2.03466726 9.74447975,4.54397488 C9.74447975,4.90038768 9.77972392,5.24584281 9.85021227,5.57861011 C6.44007156,5.38886931 3.41708274,3.58200634 1.39214482,0.829322995 C1.03863509,1.50293166 0.8367821,2.28438691 0.8367821,3.11659351 C0.8367821,4.69219186 1.56088965,6.08323988 2.66253705,6.89814488 C1.99076175,6.87622953 1.35690065,6.66976387 0.802605933,6.33180609 L0.802605933,6.38717119 C0.802605933,8.5896639 2.21717886,10.427093 4.09580007,10.8429079 C3.75190238,10.9496011 3.38878061,11.003236 3.01444477,11.003236 C2.75011348,11.003236 2.49219021,10.9755535 2.24227699,10.9224953 C2.76453155,12.7270514 4.27896297,14.0413957 6.07481377,14.0765756 C4.67092089,15.2957611 2.90070221,16.022428 0.978826796,16.022428 C0.647745174,16.022428 0.32040157,16.0016661 0,15.9601423 C1.8156089,17.2473807 3.97351347,18 6.29001682,18 C13.8381438,18 17.964382,11.0770562 17.964382,5.07167345 C17.964382,4.87385858 17.961178,4.67662042 17.954236,4.48284259 C18.7557739,3.84210695 19.4521133,3.04219666 20,2.13097946 C19.2652124,2.49200602 18.4738205,2.7365352 17.6439805,2.84611195 C18.4914426,2.28438691 19.1418578,1.39393163 19.4483753,0.332767294" id="Twitter"></path>
                </g>
            </g>
        </g>
    </g>
</svg>