<svg id="horizontal_-_Flat" data-name="horizontal - Flat" xmlns="http://www.w3.org/2000/svg" viewBox="0 0 294.34 130.87"><defs><style>.cls-1{fill:#fff;}, .container--white-header .cls-1{fill:#110823;}</style></defs><title>logo</title><path id="_Compound_Path_" data-name="&lt;Compound Path&gt;" class="cls-1" d="M601.31,230l-15.73-15.82,15.75-15.78,15.78,15.74Zm15.8-51.13L601.33,163.1l-15.75,15.78,15.73,15.82Zm0-44.34L601,118.76l-15.45,15.78,15.73,15.82Zm-17.54,62.07-15.78-15.74L568,196.62l15.73,15.82Zm0-39-15.78-15.74L568,157.61l15.73,15.82Zm35.22,0L619,141.83l-15.75,15.78L619,173.43Zm0,39L619,180.83l-15.75,15.78L619,212.43Zm-52.74-17.64-15.78-15.74L550.52,179l15.73,15.82Zm70.38,0-15.78-15.74L620.9,179l15.73,15.82Zm-51.09,55.55-43.21-43.21-7.57,7.57,50.78,50.78L652,199l-7.57-7.57Z" transform="translate(-550.52 -118.76)"/><g id="_Group_" data-name="&lt;Group&gt;"><path id="_Compound_Path_2" data-name="&lt;Compound Path&gt;" class="cls-1" d="M689.5,207c-1.06,0-1.39-.59-1.39-1.71V163.85c0-1.19.4-1.72,1.58-1.72h14.38c11.94,0,16.09,5.21,16.09,10.75v23.35c0,5.54-4.16,10.75-16.09,10.75H689.5ZM697,169.53v30.08h7.06c4.49,0,7.19-1.65,7.19-4.95V174.47c0-3.3-2.7-4.95-7.19-4.95H697Z" transform="translate(-550.52 -118.76)"/><path id="_Compound_Path_3" data-name="&lt;Compound Path&gt;" class="cls-1" d="M758.11,196.77c0,5.54-3.56,10.75-15.5,10.75s-15.5-5.21-15.5-10.75V172.36c0-5.54,3.56-10.75,15.5-10.75s15.5,5.21,15.5,10.75v3.17c0,1.19-.4,1.65-1.52,1.65h-5.48a1.39,1.39,0,0,1-1.65-1.65v-1.58c0-3.3-2.31-4.95-6.73-4.95s-6.66,1.65-6.66,4.95v21.24c0,3.3,2.24,4.95,6.66,4.95s6.73-1.65,6.73-4.95v-2.51a1.39,1.39,0,0,1,1.65-1.65h5.48c1.12,0,1.52.46,1.52,1.65v4.09Z" transform="translate(-550.52 -118.76)"/></g><polygon id="_Path_" data-name="&lt;Path&gt;" class="cls-1" points="209.7 93.85 213.35 93.64 228.95 36.24 225.2 36.24 209.7 93.85"/><g id="_Group_2" data-name="&lt;Group&gt;"><path id="_Compound_Path_4" data-name="&lt;Compound Path&gt;" class="cls-1" d="M783,170.91c0-5.15,3.17-9.3,13.72-9.3s13.85,4.16,13.85,9.3v27.31c0,5.15-3.23,9.3-13.85,9.3S783,203.37,783,198.22V170.91Zm24,0.53c0-4-2.57-6.79-10.29-6.79s-10.22,2.77-10.22,6.79v26.25c0,4,2.57,6.79,10.22,6.79S807,201.72,807,197.69V171.44Z" transform="translate(-550.52 -118.76)"/><path id="_Compound_Path_5" data-name="&lt;Compound Path&gt;" class="cls-1" d="M841.1,171.31c0-4-2.18-6.73-9.83-6.73s-9.83,2.77-9.83,6.73v2.44a5.85,5.85,0,0,0,4.16,5.61l12.67,4.82c3.3,1.25,6.6,3.76,6.6,8.25v5.81c0,5.15-3.17,9.3-13.66,9.3s-13.72-4.16-13.72-9.3v-3.43a0.72,0.72,0,0,1,.79-0.86h1.91a0.72,0.72,0,0,1,.79.86v3c0,4,2.44,6.73,10.16,6.73s10.29-2.77,10.29-6.73v-4.68c0-3.56-2.9-5.15-5.47-6.13l-12.27-4.75a8.45,8.45,0,0,1-5.67-7.78v-3.56c0-5.15,2.9-9.3,13.26-9.3s13.26,4.16,13.26,9.3v3.23a0.68,0.68,0,0,1-.79.79h-1.91a0.66,0.66,0,0,1-.73-0.79v-2.84Z" transform="translate(-550.52 -118.76)"/></g></svg>
