<?xml version="1.0" encoding="UTF-8" standalone="no"?>
<svg width="158px" height="58px" viewBox="0 0 158 58" version="1.1" xmlns="http://www.w3.org/2000/svg" xmlns:xlink="http://www.w3.org/1999/xlink">
    <!-- Generator: Sketch 3.6.1 (26313) - http://www.bohemiancoding.com/sketch -->
    <title>Group</title>
    <desc>Created with Sketch.</desc>
    <defs></defs>
    <g id="Page-1" stroke="none" stroke-width="1" fill="none" fill-rule="evenodd">
        <g id="logo" fill="#FFFFFF">
            <g id="_Group_">
                <g id="Group">
                    <path d="M1.98,52.24 C0.92,52.24 0.59,51.65 0.59,50.53 L0.59,9.09 C0.59,7.9 0.99,7.37 2.17,7.37 L16.55,7.37 C28.49,7.37 32.64,12.58 32.64,18.12 L32.64,41.47 C32.64,47.01 28.48,52.22 16.55,52.22 L1.98,52.22 L1.98,52.24 Z M9.48,14.77 L9.48,44.85 L16.54,44.85 C21.03,44.85 23.73,43.2 23.73,39.9 L23.73,19.71 C23.73,16.41 21.03,14.76 16.54,14.76 L9.48,14.76 L9.48,14.77 Z" id="_Compound_Path_2"></path>
                    <path d="M70.59,42.01 C70.59,47.55 67.03,52.76 55.09,52.76 C43.15,52.76 39.59,47.55 39.59,42.01 L39.59,17.6 C39.59,12.06 43.15,6.85 55.09,6.85 C67.03,6.85 70.59,12.06 70.59,17.6 L70.59,20.77 C70.59,21.96 70.19,22.42 69.07,22.42 L63.59,22.42 C63.1291041,22.5185871 62.6496484,22.3769016 62.3163734,22.0436266 C61.9830984,21.7103516 61.8414129,21.2308959 61.94,20.77 L61.94,19.19 C61.94,15.89 59.63,14.24 55.21,14.24 C50.79,14.24 48.55,15.89 48.55,19.19 L48.55,40.43 C48.55,43.73 50.79,45.38 55.21,45.38 C59.63,45.38 61.94,43.73 61.94,40.43 L61.94,37.92 C61.8414129,37.4591041 61.9830984,36.9796484 62.3163734,36.6463734 C62.6496484,36.3130984 63.1291041,36.1714129 63.59,36.27 L69.07,36.27 C70.19,36.27 70.59,36.73 70.59,37.92 L70.59,42.01 L70.59,42.01 Z" id="_Compound_Path_3"></path>
                    <path d="M72.7,57.85 L76.35,57.64 L91.95,0.24 L88.2,0.24 L72.7,57.85 L72.7,57.85 Z" id="_Path_"></path>
                    <path d="M95.48,16.15 C95.48,11 98.65,6.85 109.2,6.85 C119.75,6.85 123.05,11.01 123.05,16.15 L123.05,43.46 C123.05,48.61 119.82,52.76 109.2,52.76 C98.58,52.76 95.48,48.61 95.48,43.46 L95.48,16.15 L95.48,16.15 Z M119.48,16.68 C119.48,12.68 116.91,9.89 109.19,9.89 C101.47,9.89 98.97,12.66 98.97,16.68 L98.97,42.93 C98.97,46.93 101.54,49.72 109.19,49.72 C116.84,49.72 119.48,46.96 119.48,42.93 L119.48,16.68 L119.48,16.68 Z" id="_Compound_Path_4"></path>
                    <path d="M153.58,16.55 C153.58,12.55 151.4,9.82 143.75,9.82 C136.1,9.82 133.92,12.59 133.92,16.55 L133.92,18.99 C133.915837,21.5734122 135.606733,23.8536833 138.08,24.6 L150.75,29.42 C154.05,30.67 157.35,33.18 157.35,37.67 L157.35,43.48 C157.35,48.63 154.18,52.78 143.69,52.78 C133.2,52.78 129.97,48.62 129.97,43.48 L129.97,40.05 C129.923414,39.823425 129.988524,39.5882646 130.145008,39.4179145 C130.301493,39.2475644 130.530293,39.1627714 130.76,39.19 L132.67,39.19 C132.899707,39.1627714 133.128507,39.2475644 133.284992,39.4179145 C133.441476,39.5882646 133.506586,39.823425 133.46,40.05 L133.46,43.05 C133.46,47.05 135.9,49.78 143.62,49.78 C151.34,49.78 153.91,47.01 153.91,43.05 L153.91,38.37 C153.91,34.81 151.01,33.22 148.44,32.24 L136.17,27.49 C132.843084,26.3320531 130.583557,23.2316803 130.5,19.71 L130.5,16.15 C130.5,11 133.4,6.85 143.76,6.85 C154.12,6.85 157.02,11.01 157.02,16.15 L157.02,19.38 C157.059594,19.5992974 156.989226,19.8240782 156.831652,19.981652 C156.674078,20.1392258 156.449297,20.2095938 156.23,20.17 L154.32,20.17 C154.108131,20.1971967 153.896201,20.1201742 153.751233,19.963291 C153.606265,19.8064079 153.546187,19.5890657 153.59,19.38 L153.59,16.54 L153.58,16.55 Z" id="_Compound_Path_5"></path>
                </g>
            </g>
        </g>
    </g>
</svg>