<svg width="623" height="227" viewBox="0 0 623 227" xmlns="http://www.w3.org/2000/svg"><title>Microsoft Azure</title><g fill="none" fill-rule="evenodd"><path d="M257.49 15.051l43.445-5.971v41.924h-43.442l-.003-35.953zm43.445 41.318v41.45l-43.44-5.963-.002-35.485h43.442v-.002zM305.74 8.42L363.55.474v50.53h-57.81V8.42zm57.81 47.95v50.047l-57.81-7.94V56.37h57.81z" fill="#0DADEA"/><g fill="#00ADEF"><path d="M65.557 225.152H55.516v-38.831c0-3.183.198-7.07.596-11.677h-.169c-.626 2.622-1.18 4.504-1.659 5.652l-18.213 44.856h-6.978l-18.256-44.52c-.51-1.31-1.05-3.306-1.616-5.983h-.168c.229 2.4.34 6.318.34 11.757v38.746H.032v-60.004h14.254L30.33 205.11c1.218 3.068 2.013 5.358 2.38 6.862h.212c1.05-3.153 1.902-5.498 2.554-7.032l16.342-39.792h13.745l-.005 60.004zM84.41 173.306c-1.616 0-3.004-.514-4.149-1.547-1.149-1.032-1.724-2.345-1.724-3.934 0-1.59.575-2.915 1.724-3.977 1.15-1.058 2.533-1.59 4.149-1.59 1.672 0 3.093.532 4.256 1.59 1.162 1.062 1.745 2.383 1.745 3.977 0 1.504-.583 2.796-1.745 3.87-1.167 1.076-2.584 1.611-4.256 1.611zm4.89 51.846h-9.868v-42.85H89.3v42.85zM133.43 223.185c-3.487 1.98-7.617 2.97-12.383 2.97-6.469 0-11.688-1.988-15.66-5.961-3.97-3.973-5.958-9.127-5.958-15.462 0-7.058 2.135-12.726 6.404-17.01 4.269-4.282 9.977-6.424 17.128-6.424 3.97 0 7.475.685 10.508 2.053v9.037c-3.037-2.23-6.27-3.348-9.7-3.348-4.17 0-7.588 1.39-10.254 4.164-2.666 2.775-4 6.408-4 10.899 0 4.436 1.252 7.937 3.763 10.503 2.51 2.567 5.88 3.85 10.106 3.85 3.548 0 6.892-1.24 10.042-3.722l.004 8.451zM168.534 191.551c-1.193-.922-2.908-1.38-5.15-1.38-2.922 0-5.363 1.295-7.32 3.891-1.958 2.592-2.939 6.123-2.939 10.585v20.505h-9.873v-42.85h9.873v8.829h.169c.963-3.013 2.445-5.363 4.446-7.05 2-1.686 4.234-2.532 6.702-2.532 1.789 0 3.15.268 4.087.795l.005 9.207zM194.917 226.155c-6.723 0-12.09-2.001-16.108-6.004-4.014-4.002-6.024-9.31-6.024-15.92 0-7.199 2.092-12.82 6.279-16.865 4.187-4.045 9.821-6.068 16.916-6.068 6.81 0 12.112 1.968 15.914 5.902 3.803 3.935 5.7 9.386 5.7 16.359 0 6.837-2.049 12.31-6.15 16.422-4.096 4.118-9.605 6.174-16.527 6.174zm.467-37.115c-3.859 0-6.91 1.326-9.148 3.973-2.242 2.651-3.361 6.305-3.361 10.962 0 4.492 1.136 8.027 3.405 10.606 2.268 2.579 5.306 3.87 9.108 3.87 3.889 0 6.875-1.27 8.957-3.806 2.083-2.541 3.129-6.153 3.129-10.84 0-4.712-1.042-8.353-3.129-10.92-2.087-2.562-5.072-3.845-8.961-3.845zM224.96 223.814v-8.995c3.69 2.762 7.761 4.143 12.212 4.143 5.958 0 8.935-1.73 8.935-5.188 0-.978-.255-1.806-.765-2.49-.51-.684-1.197-1.292-2.065-1.819-.869-.527-1.888-1.003-3.064-1.423-1.18-.421-2.488-.893-3.936-1.424a41.822 41.822 0 0 1-4.83-2.218c-1.435-.782-2.624-1.665-3.574-2.655a9.937 9.937 0 0 1-2.148-3.37c-.484-1.253-.721-2.72-.721-4.393 0-2.065.497-3.884 1.49-5.46.994-1.577 2.325-2.902 3.997-3.973 1.677-1.075 3.574-1.882 5.704-2.426a26.507 26.507 0 0 1 6.594-.816c4.027 0 7.63.599 10.806 1.797v8.494c-3.063-2.065-6.58-3.098-10.551-3.098-1.25 0-2.377.128-3.384.374-1.006.251-1.866.6-2.575 1.046-.709.446-1.262.981-1.66 1.61a3.793 3.793 0 0 0-.595 2.07c0 .921.198 1.703.596 2.345.397.641.985 1.206 1.767 1.695.778.489 1.716.935 2.809 1.339 1.093.403 2.346.845 3.768 1.317a55.287 55.287 0 0 1 5.042 2.303c1.49.781 2.761 1.665 3.811 2.655a10.36 10.36 0 0 1 2.424 3.433c.566 1.296.851 2.839.851 4.623 0 2.176-.51 4.07-1.534 5.69-1.02 1.619-2.385 2.957-4.083 4.015-1.702 1.062-3.668 1.848-5.894 2.363-2.23.518-4.575.773-7.043.773-4.77.004-8.896-.773-12.383-2.337zM284.62 226.155c-6.724 0-12.095-2.001-16.109-6.004-4.014-4.002-6.019-9.31-6.019-15.92 0-7.199 2.091-12.82 6.278-16.865 4.183-4.045 9.822-6.068 16.913-6.068 6.81 0 12.111 1.968 15.914 5.902 3.802 3.935 5.703 9.386 5.703 16.359 0 6.837-2.048 12.31-6.149 16.422-4.1 4.118-9.614 6.174-16.531 6.174zm.466-37.115c-3.858 0-6.909 1.326-9.151 3.973-2.243 2.651-3.362 6.305-3.362 10.962 0 4.492 1.136 8.027 3.405 10.606 2.268 2.579 5.306 3.87 9.108 3.87 3.885 0 6.87-1.27 8.958-3.806 2.087-2.541 3.128-6.153 3.128-10.84 0-4.712-1.041-8.353-3.128-10.92-2.087-2.562-5.073-3.845-8.958-3.845zM342.023 169.626c-1.33-.752-2.852-1.13-4.554-1.13-4.796 0-7.19 2.664-7.19 7.993v5.816h10.128v7.615h-10.085v35.232h-9.873V189.92h-7.445v-7.615h7.445v-6.947c0-4.52 1.503-8.081 4.51-10.69 3.008-2.61 6.767-3.914 11.278-3.914 2.442 0 4.369.264 5.786.795v8.077zM370.49 224.693c-1.928.948-4.468 1.424-7.618 1.424-8.452 0-12.678-3.99-12.678-11.965v-24.228h-7.276v-7.614h7.276v-9.917l9.873-2.762v12.679h10.427v7.614h-10.427v21.423c0 2.537.467 4.351 1.405 5.44.937 1.087 2.497 1.63 4.68 1.63 1.671 0 3.119-.47 4.337-1.423v7.7zM454.233 225.152h-11.105l-5.487-15.275h-23.999l-5.275 15.275H397.3l22.849-60.004h11.403l22.68 60.004zm-19.275-23.39l-8.465-23.935c-.255-.782-.527-2.035-.808-3.765h-.169c-.255 1.59-.54 2.847-.85 3.765l-8.383 23.935h18.675zM493.722 186.363l-23.532 31.213h23.446v7.576h-37.277v-3.641l24.042-31.634h-21.743v-7.576h35.064zM540.06 225.152h-9.87v-6.781h-.168c-2.865 5.188-7.32 7.784-13.36 7.784-10.297 0-15.447-6.08-15.447-18.245V182.3h9.873v24.606c0 7.7 3.02 11.549 9.065 11.549 2.921 0 5.324-1.058 7.212-3.178s2.83-4.895 2.83-8.328V182.3h9.873l-.008 42.851zM578.23 191.551c-1.192-.922-2.907-1.38-5.15-1.38-2.92 0-5.362 1.295-7.32 3.891-1.957 2.592-2.938 6.123-2.938 10.585v20.505h-9.869v-42.85h9.87v8.829h.168c.963-3.013 2.446-5.363 4.446-7.05 2-1.686 4.235-2.532 6.702-2.532 1.784 0 3.15.268 4.083.795l.009 9.207zM622.188 206.363h-29.702c.112 3.96 1.352 7.015 3.724 9.165 2.368 2.146 5.622 3.221 9.765 3.221 4.654 0 8.923-1.368 12.808-4.1v7.822c-3.971 2.456-9.221 3.684-15.746 3.684-6.412 0-11.437-1.946-15.084-5.838-3.647-3.892-5.466-9.365-5.466-16.422 0-6.667 2.005-12.102 6.023-16.3 4.014-4.198 9-6.297 14.96-6.297 5.958 0 10.564 1.883 13.826 5.647 3.263 3.765 4.896 8.995 4.896 15.692l-.004 3.726zm-9.532-6.862c-.044-3.488-.865-6.2-2.51-8.137-1.647-1.937-3.916-2.906-6.81-2.906-2.835 0-5.242 1.02-7.212 3.055-1.97 2.035-3.185 4.7-3.638 7.992h20.17v-.004z"/></g></g></svg>