<?xml version="1.0" encoding="UTF-8" standalone="no"?>
<svg width="244px" height="90px" viewBox="0 0 244 90" version="1.1" xmlns="http://www.w3.org/2000/svg" xmlns:xlink="http://www.w3.org/1999/xlink">
    <!-- Generator: Sketch 3.7 (28169) - http://www.bohemiancoding.com/sketch -->
    <title>accenture</title>
    <desc>Created with Sketch.</desc>
    <defs></defs>
    <g id="Logos" stroke="none" stroke-width="1" fill="none" fill-rule="evenodd">
        <g id="accenture" fill="#000000">
            <path d="M159.877258,11.8129846 C157.738194,12.6329594 142.88952,18.3603051 142.88952,18.3603051 L142.88952,23.5894269 L166.000331,14.2131934 L166.000331,9.394059 L142.88952,0 L142.88952,5.25140376 L142.88952,5.25140376 M244.762475,51.3972676 L244.762475,49.5719324 C244.762475,41.8026713 240.751728,36.6617859 232.650021,36.6617859 C223.149009,36.6617859 218.986745,42.6155159 218.986745,51.6557379 C218.986745,62.1621105 223.746164,69.9964349 235.047556,69.9964349 C238.068985,69.9964349 241.081501,69.6550758 243.960325,68.7174525 L243.960325,63.5890449 C242.097557,64.2352207 239.878277,64.7708782 237.872904,64.7708782 C230.644648,64.7708782 225.876316,58.166516 225.876316,51.3963763 L244.762475,51.3963763 M237.7303,46.8954277 L226.090223,46.8954277 C226.428908,43.6797005 228.897745,41.3900101 232.106342,41.3900101 C235.528846,41.3900101 237.7303,43.4827283 237.7303,46.896319 M207.052547,55.2814525 L207.052547,69.2477623 L199.62821,69.2477623 L199.62821,37.3899591 L207.052547,37.3899591 L207.052547,43.2741695 L207.177326,43.2741695 C209.672901,38.8775004 212.141738,36.6608946 217.498313,36.6608946 L217.498313,44.4194604 C209.868982,44.4194604 207.052547,47.7670966 207.052547,55.2823438 M187.506844,69.2486535 L187.506844,63.3065101 L187.373152,63.3065101 C185.679726,67.3136913 182.417652,70 177.934529,70 C171.838195,70 169.289143,64.9821108 169.289143,59.498975 L169.289143,37.392633 L176.722393,37.392633 L176.722393,55.6156814 C176.722393,57.1575905 176.597614,61.2325087 177.854314,62.43395 C178.406906,62.9749551 179.262532,63.0248666 180.011205,63.0248666 C185.349954,63.0248666 187.506844,55.4828811 187.506844,51.1833611 L187.506844,37.392633 L194.949006,37.392633 L194.949006,69.2504361 L187.506844,69.2504361 M156.552795,42.545105 L156.552795,57.6121417 C156.552795,61.3733304 156.944957,64.7726607 161.579597,64.7726607 C162.711519,64.7726607 163.861266,64.5195381 164.993188,64.2378945 L164.993188,69.4696902 C162.978902,69.7967889 160.91114,69.9982174 158.896854,69.9982174 C152.381619,69.9982174 149.140045,67.8475662 149.140045,61.2316174 L149.140045,42.5477788 L142.905563,42.5477788 L142.905563,37.392633 L149.140045,37.392633 L149.140045,29.8435172 L156.552795,26.8194146 L156.552795,37.3899591 L166.000331,37.3899591 L166.000331,42.545105 L156.552795,42.545105 M133.657673,69.2504361 L133.657673,51.0559085 C133.657673,49.5175645 133.789582,45.4257121 132.523078,44.2198144 C131.977616,43.6805918 131.120208,43.613746 130.3751,43.613746 C125.0212,43.613746 122.875896,51.1824699 122.875896,55.4819898 L122.875896,69.2504361 L115.447103,69.2504361 L115.447103,37.3917417 L122.875896,37.3917417 L122.875896,43.3481455 L123.012261,43.3481455 C124.690536,39.2687709 127.89022,36.6635684 132.452667,36.6635684 C138.546327,36.6635684 141.093597,41.6814576 141.093597,47.169941 L141.093597,69.2504361 L133.657673,69.2504361 M111.63422,51.3981589 L111.63422,49.5728237 C111.63422,41.8035626 107.625256,36.6626771 99.5182011,36.6626771 C90.0154064,36.6626771 85.8575994,42.6164071 85.8575994,51.6566292 C85.8575994,62.1630018 90.6081055,69.9973262 101.91841,69.9973262 C104.935382,69.9973262 107.952355,69.6559671 110.822267,68.7183438 L110.822267,63.5899362 C108.957715,64.236112 106.740218,64.7717694 104.743758,64.7717694 C97.5065891,64.7717694 92.756083,58.1674073 92.756083,51.3972676 L111.636002,51.3972676 M104.606501,46.896319 L92.9601854,46.896319 C93.2899579,43.6805918 95.7784031,41.3909013 98.9745222,41.3909013 C102.397026,41.3909013 104.60561,43.4836196 104.60561,46.8972103 M75.4804619,48.3143406 C75.4804619,45.0308764 74.541056,41.8766473 70.6675664,41.8766473 C65.9847974,41.8766473 64.5649932,46.7635188 64.5649932,50.5933358 C64.5649932,58.6255236 69.2709355,64.7717694 77.6970677,64.7717694 C79.4992297,64.7717694 81.3067393,64.5703408 83.0447294,63.9446644 L83.0447294,68.519589 C80.0411261,69.4687989 76.8904621,69.9964349 73.7424719,69.9964349 C62.3608653,69.9964349 56.6789748,63.0230841 56.6789748,51.923121 C56.6789748,42.6698838 61.7057767,36.6617859 71.264722,36.6617859 C79.0384395,36.6617859 83.387871,40.4648646 83.387871,48.3125581 L75.4804619,48.3125581 M46.9417742,48.3125581 C46.9417742,45.0290938 46.0041508,41.8748647 42.1226397,41.8748647 C37.4318491,41.8748647 36.0263054,46.7617362 36.0263054,50.5915532 C36.0263054,58.6237411 40.7037268,64.7699869 49.1610537,64.7699869 C50.9560855,64.7699869 52.7582475,64.5685583 54.5060416,63.9428819 L54.5060416,68.5178064 C51.4846127,69.4670164 48.3491004,69.9955436 45.1975452,69.9955436 C33.8248513,69.9955436 28.1295917,63.0221928 28.1295917,51.9222297 C28.1295917,42.670775 33.1653064,36.6617859 42.728708,36.6617859 C50.4961866,36.6617859 54.8393792,40.4648646 54.8393792,48.3125581 L46.9426654,48.3125581 M24.9111906,69.2504361 L24.9111906,46.5629814 C24.9111906,39.204599 20.0804696,36.6635684 13.3245903,36.6635684 C6.70240263,36.6635684 1.19431111,39.4728733 1.19431111,46.76441 L8.44039267,46.76441 C8.44039267,43.6164199 10.1159933,41.8784298 13.3245903,41.8784298 C17.0055641,41.8784298 17.8077134,44.556717 17.8077134,47.7011421 L17.8077134,50.8562625 C10.5794573,51.0576911 0,52.0639428 0,61.6371484 C0,67.0561122 4.28704211,70 9.36732069,70 C12.8522135,70 16.0608106,68.857383 17.6829346,65.5774838 L17.8077134,65.5774838 L17.8077134,69.2495448 L24.9111906,69.2495448 M17.8077134,55.205694 C17.8077134,59.2966552 16.1321127,64.773552 11.1766129,64.773552 C8.69886299,64.773552 7.22825603,63.499026 7.22825603,60.9571041 C7.22825603,56.1673818 14.2604311,55.2065853 17.8077134,55.2065853" id="Shape"></path>
        </g>
    </g>
</svg>