<?xml version="1.0" encoding="UTF-8" standalone="no"?>
<svg width="207px" height="90px" viewBox="0 0 207 90" version="1.1" xmlns="http://www.w3.org/2000/svg" xmlns:xlink="http://www.w3.org/1999/xlink">
    <!-- Generator: Sketch 3.7 (28169) - http://www.bohemiancoding.com/sketch -->
    <title>aws</title>
    <desc>Created with Sketch.</desc>
    <defs></defs>
    <g id="Logos" stroke="none" stroke-width="1" fill="none" fill-rule="evenodd">
        <g id="aws">
            <g transform="translate(0.000000, 3.000000)" id="Group">
                <g>
                    <polyline id="Shape" fill="#FF9900" points="26.9302077 76.7671846 14.8199887 72.4224171 14.8199887 54.6721387 26.9302077 58.7984864 26.9302077 76.7671846"></polyline>
                    <polyline id="Shape" fill="#FF9900" points="29.1511583 76.7671846 41.2613772 72.4224171 41.2613772 54.6721387 29.1511583 58.7984864 29.1511583 76.7671846"></polyline>
                    <polyline id="Shape" fill="#FF9900" points="16.0643511 53.3448187 28.3210583 49.8947321 39.6857099 53.5590381 28.3210583 57.4170866 16.0643511 53.3448187"></polyline>
                    <polyline id="Shape" fill="#FF9900" points="12.5124053 51.9697195 0.402186331 47.6254771 0.402186331 29.8746736 12.5124053 34.0004963 12.5124053 51.9697195"></polyline>
                    <polyline id="Shape" fill="#FF9900" points="14.7333559 51.9697195 26.8440999 47.6254771 26.8440999 29.8746736 14.7333559 34.0004963 14.7333559 51.9697195"></polyline>
                    <polyline id="Shape" fill="#FF9900" points="1.64654874 28.5463037 13.9037809 25.0967421 25.2684326 28.7610481 13.9037809 32.6196216 1.64654874 28.5463037"></polyline>
                    <polyline id="Shape" fill="#FF9900" points="40.7704579 51.9697195 28.6597139 47.6254771 28.6597139 29.8746736 40.7704579 34.0004963 40.7704579 51.9697195"></polyline>
                    <polyline id="Shape" fill="#FF9900" points="42.9914085 51.9697195 55.1021525 47.6254771 55.1021525 29.8746736 42.9914085 34.0004963 42.9914085 51.9697195"></polyline>
                    <polyline id="Shape" fill="#FF9900" points="29.9051264 28.5463037 42.1613085 25.0967421 53.5259601 28.7610481 42.1613085 32.6196216 29.9051264 28.5463037"></polyline>
                    <polyline id="Shape" fill="#FF9900" points="55.1882603 27.1712044 43.0775163 22.8280121 43.0775163 5.07720864 55.1882603 9.20250626 55.1882603 27.1712044"></polyline>
                    <polyline id="Shape" fill="#FF9900" points="57.4092109 27.1712044 69.5199549 22.8280121 69.5199549 5.07720864 57.4092109 9.20250626 57.4092109 27.1712044"></polyline>
                    <polyline id="Shape" fill="#FF9900" points="44.3224037 3.74883864 56.5791109 0.298751987 67.9437625 3.96305799 56.5791109 7.82163155 44.3224037 3.74883864"></polyline>
                    <polyline id="Shape" fill="#FF9900" points="83.4463127 27.1712044 71.3355689 22.8280121 71.3355689 5.07720864 83.4463127 9.20250626 83.4463127 27.1712044"></polyline>
                    <polyline id="Shape" fill="#FF9900" points="85.6672638 27.1712044 97.7780073 22.8280121 97.7780073 5.07720864 85.6672638 9.20250626 85.6672638 27.1712044"></polyline>
                    <polyline id="Shape" fill="#FF9900" points="72.5804563 3.74883864 84.8371636 0.298751987 96.2012897 3.96305799 84.8371636 7.82163155 72.5804563 3.74883864"></polyline>
                    <polygon id="Shape" fill="#000000" points="77.2859314 65.2040651 73.2178639 79.3362416 71.4495042 79.3362416 68.2824181 68.8394934 65.3783808 79.3362416 63.5758929 79.3362416 59.347686 65.2040651 61.5339835 65.2040651 64.6133867 75.7354663 67.5452515 65.2040651 69.1581972 65.2040651 72.3447101 75.7695944 75.510221 65.2040651 77.2859314 65.2040651"></polygon>
                    <polygon id="Shape" stroke="#000000" fill="#000000" points="77.2859314 65.2040651 73.2178639 79.3362416 71.4495042 79.3362416 68.2824181 68.8394934 65.3783808 79.3362416 63.5758929 79.3362416 59.347686 65.2040651 61.5339835 65.2040651 64.6133867 75.7354663 67.5452515 65.2040651 69.1581972 65.2040651 72.3447101 75.7695944 75.510221 65.2040651 77.2859314 65.2040651"></polygon>
                    <path d="M88.5387483,75.1206358 L90.5869576,75.5406738 C90.2141745,76.7493329 89.4880339,77.7500733 88.4085358,78.5413198 C87.3274634,79.3336164 86.0568485,79.7295021 84.5945915,79.7295021 C82.6671426,79.7295021 81.1077519,79.0506158 79.9153689,77.691268 C78.7235113,76.3329703 78.1275824,74.5514844 78.1275824,72.3478604 C78.1275824,70.096982 78.7471384,68.2787428 79.9852002,66.8920925 C81.2237875,65.5054423 82.7789778,64.8118546 84.651297,64.8118546 C86.4957883,64.8118546 87.978522,65.4503122 89.1005487,66.7272276 C90.2225754,68.004668 90.7980267,69.9142655 90.8258545,72.4581203 L80.5685279,72.4581203 C80.5685279,74.5955884 81.0148186,76.0363185 81.9084493,76.783461 C82.8015547,77.5300785 83.74664,77.9028621 84.7416048,77.9028621 C86.5383176,77.9028621 87.8036816,76.9751034 88.5387483,75.1206358 L88.5387483,75.1206358 L88.5387483,75.1206358 Z M88.419562,70.8199723 C88.4006602,70.0276757 88.2709737,69.3235872 88.0284016,68.7082315 C87.7863547,68.092876 87.3768178,67.5683536 86.7997907,67.1346644 C86.2227636,66.7015003 85.5291758,66.4846557 84.7195531,66.4846557 C83.6306044,66.4846557 82.7065212,66.8763411 81.9483523,67.6597118 C81.189659,68.4430826 80.7643706,69.4958027 80.6709122,70.8199723 L88.419562,70.8199723 L88.419562,70.8199723 L88.419562,70.8199723 Z" id="Shape" fill="#000000"></path>
                    <path d="M88.5387483,75.1206358 L90.5869576,75.5406738 C90.2141745,76.7493329 89.4880339,77.7500733 88.4085358,78.5413198 C87.3274634,79.3336164 86.0568485,79.7295021 84.5945915,79.7295021 C82.6671426,79.7295021 81.1077519,79.0506158 79.9153689,77.691268 C78.7235113,76.3329703 78.1275824,74.5514844 78.1275824,72.3478604 C78.1275824,70.096982 78.7471384,68.2787428 79.9852002,66.8920925 C81.2237875,65.5054423 82.7789778,64.8118546 84.651297,64.8118546 C86.4957883,64.8118546 87.978522,65.4503122 89.1005487,66.7272276 C90.2225754,68.004668 90.7980267,69.9142655 90.8258545,72.4581203 L80.5685279,72.4581203 C80.5685279,74.5955884 81.0148186,76.0363185 81.9084493,76.783461 C82.8015547,77.5300785 83.74664,77.9028621 84.7416048,77.9028621 C86.5383176,77.9028621 87.8036816,76.9751034 88.5387483,75.1206358 L88.5387483,75.1206358 L88.5387483,75.1206358 Z M88.419562,70.8199723 C88.4006602,70.0276757 88.2709737,69.3235872 88.0284016,68.7082315 C87.7863547,68.092876 87.3768178,67.5683536 86.7997907,67.1346644 C86.2227636,66.7015003 85.5291758,66.4846557 84.7195531,66.4846557 C83.6306044,66.4846557 82.7065212,66.8763411 81.9483523,67.6597118 C81.189659,68.4430826 80.7643706,69.4958027 80.6709122,70.8199723 L88.419562,70.8199723 L88.419562,70.8199723 L88.419562,70.8199723 Z" id="Shape" stroke="#000000" fill="#000000"></path>
                    <path d="M94.7768364,79.3362416 L93.718341,79.3362416 L93.718341,60.2549679 L95.9203895,60.2549679 L95.9203895,67.5599528 C96.9253301,65.7280624 98.3109309,64.8118546 100.07824,64.8118546 C101.696436,64.8118546 103.052634,65.4513623 104.145783,66.731428 C105.238932,68.0104436 105.785505,69.8685863 105.785505,72.3053315 C105.785505,74.4065713 105.247857,76.1686305 104.17256,77.5925591 C103.096738,79.0170128 101.697487,79.7295021 99.9748057,79.7295021 C98.0568073,79.7295021 96.5861495,78.8185448 95.5617826,76.9982054 L94.7768364,79.3362416 L94.7768364,79.3362416 L94.7768364,79.3362416 Z M95.9203895,73.7959412 C96.0227741,75.2471722 96.4674893,76.2993673 97.2550602,76.9546265 C98.0421067,77.6098857 98.8743063,77.9375152 99.7495604,77.9375152 C100.867912,77.9375152 101.769418,77.4518464 102.45408,76.4810337 C103.139267,75.510221 103.481072,74.1802759 103.481072,72.4906732 C103.481072,70.6713839 103.150818,69.2406297 102.489258,68.1994606 C101.827173,67.1588166 100.909391,66.6379695 99.7359095,66.6379695 C98.8134012,66.6379695 97.9817261,67.008653 97.240884,67.7489699 C96.500042,68.4903369 96.0600525,69.4480234 95.9203895,70.6220294 L95.9203895,73.7959412 L95.9203895,73.7959412 L95.9203895,73.7959412 Z" id="Shape" fill="#000000"></path>
                    <path d="M94.7768364,79.3362416 L93.718341,79.3362416 L93.718341,60.2549679 L95.9203895,60.2549679 L95.9203895,67.5599528 C96.9253301,65.7280624 98.3109309,64.8118546 100.07824,64.8118546 C101.696436,64.8118546 103.052634,65.4513623 104.145783,66.731428 C105.238932,68.0104436 105.785505,69.8685863 105.785505,72.3053315 C105.785505,74.4065713 105.247857,76.1686305 104.17256,77.5925591 C103.096738,79.0170128 101.697487,79.7295021 99.9748057,79.7295021 C98.0568073,79.7295021 96.5861495,78.8185448 95.5617826,76.9982054 L94.7768364,79.3362416 L94.7768364,79.3362416 L94.7768364,79.3362416 Z M95.9203895,73.7959412 C96.0227741,75.2471722 96.4674893,76.2993673 97.2550602,76.9546265 C98.0421067,77.6098857 98.8743063,77.9375152 99.7495604,77.9375152 C100.867912,77.9375152 101.769418,77.4518464 102.45408,76.4810337 C103.139267,75.510221 103.481072,74.1802759 103.481072,72.4906732 C103.481072,70.6713839 103.150818,69.2406297 102.489258,68.1994606 C101.827173,67.1588166 100.909391,66.6379695 99.7359095,66.6379695 C98.8134012,66.6379695 97.9817261,67.008653 97.240884,67.7489699 C96.500042,68.4903369 96.0600525,69.4480234 95.9203895,70.6220294 L95.9203895,73.7959412 L95.9203895,73.7959412 L95.9203895,73.7959412 Z" id="Shape" stroke="#000000" fill="#000000"></path>
                    <path d="M111.396162,75.6740358 L113.495303,75.2403466 C113.962069,77.015532 115.436402,77.9028621 117.918301,77.9028621 C118.831884,77.9028621 119.606854,77.6986187 120.241112,77.2890817 C120.875894,76.8800697 121.193022,76.3030426 121.193022,75.5585253 C121.193022,74.4522504 120.3855,73.749737 118.770454,73.4520351 L115.79396,72.8855089 C114.627829,72.6618387 113.700596,72.2234241 113.010684,71.5702651 C112.321296,70.9171061 111.97634,70.0544532 111.97634,68.9812562 C111.97634,67.7972743 112.446782,66.8059847 113.388192,66.0084377 C114.329078,65.2108907 115.596542,64.8118546 117.190061,64.8118546 C120.255813,64.8118546 122.148609,66.0105379 122.865824,68.4063293 L120.851741,68.8394934 C120.273665,67.3719859 119.087058,66.6379695 117.28982,66.6379695 C116.395139,66.6379695 115.661648,66.8217362 115.088296,67.1882192 C114.515994,67.5547024 114.229319,68.0671486 114.229319,68.7266082 C114.229319,69.765152 114.96176,70.418836 116.425067,70.6887105 L119.176315,71.1948562 C122.057251,71.7172784 123.496931,73.1149546 123.496931,75.3847346 C123.496931,76.683177 122.960857,77.7322217 121.888185,78.5302938 C120.816039,79.329941 119.38896,79.7295021 117.606949,79.7295021 C114.259246,79.7295021 112.188459,78.37698 111.396162,75.6740358 L111.396162,75.6740358 L111.396162,75.6740358 Z" id="Shape" fill="#000000"></path>
                    <path d="M111.396162,75.6740358 L113.495303,75.2403466 C113.962069,77.015532 115.436402,77.9028621 117.918301,77.9028621 C118.831884,77.9028621 119.606854,77.6986187 120.241112,77.2890817 C120.875894,76.8800697 121.193022,76.3030426 121.193022,75.5585253 C121.193022,74.4522504 120.3855,73.749737 118.770454,73.4520351 L115.79396,72.8855089 C114.627829,72.6618387 113.700596,72.2234241 113.010684,71.5702651 C112.321296,70.9171061 111.97634,70.0544532 111.97634,68.9812562 C111.97634,67.7972743 112.446782,66.8059847 113.388192,66.0084377 C114.329078,65.2108907 115.596542,64.8118546 117.190061,64.8118546 C120.255813,64.8118546 122.148609,66.0105379 122.865824,68.4063293 L120.851741,68.8394934 C120.273665,67.3719859 119.087058,66.6379695 117.28982,66.6379695 C116.395139,66.6379695 115.661648,66.8217362 115.088296,67.1882192 C114.515994,67.5547024 114.229319,68.0671486 114.229319,68.7266082 C114.229319,69.765152 114.96176,70.418836 116.425067,70.6887105 L119.176315,71.1948562 C122.057251,71.7172784 123.496931,73.1149546 123.496931,75.3847346 C123.496931,76.683177 122.960857,77.7322217 121.888185,78.5302938 C120.816039,79.329941 119.38896,79.7295021 117.606949,79.7295021 C114.259246,79.7295021 112.188459,78.37698 111.396162,75.6740358 L111.396162,75.6740358 L111.396162,75.6740358 Z" id="Shape" stroke="#000000" fill="#000000"></path>
                    <path d="M135.206014,75.1206358 L137.253699,75.5406738 C136.881964,76.7493329 136.155299,77.7500733 135.074752,78.5413198 C133.995254,79.3336164 132.723589,79.7295021 131.261857,79.7295021 C129.333883,79.7295021 127.773967,79.0506158 126.582634,77.691268 C125.390252,76.3329703 124.794848,74.5514844 124.794848,72.3478604 C124.794848,70.096982 125.413354,68.2787428 126.653516,66.8920925 C127.891577,65.5054423 129.446768,64.8118546 131.319088,64.8118546 C133.162004,64.8118546 134.645787,65.4503122 135.767814,66.7272276 C136.890365,68.004668 137.465292,69.9142655 137.492595,72.4581203 L127.235269,72.4581203 C127.235269,74.5955884 127.682608,76.0363185 128.575189,76.783461 C129.469345,77.5300785 130.41338,77.9028621 131.409396,77.9028621 C133.205058,77.9028621 134.470947,76.9751034 135.206014,75.1206358 L135.206014,75.1206358 L135.206014,75.1206358 Z M135.086302,70.8199723 C135.067926,70.0276757 134.937189,69.3235872 134.695667,68.7082315 C134.453096,68.092876 134.044083,67.5683536 133.467056,67.1346644 C132.890554,66.7015003 132.195917,66.4846557 131.386819,66.4846557 C130.29787,66.4846557 129.373787,66.8763411 128.615093,67.6597118 C127.856924,68.4430826 127.430586,69.4958027 127.337653,70.8199723 L135.086302,70.8199723 L135.086302,70.8199723 L135.086302,70.8199723 Z" id="Shape" fill="#000000"></path>
                    <path d="M135.206014,75.1206358 L137.253699,75.5406738 C136.881964,76.7493329 136.155299,77.7500733 135.074752,78.5413198 C133.995254,79.3336164 132.723589,79.7295021 131.261857,79.7295021 C129.333883,79.7295021 127.773967,79.0506158 126.582634,77.691268 C125.390252,76.3329703 124.794848,74.5514844 124.794848,72.3478604 C124.794848,70.096982 125.413354,68.2787428 126.653516,66.8920925 C127.891577,65.5054423 129.446768,64.8118546 131.319088,64.8118546 C133.162004,64.8118546 134.645787,65.4503122 135.767814,66.7272276 C136.890365,68.004668 137.465292,69.9142655 137.492595,72.4581203 L127.235269,72.4581203 C127.235269,74.5955884 127.682608,76.0363185 128.575189,76.783461 C129.469345,77.5300785 130.41338,77.9028621 131.409396,77.9028621 C133.205058,77.9028621 134.470947,76.9751034 135.206014,75.1206358 L135.206014,75.1206358 L135.206014,75.1206358 Z M135.086302,70.8199723 C135.067926,70.0276757 134.937189,69.3235872 134.695667,68.7082315 C134.453096,68.092876 134.044083,67.5683536 133.467056,67.1346644 C132.890554,66.7015003 132.195917,66.4846557 131.386819,66.4846557 C130.29787,66.4846557 129.373787,66.8763411 128.615093,67.6597118 C127.856924,68.4430826 127.430586,69.4958027 127.337653,70.8199723 L135.086302,70.8199723 L135.086302,70.8199723 L135.086302,70.8199723 Z" id="Shape" stroke="#000000" fill="#000000"></path>
                    <path d="M142.062082,79.3362416 L139.860559,79.3362416 L139.860559,65.2040651 L141.789583,65.2040651 L141.789583,68.4987376 C142.469519,66.9550982 143.152606,65.9554079 143.836743,65.4986166 C144.521405,65.0407753 145.222868,64.8118546 145.940608,64.8118546 C146.164278,64.8118546 146.45358,64.8291812 146.806937,64.8633093 L146.806937,66.9624489 L146.361171,66.9624489 C145.150937,66.9624489 144.145996,67.4124145 143.346349,68.3107707 C142.546176,69.2096519 142.118263,70.3904836 142.062082,71.8548408 L142.062082,79.3362416 L142.062082,79.3362416 L142.062082,79.3362416 Z" id="Shape" fill="#000000"></path>
                    <path d="M142.062082,79.3362416 L139.860559,79.3362416 L139.860559,65.2040651 L141.789583,65.2040651 L141.789583,68.4987376 C142.469519,66.9550982 143.152606,65.9554079 143.836743,65.4986166 C144.521405,65.0407753 145.222868,64.8118546 145.940608,64.8118546 C146.164278,64.8118546 146.45358,64.8291812 146.806937,64.8633093 L146.806937,66.9624489 L146.361171,66.9624489 C145.150937,66.9624489 144.145996,67.4124145 143.346349,68.3107707 C142.546176,69.2096519 142.118263,70.3904836 142.062082,71.8548408 L142.062082,79.3362416 L142.062082,79.3362416 L142.062082,79.3362416 Z" id="Shape" stroke="#000000" fill="#000000"></path>
                    <polygon id="Shape" fill="#000000" points="160.481796 65.2040651 155.602531 79.3362416 153.3212 79.3362416 148.278644 65.2040651 150.714339 65.2040651 154.636969 76.6910527 158.529145 65.2040651 160.481796 65.2040651"></polygon>
                    <polygon id="Shape" stroke="#000000" fill="#000000" points="160.481796 65.2040651 155.602531 79.3362416 153.3212 79.3362416 148.278644 65.2040651 150.714339 65.2040651 154.636969 76.6910527 158.529145 65.2040651 160.481796 65.2040651"></polygon>
                    <path d="M162.241756,60.2549679 L164.597118,60.2549679 L164.597118,62.6959135 L162.241756,62.6959135 L162.241756,60.2549679 L162.241756,60.2549679 Z M162.34414,65.2040651 L164.545664,65.2040651 L164.545664,79.3362416 L162.34414,79.3362416 L162.34414,65.2040651 L162.34414,65.2040651 Z" id="Shape" fill="#000000"></path>
                    <path d="M162.241756,60.2549679 L164.597118,60.2549679 L164.597118,62.6959135 L162.241756,62.6959135 L162.241756,60.2549679 L162.241756,60.2549679 Z M162.34414,65.2040651 L164.545664,65.2040651 L164.545664,79.3362416 L162.34414,79.3362416 L162.34414,65.2040651 L162.34414,65.2040651 Z" id="Shape" stroke="#000000" fill="#000000"></path>
                    <path d="M176.047878,74.3871446 L178.027307,74.7363011 C177.747981,76.2977922 177.127901,77.5206276 176.168114,78.4037573 C175.208327,79.2874122 174.010694,79.7295021 172.575214,79.7295021 C170.627813,79.7295021 169.142979,79.0096621 168.122812,77.5720823 C167.102645,76.1345024 166.591774,74.3787438 166.591774,72.3053315 C166.591774,70.1578875 167.130472,68.3722012 168.206819,66.9482726 C169.282642,65.5238189 170.748574,64.8118546 172.603042,64.8118546 C174.14143,64.8118546 175.373717,65.2717961 176.30095,66.1927293 C177.228709,67.1126124 177.803636,68.3018448 178.027307,69.7593765 L176.047878,70.1368856 C175.675094,67.80515 174.548343,66.6379695 172.667097,66.6379695 C171.456863,66.6379695 170.525429,67.152516 169.87437,68.1821341 C169.222261,69.2122771 168.896207,70.5469476 168.896207,72.1866708 C168.896207,73.9949341 169.219636,75.3983859 169.86702,76.4007014 C170.514403,77.4019669 171.42431,77.9028621 172.598316,77.9028621 C174.41288,77.9028621 175.563259,76.7309563 176.047878,74.3871446 L176.047878,74.3871446 L176.047878,74.3871446 Z" id="Shape" fill="#000000"></path>
                    <path d="M176.047878,74.3871446 L178.027307,74.7363011 C177.747981,76.2977922 177.127901,77.5206276 176.168114,78.4037573 C175.208327,79.2874122 174.010694,79.7295021 172.575214,79.7295021 C170.627813,79.7295021 169.142979,79.0096621 168.122812,77.5720823 C167.102645,76.1345024 166.591774,74.3787438 166.591774,72.3053315 C166.591774,70.1578875 167.130472,68.3722012 168.206819,66.9482726 C169.282642,65.5238189 170.748574,64.8118546 172.603042,64.8118546 C174.14143,64.8118546 175.373717,65.2717961 176.30095,66.1927293 C177.228709,67.1126124 177.803636,68.3018448 178.027307,69.7593765 L176.047878,70.1368856 C175.675094,67.80515 174.548343,66.6379695 172.667097,66.6379695 C171.456863,66.6379695 170.525429,67.152516 169.87437,68.1821341 C169.222261,69.2122771 168.896207,70.5469476 168.896207,72.1866708 C168.896207,73.9949341 169.219636,75.3983859 169.86702,76.4007014 C170.514403,77.4019669 171.42431,77.9028621 172.598316,77.9028621 C174.41288,77.9028621 175.563259,76.7309563 176.047878,74.3871446 L176.047878,74.3871446 L176.047878,74.3871446 Z" id="Shape" stroke="#000000" fill="#000000"></path>
                    <path d="M190.443628,75.1206358 L192.491313,75.5406738 C192.119055,76.7493329 191.392914,77.7500733 190.312366,78.5413198 C189.232869,79.3336164 187.961204,79.7295021 186.499472,79.7295021 C184.571497,79.7295021 183.011581,79.0506158 181.819724,77.691268 C180.627867,76.3329703 180.031938,74.5514844 180.031938,72.3478604 C180.031938,70.096982 180.650969,68.2787428 181.890605,66.8920925 C183.128667,65.5054423 184.684383,64.8118546 186.556702,64.8118546 C188.399619,64.8118546 189.883403,65.4503122 191.005429,66.7272276 C192.127981,68.004668 192.702907,69.9142655 192.73021,72.4581203 L182.472883,72.4581203 C182.472883,74.5955884 182.919699,76.0363185 183.812804,76.783461 C184.70696,77.5300785 185.65047,77.9028621 186.64701,77.9028621 C188.442147,77.9028621 189.708036,76.9751034 190.443628,75.1206358 L190.443628,75.1206358 L190.443628,75.1206358 Z M190.323918,70.8199723 C190.305541,70.0276757 190.174804,69.3235872 189.932757,68.7082315 C189.69071,68.092876 189.281699,67.5683536 188.704671,67.1346644 C188.127644,66.7015003 187.433531,66.4846557 186.623908,66.4846557 C185.534435,66.4846557 184.610876,66.8763411 183.852708,67.6597118 C183.094015,68.4430826 182.667676,69.4958027 182.575267,70.8199723 L190.323918,70.8199723 L190.323918,70.8199723 L190.323918,70.8199723 Z" id="Shape" fill="#000000"></path>
                    <path d="M190.443628,75.1206358 L192.491313,75.5406738 C192.119055,76.7493329 191.392914,77.7500733 190.312366,78.5413198 C189.232869,79.3336164 187.961204,79.7295021 186.499472,79.7295021 C184.571497,79.7295021 183.011581,79.0506158 181.819724,77.691268 C180.627867,76.3329703 180.031938,74.5514844 180.031938,72.3478604 C180.031938,70.096982 180.650969,68.2787428 181.890605,66.8920925 C183.128667,65.5054423 184.684383,64.8118546 186.556702,64.8118546 C188.399619,64.8118546 189.883403,65.4503122 191.005429,66.7272276 C192.127981,68.004668 192.702907,69.9142655 192.73021,72.4581203 L182.472883,72.4581203 C182.472883,74.5955884 182.919699,76.0363185 183.812804,76.783461 C184.70696,77.5300785 185.65047,77.9028621 186.64701,77.9028621 C188.442147,77.9028621 189.708036,76.9751034 190.443628,75.1206358 L190.443628,75.1206358 L190.443628,75.1206358 Z M190.323918,70.8199723 C190.305541,70.0276757 190.174804,69.3235872 189.932757,68.7082315 C189.69071,68.092876 189.281699,67.5683536 188.704671,67.1346644 C188.127644,66.7015003 187.433531,66.4846557 186.623908,66.4846557 C185.534435,66.4846557 184.610876,66.8763411 183.852708,67.6597118 C183.094015,68.4430826 182.667676,69.4958027 182.575267,70.8199723 L190.323918,70.8199723 L190.323918,70.8199723 L190.323918,70.8199723 Z" id="Shape" stroke="#000000" fill="#000000"></path>
                    <path d="M193.973522,75.6740358 L196.073712,75.2403466 C196.539954,77.015532 198.014287,77.9028621 200.495661,77.9028621 C201.410294,77.9028621 202.184213,77.6986187 202.818471,77.2890817 C203.453253,76.8800697 203.770907,76.3030426 203.770907,75.5585253 C203.770907,74.4522504 202.963384,73.749737 201.347813,73.4520351 L198.37132,72.8855089 C197.205714,72.6618387 196.27848,72.2234241 195.588568,71.5702651 C194.899181,70.9171061 194.554225,70.0544532 194.554225,68.9812562 C194.554225,67.7972743 195.024142,66.8059847 195.966077,66.0084377 C196.906437,65.2108907 198.173901,64.8118546 199.76847,64.8118546 C202.833698,64.8118546 204.725968,66.0105379 205.443183,68.4063293 L203.429101,68.8394934 C202.852074,67.3719859 201.664417,66.6379695 199.86718,66.6379695 C198.973024,66.6379695 198.239532,66.8217362 197.666705,67.1882192 C197.093879,67.5547024 196.807203,68.0671486 196.807203,68.7266082 C196.807203,69.765152 197.539119,70.418836 199.003476,70.6887105 L201.754725,71.1948562 C204.63461,71.7172784 206.074815,73.1149546 206.074815,75.3847346 C206.074815,76.683177 205.539267,77.7322217 204.466069,78.5302938 C203.393923,79.329941 201.966319,79.7295021 200.185358,79.7295021 C196.837131,79.7295021 194.766343,78.37698 193.973522,75.6740358 L193.973522,75.6740358 L193.973522,75.6740358 Z" id="Shape" fill="#000000"></path>
                    <path d="M193.973522,75.6740358 L196.073712,75.2403466 C196.539954,77.015532 198.014287,77.9028621 200.495661,77.9028621 C201.410294,77.9028621 202.184213,77.6986187 202.818471,77.2890817 C203.453253,76.8800697 203.770907,76.3030426 203.770907,75.5585253 C203.770907,74.4522504 202.963384,73.749737 201.347813,73.4520351 L198.37132,72.8855089 C197.205714,72.6618387 196.27848,72.2234241 195.588568,71.5702651 C194.899181,70.9171061 194.554225,70.0544532 194.554225,68.9812562 C194.554225,67.7972743 195.024142,66.8059847 195.966077,66.0084377 C196.906437,65.2108907 198.173901,64.8118546 199.76847,64.8118546 C202.833698,64.8118546 204.725968,66.0105379 205.443183,68.4063293 L203.429101,68.8394934 C202.852074,67.3719859 201.664417,66.6379695 199.86718,66.6379695 C198.973024,66.6379695 198.239532,66.8217362 197.666705,67.1882192 C197.093879,67.5547024 196.807203,68.0671486 196.807203,68.7266082 C196.807203,69.765152 197.539119,70.418836 199.003476,70.6887105 L201.754725,71.1948562 C204.63461,71.7172784 206.074815,73.1149546 206.074815,75.3847346 C206.074815,76.683177 205.539267,77.7322217 204.466069,78.5302938 C203.393923,79.329941 201.966319,79.7295021 200.185358,79.7295021 C196.837131,79.7295021 194.766343,78.37698 193.973522,75.6740358 L193.973522,75.6740358 L193.973522,75.6740358 Z" id="Shape" stroke="#000000" fill="#000000"></path>
                    <path d="M144.348139,35.0001867 L144.348139,31.605755 C144.350239,31.0891084 144.739299,30.7446773 145.208167,30.7457274 L160.422992,30.7441522 C160.90971,30.7441522 161.299821,31.0980342 161.30087,31.6015547 L161.299821,34.5129426 C161.296145,35.0012368 160.885033,35.6386443 160.154167,36.6498857 L152.27373,47.9021771 C155.199295,47.8333959 158.293399,48.2712854 160.951714,49.7655704 C161.551318,50.1021258 161.711458,50.6014459 161.758712,51.0907901 L161.758712,54.7125673 C161.758712,55.2118874 161.212663,55.7894396 160.638785,55.4891124 C155.955362,53.0360908 149.740901,52.7672666 144.562884,55.5185151 C144.033636,55.8004655 143.480236,55.2313142 143.480236,54.731994 L143.480236,51.288733 C143.480236,50.7379583 143.490212,49.7954981 144.046237,48.9554222 L153.176812,35.856539 L145.227068,35.8549639 C144.740874,35.8549639 144.35129,35.5084326 144.348139,35.0001867" id="Shape" fill="#000000"></path>
                    <path d="M89.8986206,56.2026519 L85.2698028,56.2026519 C84.8292881,56.1737743 84.4775063,55.8424693 84.4418028,55.4203312 L84.4449527,31.6635102 C84.4449527,31.1883423 84.8450392,30.808208 85.338059,30.808208 L89.6486982,30.8071579 C90.1002392,30.83026 90.4619968,31.1715408 90.4908743,31.6047049 L90.4908743,34.7066851 L90.5775071,34.7066851 C91.7005834,31.7070891 93.8180994,30.3073127 96.6691071,30.3073127 C99.564219,30.3073127 101.378783,31.7070891 102.67565,34.7066851 C103.798201,31.7070891 106.347832,30.3073127 109.069678,30.3073127 C111.014453,30.3073127 113.131444,31.1069599 114.427787,32.9068225 C115.896344,34.9062032 115.594442,37.8060401 115.594442,40.3556704 L115.590767,55.3473497 C115.590767,55.8219925 115.191206,56.2026519 114.698186,56.2026519 L110.075143,56.2026519 C109.610476,56.1727242 109.243994,55.8046659 109.243994,55.3494499 L109.242943,42.7551371 C109.242943,41.7554469 109.329576,39.2556961 109.112731,38.3058853 C108.76725,36.7060657 107.730806,36.2561001 106.391411,36.2561001 C105.267809,36.2561001 104.101154,37.0058678 103.625461,38.2061262 C103.150293,39.4058596 103.193872,41.4052402 103.193872,42.7551371 L103.193872,55.3473497 C103.193872,55.8219925 102.793786,56.2026519 102.301291,56.2026519 L97.6777236,56.2026519 C97.2130562,56.1727242 96.8465737,55.8046659 96.8465737,55.3494499 L96.8418481,42.7551371 C96.8418481,40.1057478 97.2744873,36.2062206 93.9908404,36.2062206 C90.6636145,36.2062206 90.7933018,40.0054638 90.7933018,42.7551371 L90.7912016,55.3473497 C90.7917261,55.8219925 90.3916404,56.2026519 89.8986206,56.2026519" id="Shape" fill="#000000"></path>
                    <path d="M172.477556,30.3073127 C179.292671,30.3073127 182.979029,36.2062206 182.979029,43.704948 C182.979029,50.9532277 178.907811,56.7030221 172.477556,56.7030221 C165.791076,56.7030221 162.147247,50.8035892 162.147247,43.4550254 C162.147247,36.0560571 165.83413,30.3073127 172.477556,30.3073127 L172.477556,30.3073127 L172.477556,30.3073127 Z M172.520609,35.767806 C169.133528,35.767806 168.919834,40.4171009 168.919834,43.3164128 C168.919834,46.2157248 168.87678,51.8038045 172.477556,51.8038045 C176.035802,51.8038045 176.206967,47.4159832 176.206967,44.3665077 C176.206967,42.3666021 176.121909,39.9671353 175.521255,38.0675137 C175.006183,36.4178147 173.977615,35.767806 172.520609,35.767806 L172.520609,35.767806 L172.520609,35.767806 Z" id="Shape" fill="#000000"></path>
                    <path d="M192.843095,56.2026519 L188.231603,56.2026519 C187.767986,56.1727242 187.400979,55.8046659 187.400979,55.3494499 L187.393627,31.583703 C187.432481,31.1494888 187.816291,30.808208 188.283058,30.808208 L192.576371,30.8071579 C192.980657,30.8276347 193.314062,31.1038097 193.39912,31.472393 L193.39912,35.1062462 L193.486278,35.1062462 C194.78262,31.8567277 196.596134,30.3073127 199.793673,30.3073127 C201.867611,30.3073127 203.899019,31.0570805 205.194836,33.1068656 C206.40507,35.0064872 206.40507,38.2061262 206.40507,40.5058339 L206.40507,55.4539343 C206.35309,55.8755473 205.975581,56.2026519 205.518265,56.2026519 L200.877896,56.2026519 C200.448932,56.1748244 200.103451,55.860321 200.053571,55.4539343 L200.053571,42.5550941 C200.053571,39.9555842 200.355998,36.1563411 197.15846,36.1563411 C196.034333,36.1563411 194.997889,36.9061088 194.479668,38.0559627 C193.831759,39.5056186 193.744601,40.9552746 193.744601,42.5550941 L193.744601,55.3473497 C193.7362,55.8219925 193.336639,56.2026519 192.843095,56.2026519" id="Shape" fill="#000000"></path>
                    <path d="M132.744066,44.8574271 C132.744066,46.66149 132.78712,48.1641758 131.878263,49.7676706 C131.142146,51.0703133 129.972865,51.8715357 128.673373,51.8715357 C126.898713,51.8715357 125.859119,50.5184884 125.859119,48.5149075 C125.859119,44.5728514 129.395314,43.8556366 132.744066,43.8556366 L132.744066,44.8574271 L132.744066,44.8574271 L132.744066,44.8574271 Z M137.410688,56.1433215 C137.10406,56.4179214 136.662495,56.436298 136.317014,56.2509563 C134.779675,54.9729908 134.50455,54.3823125 133.663949,53.1663026 C131.122719,55.7547864 129.323382,56.5308065 126.032385,56.5308065 C122.135483,56.5308065 119.104384,54.1260893 119.104384,49.3166549 C119.104384,45.5588904 121.139467,43.0040096 124.040355,41.7512465 C126.551657,40.6486469 130.059498,40.4486038 132.744066,40.1477516 L132.744066,39.5465723 C132.744066,38.4444978 132.830699,37.1418551 132.181215,36.1899441 C131.618364,35.3383172 130.535716,34.9875855 129.583281,34.9875855 C127.817546,34.9875855 126.248179,35.8922422 125.862794,37.7671866 C125.782987,38.1840743 125.477935,38.5967615 125.058947,38.6177634 L120.572416,38.1326196 C120.193333,38.0470368 119.772244,37.7430344 119.881454,37.1649572 C120.912647,31.7217905 125.827616,30.077342 130.232764,30.077342 C132.484167,30.077342 135.429159,30.6785213 137.203819,32.3823001 C139.455747,34.4866903 139.238903,37.2920187 139.238903,40.3483198 L139.238903,47.5598461 C139.238903,49.7288171 140.140409,50.6807281 140.986785,51.8494836 C141.281863,52.2705717 141.348543,52.771467 140.971034,53.0791447 C140.025424,53.8714413 138.345797,55.3310731 137.421189,56.1532975 L137.410688,56.1433215 L137.410688,56.1433215 L137.410688,56.1433215 Z" id="Shape" fill="#000000"></path>
                    <path d="M72.5899072,44.8574271 C72.5899072,46.66149 72.6334861,48.1641758 71.724104,49.7676706 C70.9879875,51.0703133 69.8192319,51.8715357 68.5197396,51.8715357 C66.7445542,51.8715357 65.7054853,50.5184884 65.7054853,48.5149075 C65.7054853,44.5728514 69.2416798,43.8556366 72.5899072,43.8556366 L72.5899072,44.8574271 L72.5899072,44.8574271 L72.5899072,44.8574271 Z M77.2570538,56.1433215 C76.9504261,56.4179214 76.5083362,56.436298 76.16338,56.2509563 C74.625516,54.9729908 74.3498662,54.3823125 73.5097903,53.1663026 C70.9690858,55.7547864 69.1692232,56.5308065 65.8787509,56.5308065 C61.9813239,56.5308065 58.9502251,54.1260893 58.9502251,49.3166549 C58.9502251,45.5588904 60.9853089,43.0040096 63.8867211,41.7512465 C66.3980229,40.6486469 69.9058647,40.4486038 72.5899072,40.1477516 L72.5899072,39.5465723 C72.5899072,38.4444978 72.67654,37.1418551 72.0275814,36.1899441 C71.4642055,35.3383172 70.3815577,34.9875855 69.4291217,34.9875855 C67.6639122,34.9875855 66.0940204,35.8922422 65.7086356,37.7671866 C65.6283034,38.1840743 65.3243008,38.5967615 64.9042629,38.6177634 L60.4182577,38.1326196 C60.0396985,38.0470368 59.6180854,37.7430344 59.7278204,37.1649572 C60.7584884,31.7217905 65.6734575,30.077342 70.0786053,30.077342 C72.3305337,30.077342 75.2744747,30.6785213 77.0501851,32.3823001 C79.3015884,34.4866903 79.0852689,37.2920187 79.0852689,40.3483198 L79.0852689,47.5598461 C79.0852689,49.7288171 79.9862503,50.6807281 80.8321018,51.8494836 C81.1277034,52.2705717 81.1943846,52.771467 80.8174004,53.0791447 C79.87179,53.8714413 78.1916382,55.3310731 77.2675547,56.1532975 L77.2570538,56.1433215 L77.2570538,56.1433215 L77.2570538,56.1433215 Z" id="Shape" fill="#000000"></path>
                </g>
            </g>
        </g>
    </g>
</svg>