<?xml version="1.0" encoding="UTF-8" standalone="no"?>
<svg width="274px" height="90px" viewBox="0 0 274 90" version="1.1" xmlns="http://www.w3.org/2000/svg" xmlns:xlink="http://www.w3.org/1999/xlink">
    <!-- Generator: Sketch 3.7 (28169) - http://www.bohemiancoding.com/sketch -->
    <title>coreos</title>
    <desc>Created with Sketch.</desc>
    <defs></defs>
    <g id="Logos" stroke="none" stroke-width="1" fill="none" fill-rule="evenodd">
        <g id="coreos">
            <g id="CoreOS" transform="translate(0.000000, 5.000000)">
                <g id="Group">
                    <path d="M40.0622222,0.195524638 C18.1103704,0.195524638 0.255185185,18.0828754 0.255185185,40.0695652 C0.255185185,62.0577392 18.1103704,79.9439771 40.0622222,79.9439771 C62.0074074,79.9439771 79.864074,62.0577392 79.864074,40.0695652 C79.864074,18.0828754 62.0074074,0.195524638 40.0622222,0.195524638 L40.0622222,0.195524638 L40.0622222,0.195524638 Z" id="Shape" fill="#53A3DA"></path>
                    <path d="M40.0622222,3.85446956 C33.6611111,3.85446956 28.2322222,14.1111652 26.2714815,28.3670261 C26.2088889,28.8256 26.1481482,29.2897391 26.0944444,29.7568464 C25.8266667,32.000371 25.6451852,34.3333101 25.5544444,36.7348869 C25.5111111,37.8338319 25.4896296,38.9446493 25.4896296,40.0695652 C25.4896296,41.1933681 25.5111111,42.3064116 25.5544444,43.4031305 C25.6451852,45.8043362 25.8266667,48.1387594 26.0944444,50.3822841 C29.0959259,50.7714782 32.3051852,51.0356406 35.6525926,51.1610435 C37.0996296,51.2152116 38.5681482,51.2474899 40.0625926,51.2474899 C41.5525926,51.2474899 43.0255556,51.2148406 44.4681481,51.1610435 C47.8196296,51.0356406 51.0266667,50.7714782 54.0307407,50.3822841 C54.3611112,50.3399884 54.6862961,50.2936116 55.0155554,50.2457507 C67.5170372,48.487142 76.2137035,44.594458 76.2137035,40.0695652 C76.2133335,20.0674319 60.026296,3.85446956 40.0622222,3.85446956 L40.0622222,3.85446956 L40.0622222,3.85446956 Z" id="Shape" fill="#F1606D"></path>
                    <path d="M55.0151854,29.8922667 C54.6525925,29.362458 54.2637035,28.8549101 53.8492595,28.3673971 C50.5322222,24.4505971 45.5911111,21.9618319 40.0625926,21.9618319 C38.2703704,21.9618319 36.6744444,24.7099362 35.6525926,28.9773449 C35.2466667,30.6788174 34.9314815,32.6203362 34.7285185,34.7273275 C34.5685185,36.4158145 34.4822222,38.2115246 34.4822222,40.0695652 C34.4822222,41.9276058 34.5685185,43.7236869 34.7285185,45.4106899 C36.4151852,45.5709681 38.2051852,45.6570435 40.0625926,45.6570435 C41.9177778,45.6570435 43.7077778,45.5709681 45.3944444,45.4106899 C49.1022222,45.0582261 52.302963,44.3440232 54.5703702,43.4031305 C56.8096294,42.4752232 58.1348149,41.3198841 58.1348149,40.0695652 C58.1344444,36.2970899 56.9844444,32.793229 55.0151854,29.8922667 L55.0151854,29.8922667 L55.0151854,29.8922667 Z" id="Shape" fill="#FFFFFF"></path>
                </g>
                <path d="M117.367037,20.4254609 C122.028148,20.4254609 125.817407,22.7027478 128.204815,25.2716522 L124.477407,29.4737623 C122.494815,27.5474551 120.338518,26.3219942 117.425185,26.3219942 C111.188518,26.3219942 106.701852,31.5755594 106.701852,40.1574956 C106.701852,48.8570435 110.838518,54.1106085 117.190741,54.1106085 C120.571482,54.1106085 123.077778,52.710029 125.234074,50.3158725 L128.962592,54.4597333 C125.875555,58.0207307 121.911481,60.0064 117.074074,60.0064 C107.40037,60.0064 99.7662961,53.0016464 99.7662961,40.3333565 C99.7666666,27.8394435 107.575556,20.4254609 117.367037,20.4254609 L117.367037,20.4254609 L117.367037,20.4254609 Z" id="Shape" fill="#231F20"></path>
                <path d="M144.05963,29.9412406 C151.227037,29.9412406 157.697408,35.429658 157.697408,45.0033159 C157.697408,54.5187248 151.226666,60.0067712 144.05963,60.0067712 C136.949629,60.0067712 130.481852,54.5187248 130.481852,45.0033159 C130.481852,35.429658 136.949629,29.9412406 144.05963,29.9412406 L144.05963,29.9412406 L144.05963,29.9412406 Z M144.05963,54.5187248 C148.255926,54.5187248 150.818889,50.7239884 150.818889,45.0033159 C150.818889,39.2240232 148.255926,35.429658 144.05963,35.429658 C139.863333,35.429658 137.358148,39.2240232 137.358148,45.0033159 C137.358148,50.7239884 139.863333,54.5187248 144.05963,54.5187248 L144.05963,54.5187248 L144.05963,54.5187248 Z" id="Shape" fill="#231F20"></path>
                <path d="M159.915185,30.6417159 L165.44963,30.6417159 L165.916296,35.7201623 L166.149259,35.7201623 C168.188518,31.9840464 171.22,29.9408695 174.24963,29.9408695 C175.708148,29.9408695 176.640371,30.1159884 177.512963,30.5248464 L176.347037,36.3623884 C175.358148,36.0715131 174.6,35.8960232 173.377407,35.8960232 C171.103704,35.8960232 168.362963,37.4709797 166.615926,41.7925565 L166.615926,59.3055536 L159.915185,59.3055536 L159.915185,30.6417159 L159.915185,30.6417159 L159.915185,30.6417159 Z" id="Shape" fill="#231F20"></path>
                <path d="M190.044815,29.9412406 C197.795926,29.9412406 201.874815,35.5461565 201.874815,43.545229 C201.874815,44.8281971 201.758518,45.9954087 201.583333,46.6969971 L183.401852,46.6969971 C183.983334,51.8923131 187.245926,54.8107131 191.85037,54.8107131 C194.299629,54.8107131 196.395926,54.0534725 198.495185,52.710029 L200.767407,56.9121392 C198.028518,58.7219477 194.591111,60.0067712 190.977778,60.0067712 C183.05037,60.0067712 176.874074,54.4601045 176.874074,45.0033159 C176.874445,35.6619131 183.341852,29.9412406 190.044815,29.9412406 L190.044815,29.9412406 L190.044815,29.9412406 Z M196.046667,42.4351536 C196.046667,37.8802087 194.124815,35.1369275 190.22,35.1369275 C186.840371,35.1369275 183.925185,37.6479536 183.342222,42.4351536 L196.046667,42.4351536 L196.046667,42.4351536 L196.046667,42.4351536 Z" id="Shape" fill="#231F20"></path>
                <path d="M212.074815,39.9237565 C212.074815,27.7808232 218.661852,20.1323594 227.926296,20.1323594 C237.134815,20.1323594 243.719259,27.7808232 243.719259,39.9237565 C243.719259,52.1260522 237.135185,60.0067712 227.926296,60.0067712 C218.661852,60.0067712 212.074815,52.1260522 212.074815,39.9237565 L212.074815,39.9237565 L212.074815,39.9237565 Z M240.922222,39.9237565 C240.922222,29.2982725 235.678518,22.5858782 227.925926,22.5858782 C220.117037,22.5858782 214.871111,29.2986435 214.871111,39.9237565 C214.871111,50.6074899 220.117037,57.554736 227.925926,57.554736 C235.678518,57.554736 240.922222,50.6074899 240.922222,39.9237565 L240.922222,39.9237565 L240.922222,39.9237565 Z" id="Shape" fill="#F1606D"></path>
                <path d="M248.791852,52.3594203 C251.59074,55.5111883 255.611111,57.554736 260.098889,57.554736 C265.925555,57.554736 269.657037,54.4014843 269.657037,49.8498782 C269.657037,45.0623073 266.511111,43.4854956 262.722592,41.7925565 L256.894445,39.1650319 C253.572592,37.7047188 249.141111,35.3120464 249.141111,29.5898899 C249.141111,24.0443362 253.920371,20.1319884 260.274074,20.1319884 C264.936296,20.1319884 268.665926,22.2337855 270.995926,24.7455536 L269.424074,26.5553623 C267.208518,24.1615768 264.120371,22.5855073 260.274074,22.5855073 C255.203333,22.5855073 251.823704,25.2712812 251.823704,29.4733913 C251.823704,33.9114667 255.67,35.6029218 258.466667,36.8881159 L264.295556,39.4559073 C268.54963,41.3833275 272.337408,43.7771131 272.337408,49.6732754 C272.337408,55.5694379 267.5,60.0064 260.040741,60.0064 C254.445555,60.0064 250.133333,57.6129856 247.102963,54.2274784 L248.791852,52.3594203 L248.791852,52.3594203 L248.791852,52.3594203 Z" id="Shape" fill="#53A4D9"></path>
            </g>
        </g>
    </g>
</svg>