<?xml version="1.0" encoding="UTF-8" standalone="no"?>
<svg width="340px" height="90px" viewBox="0 0 340 90" version="1.1" xmlns="http://www.w3.org/2000/svg" xmlns:xlink="http://www.w3.org/1999/xlink">
    <!-- Generator: Sketch 3.7 (28169) - http://www.bohemiancoding.com/sketch -->
    <title>mesosphere</title>
    <desc>Created with Sketch.</desc>
    <defs>
        <linearGradient x1="3.061617e-15%" y1="50%" x2="100%" y2="50%" id="linearGradient-1">
            <stop stop-color="#9351E5" offset="0%"></stop>
            <stop stop-color="#EF468B" offset="100%"></stop>
        </linearGradient>
    </defs>
    <g id="Logos" stroke="none" stroke-width="1" fill="none" fill-rule="evenodd">
        <g id="mesosphere">
            <g id="Logo" transform="translate(0.000000, 30.000000)">
                <path d="M325.279316,3.02009023 L325.279316,14.2759098 L336.873391,14.2759098 L336.873391,16.8733534 L325.279316,16.8733534 L325.279316,28.1084211 L339.597421,28.1084211 L339.597421,30.7058647 L322.555286,30.7058647 L322.555286,0.422646617 L339.597421,0.422646617 L339.597421,3.02009023 L325.279316,3.02009023 L325.279316,3.02009023 Z M305.685045,17.781594 L313.900023,30.7058647 L310.753346,30.7058647 L302.538714,17.781594 L298.800609,17.781594 L298.800609,30.7058647 L296.076579,30.7058647 L296.076579,0.422646617 L305.685045,0.422646617 C306.712609,0.422646617 307.677571,0.615984962 308.578203,1.00266165 C309.47918,1.3907218 310.267752,1.92196992 310.943571,2.59778947 C311.619391,3.27360902 312.150639,4.06633083 312.538008,4.97249624 C312.925376,5.88246617 313.118714,6.85054135 313.118714,7.87706767 L313.118714,10.3268271 C313.118714,11.3536992 312.925376,12.3217744 312.538008,13.2313985 C312.150639,14.1379098 311.619391,14.9306316 310.943571,15.6064511 C310.267752,16.2822707 309.47918,16.8135188 308.578203,17.2015789 C307.677571,17.5882556 306.712609,17.781594 305.685045,17.781594 L305.685045,17.781594 Z M305.558459,15.1841504 C306.234278,15.1841504 306.864444,15.057218 307.448609,14.8040451 C308.032429,14.5505263 308.543271,14.2029323 308.979406,13.7578045 C309.415887,13.3157895 309.76106,12.800797 310.014233,12.2176692 C310.267752,11.632812 310.394338,11.0026466 310.394338,10.3268271 L310.394338,7.87706767 C310.394338,7.20124812 310.267752,6.57108271 310.014233,5.98622556 C309.76106,5.40309774 309.415887,4.88810526 308.979406,4.44643609 C308.543271,4.00130827 308.032429,3.65371429 307.448609,3.40019549 C306.864444,3.14667669 306.234278,3.02009023 305.558459,3.02009023 L298.800609,3.02009023 L298.800609,15.1841504 L305.558459,15.1841504 L305.558459,15.1841504 Z M270.433481,30.7058647 L287.475617,30.7058647 L287.475617,28.1084211 L273.157511,28.1084211 L273.157511,16.8733534 L284.751586,16.8733534 L284.751586,14.2759098 L273.157511,14.2759098 L273.157511,3.02009023 L287.475617,3.02009023 L287.475617,0.422646617 L270.433481,0.422646617 L270.433481,30.7058647 L270.433481,30.7058647 Z M256.933346,14.2759098 L245.339617,14.2759098 L245.339617,0.422646617 L242.615241,0.422646617 L242.615241,30.7058647 L245.339617,30.7058647 L245.339617,16.8733534 L256.933346,16.8733534 L256.933346,30.7058647 L259.657376,30.7058647 L259.657376,0.422646617 L256.933346,0.422646617 L256.933346,14.2759098 L256.933346,14.2759098 Z M233.379271,4.97249624 C233.766639,5.88246617 233.959977,6.85054135 233.959977,7.87706767 L233.959977,11.6362707 C233.959977,12.662797 233.766639,13.6277594 233.379271,14.5294286 C232.991902,15.4310977 232.460654,16.2189774 231.784835,16.8944511 C231.109015,17.5702707 230.317331,18.1015188 229.40909,18.4881955 C228.501195,18.8762556 227.532774,19.069594 226.505556,19.069594 L219.642218,19.069594 L219.642218,30.7058647 L216.917842,30.7058647 L216.917842,0.422646617 L226.505556,0.422646617 C227.532774,0.422646617 228.501195,0.615984962 229.40909,1.00266165 C230.317331,1.3907218 231.109015,1.92196992 231.784835,2.59778947 C232.460654,3.27360902 232.991902,4.06633083 233.379271,4.97249624 L233.379271,4.97249624 Z M231.235947,7.87706767 C231.235947,7.20124812 231.109015,6.57108271 230.855842,5.98622556 C230.602323,5.40309774 230.254038,4.88810526 229.810293,4.44643609 C229.366895,4.00130827 228.85294,3.65371429 228.268774,3.40019549 C227.684609,3.14667669 227.054444,3.02009023 226.378624,3.02009023 L219.642218,3.02009023 L219.642218,16.4721504 L226.378624,16.4721504 C227.054444,16.4721504 227.684609,16.3455639 228.268774,16.0920451 C228.85294,15.8385263 229.366895,15.4926617 229.810293,15.057218 C230.254038,14.6221203 230.602323,14.1102406 230.855842,13.5271128 C231.109015,12.9422556 231.235947,12.3120902 231.235947,11.6362707 L231.235947,7.87706767 L231.235947,7.87706767 Z M205.369421,17.2015789 C204.693602,16.5745263 203.930278,16.0467368 203.078068,15.6161353 C202.226203,15.1872632 201.349782,14.794015 200.44915,14.4336241 C199.548173,14.076 198.671752,13.7235639 197.819887,13.3776992 C196.967677,13.033218 196.204353,12.6254436 195.528534,12.1526466 C194.852714,11.6815789 194.31109,11.1164361 193.902278,10.4537594 C193.493812,9.79073684 193.290098,8.97518797 193.290098,8.004 L193.290098,7.43366917 C193.290098,6.75784962 193.416684,6.12768421 193.670203,5.54455639 C193.923376,4.95969925 194.272008,4.44954887 194.715406,4.0127218 C195.158805,3.57554887 195.673105,3.23106767 196.256925,2.97789474 C196.84109,2.72437594 197.471256,2.59778947 198.147075,2.59778947 L199.836624,2.59778947 C200.512444,2.59778947 201.142609,2.72437594 201.726774,2.97789474 C202.310594,3.23106767 202.821436,3.57554887 203.257571,4.0127218 C203.694053,4.44954887 204.039226,4.95969925 204.292398,5.54455639 C204.545917,6.12768421 204.672504,6.75784962 204.672504,7.43366917 L204.672504,8.6587218 L207.39688,8.6763609 L207.39688,7.43366917 C207.39688,6.40541353 207.203541,5.44045113 206.816173,4.54051128 C206.428805,3.64057143 205.897556,2.85096241 205.221737,2.17548872 C204.545917,1.49966917 203.757346,0.968421053 202.856368,0.580015038 C201.955737,0.193338346 200.990774,0 199.963211,0 L198.020489,0 C196.992925,0 196.02485,0.193338346 195.116609,0.580015038 C194.208714,0.968421053 193.416684,1.49966917 192.740865,2.17548872 C192.065045,2.85096241 191.533797,3.64057143 191.146429,4.54051128 C190.75906,5.44045113 190.565722,6.40541353 190.565722,7.43366917 L190.565722,8.004 C190.565722,9.30030075 190.769782,10.3901203 191.178248,11.2772632 C191.586714,12.1640602 192.128338,12.9128571 192.804158,13.5271128 C193.479977,14.1379098 194.243647,14.6480602 195.095511,15.057218 C195.947722,15.4667218 196.824143,15.8385263 197.724774,16.1764361 C198.625406,16.5143459 199.501827,16.8522556 200.354038,17.1901654 C201.205902,17.5280752 201.969571,17.9389624 202.645391,18.4266316 C203.321211,18.9104962 203.862835,19.4984662 204.271301,20.1891579 C204.680113,20.8795038 204.883827,21.7434737 204.883827,22.7866015 L204.883827,23.6944962 C204.883827,24.3703158 204.746519,25.0008271 204.471902,25.5839549 C204.197632,26.168812 203.827902,26.6820752 203.363406,27.127203 C202.898564,27.5688722 202.363511,27.9181955 201.758248,28.1717143 C201.153331,28.4248872 200.512444,28.5518195 199.836624,28.5518195 L197.936098,28.5518195 C197.260278,28.5518195 196.615932,28.4248872 196.003752,28.1717143 C195.391226,27.9181955 194.852714,27.5688722 194.388218,27.127203 C193.923376,26.6820752 193.553992,26.168812 193.279376,25.5839549 C193.005105,25.0008271 192.867797,24.3703158 192.867797,23.6944962 L192.867797,22.0474887 L190.143421,22.0360752 L190.143421,23.6944962 C190.143421,24.7227519 190.351286,25.6877143 190.766323,26.5876541 C191.181361,27.487594 191.737857,28.277203 192.434774,28.9530226 C193.131692,29.6288421 193.941361,30.1600902 194.863436,30.5481504 C195.785165,30.9348271 196.760504,31.1281654 197.788068,31.1281654 L199.963211,31.1281654 C200.990774,31.1281654 201.966113,30.9348271 202.888188,30.5481504 C203.809917,30.1600902 204.619932,29.6288421 205.31685,28.9530226 C206.013767,28.277203 206.569917,27.487594 206.984955,26.5876541 C207.399992,25.6877143 207.607857,24.7227519 207.607857,23.6944962 L207.607857,22.7866015 C207.607857,21.4903008 207.404143,20.3921805 206.995677,19.4922406 C206.587211,18.5923008 206.045241,17.8269023 205.369421,17.2015789 L205.369421,17.2015789 Z M180.853842,4.54051128 C181.241556,5.44045113 181.434549,6.40541353 181.434549,7.43366917 L181.434549,23.6944962 C181.434549,24.7227519 181.241556,25.6877143 180.853842,26.5876541 C180.466474,27.487594 179.935226,28.277203 179.259406,28.9530226 C178.583586,29.6288421 177.795015,30.1600902 176.894383,30.5481504 C175.993752,30.9348271 175.028789,31.1281654 174.001226,31.1281654 L171.84718,31.1281654 C170.819617,31.1281654 169.851541,30.9348271 168.943301,30.5481504 C168.035406,30.1600902 167.243376,29.6288421 166.567556,28.9530226 C165.891737,28.277203 165.360489,27.487594 164.97312,26.5876541 C164.585752,25.6877143 164.392414,24.7227519 164.392414,23.6944962 L164.392414,7.43366917 C164.392414,6.40541353 164.585752,5.44045113 164.97312,4.54051128 C165.360489,3.64057143 165.891737,2.85096241 166.567556,2.17548872 C167.243376,1.49966917 168.035406,0.968421053 168.943301,0.580015038 C169.851541,0.193338346 170.819617,0 171.84718,0 L174.001226,0 C175.028789,0 175.993752,0.193338346 176.894383,0.580015038 C177.795015,0.968421053 178.583586,1.49966917 179.259406,2.17548872 C179.935226,2.85096241 180.466474,3.64057143 180.853842,4.54051128 L180.853842,4.54051128 Z M178.710519,7.43366917 C178.710519,6.75784962 178.583586,6.12768421 178.330414,5.54455639 C178.076895,4.95969925 177.731722,4.44954887 177.295586,4.0127218 C176.859451,3.57554887 176.348609,3.23106767 175.764444,2.97789474 C175.180624,2.72437594 174.550113,2.59778947 173.874293,2.59778947 L171.973767,2.59778947 C171.297947,2.59778947 170.667782,2.72437594 170.083617,2.97789474 C169.499797,3.23106767 168.985496,3.57554887 168.542098,4.0127218 C168.098699,4.44954887 167.750068,4.95969925 167.496895,5.54455639 C167.243376,6.12768421 167.116789,6.75784962 167.116789,7.43366917 L167.116789,23.6944962 C167.116789,24.3703158 167.243376,25.0008271 167.496895,25.5839549 C167.750068,26.168812 168.098699,26.6820752 168.542098,27.127203 C168.985496,27.5688722 169.499797,27.9181955 170.083617,28.1717143 C170.667782,28.4248872 171.297947,28.5518195 171.973767,28.5518195 L173.874293,28.5518195 C174.550113,28.5518195 175.180624,28.4248872 175.764444,28.1717143 C176.348609,27.9181955 176.859451,27.5688722 177.295586,27.127203 C177.731722,26.6820752 178.076895,26.168812 178.330414,25.5839549 C178.583586,25.0008271 178.710519,24.3703158 178.710519,23.6944962 L178.710519,7.43366917 L178.710519,7.43366917 Z M153.287737,17.2015789 C152.611917,16.5745263 151.848248,16.0467368 150.996383,15.6161353 C150.144173,15.1872632 149.267752,14.794015 148.36712,14.4336241 C147.466489,14.076 146.590068,13.7235639 145.737857,13.3776992 C144.885992,13.033218 144.122323,12.6254436 143.446504,12.1526466 C142.77103,11.6815789 142.22906,11.1164361 141.820594,10.4537594 C141.412128,9.79073684 141.208068,8.97518797 141.208068,8.004 L141.208068,7.43366917 C141.208068,6.75784962 141.334654,6.12768421 141.588173,5.54455639 C141.841692,4.95969925 142.189977,4.44954887 142.633722,4.0127218 C143.07712,3.57554887 143.591075,3.23106767 144.175241,2.97789474 C144.75906,2.72437594 145.389571,2.59778947 146.065391,2.59778947 L147.754594,2.59778947 C148.430414,2.59778947 149.060925,2.72437594 149.644744,2.97789474 C150.22891,3.23106767 150.739752,3.57554887 151.175887,4.0127218 C151.612023,4.44954887 151.957195,4.95969925 152.210714,5.54455639 C152.463887,6.12768421 152.59082,6.75784962 152.59082,7.43366917 L152.59082,8.6587218 L155.31485,8.6763609 L155.31485,7.43366917 C155.31485,6.40541353 155.121511,5.44045113 154.734143,4.54051128 C154.346774,3.64057143 153.815526,2.85096241 153.139707,2.17548872 C152.463887,1.49966917 151.675316,0.968421053 150.774684,0.580015038 C149.873707,0.193338346 148.908744,0 147.881526,0 L145.938459,0 C144.910895,0 143.94282,0.193338346 143.034925,0.580015038 C142.126684,0.968421053 141.334654,1.49966917 140.65918,2.17548872 C139.983361,2.85096241 139.452113,3.64057143 139.064744,4.54051128 C138.67703,5.44045113 138.484038,6.40541353 138.484038,7.43366917 L138.484038,8.004 C138.484038,9.30030075 138.687752,10.3901203 139.096218,11.2772632 C139.504684,12.1640602 140.046654,12.9128571 140.722474,13.5271128 C141.398293,14.1379098 142.161617,14.6480602 143.013827,15.057218 C143.865692,15.4667218 144.742113,15.8385263 145.642744,16.1764361 C146.543722,16.5143459 147.420143,16.8522556 148.272008,17.1901654 C149.124218,17.5280752 149.887541,17.9389624 150.563361,18.4266316 C151.23918,18.9104962 151.780805,19.4984662 152.189617,20.1891579 C152.598083,20.8795038 152.801797,21.7434737 152.801797,22.7866015 L152.801797,23.6944962 C152.801797,24.3703158 152.664489,25.0008271 152.390218,25.5839549 C152.115602,26.168812 151.745872,26.6820752 151.281376,27.127203 C150.81688,27.5688722 150.281481,27.9181955 149.676564,28.1717143 C149.071301,28.4248872 148.430414,28.5518195 147.754594,28.5518195 L145.854068,28.5518195 C145.178248,28.5518195 144.534248,28.4248872 143.921722,28.1717143 C143.309541,27.9181955 142.77103,27.5688722 142.306188,27.127203 C141.841692,26.6820752 141.471962,26.168812 141.197692,25.5839549 C140.923075,25.0008271 140.785767,24.3703158 140.785767,23.6944962 L140.785767,22.0474887 L138.061391,22.0360752 L138.061391,23.6944962 C138.061391,24.7227519 138.269602,25.6877143 138.684639,26.5876541 C139.099677,27.487594 139.655827,28.277203 140.352744,28.9530226 C141.049662,29.6288421 141.859331,30.1600902 142.781406,30.5481504 C143.703135,30.9348271 144.67882,31.1281654 145.706383,31.1281654 L147.881526,31.1281654 C148.908744,31.1281654 149.884429,30.9348271 150.806158,30.5481504 C151.728233,30.1600902 152.537902,29.6288421 153.23482,28.9530226 C153.931737,28.277203 154.488233,27.487594 154.903271,26.5876541 C155.318308,25.6877143 155.526173,24.7227519 155.526173,23.6944962 L155.526173,22.7866015 C155.526173,21.4903008 155.322113,20.3921805 154.913647,19.4922406 C154.50518,18.5923008 153.963211,17.8269023 153.287737,17.2015789 L153.287737,17.2015789 Z M113.619135,30.7058647 L130.661271,30.7058647 L130.661271,28.1084211 L116.343165,28.1084211 L116.343165,16.8733534 L127.936895,16.8733534 L127.936895,14.2759098 L116.343165,14.2759098 L116.343165,3.02009023 L130.661271,3.02009023 L130.661271,0.422646617 L113.619135,0.422646617 L113.619135,30.7058647 L113.619135,30.7058647 Z M93.5071053,17.863218 L93.3431654,17.863218 L84.7138421,0.422646617 L83.0491955,0.422646617 L83.0491955,30.7058647 L85.6943684,30.7058647 L85.6943684,7.66885714 L92.7482782,21.7870526 L94.1428045,21.7870526 L101.155902,7.66885714 L101.155902,30.7058647 L103.801075,30.7058647 L103.801075,0.422646617 L102.136429,0.422646617 L93.5071053,17.863218 L93.5071053,17.863218 Z" id="Mesosphere" fill="#323A43"></path>
                <path d="M31.1694962,45.775188 C30.1893158,45.775188 29.2679323,45.2442857 28.6419173,44.3190977 L18.5084286,29.3386617 L4.22733083,38.1350376 C3.66115038,38.484015 3.08909023,38.6607519 2.52775188,38.6607519 C1.33036842,38.6607519 0.0416766917,37.7649624 0.0416766917,35.7969925 L0.0416766917,4.23684211 C0.0416766917,2.80738346 0.843045113,1.48203008 2.09922556,0.806902256 C2.63808271,0.39912782 3.38411278,0.345864662 3.93265414,0.345864662 L58.4063383,0.345864662 L58.409797,0.345864662 L58.4132556,0.345864662 L58.4194812,0.345864662 C59.1523684,0.34724812 59.7150902,0.48006015 60.1308195,0.750526316 C61.4513308,1.40663158 62.2973158,2.76034586 62.2973158,4.23684211 L62.2973158,28.4473684 C62.2973158,29.2698346 62.0562481,29.9888872 61.6000526,30.5267068 C61.1047744,31.1108722 60.3971353,31.4325263 59.6078722,31.4325263 C59.6078722,31.4325263 59.6078722,31.4325263 59.6075263,31.4325263 C59.1115564,31.4325263 58.6041729,31.3066316 58.1002481,31.0583008 L46.5258872,25.3549925 L33.6970752,44.3190977 C33.0710602,45.2442857 32.1496767,45.775188 31.1694962,45.775188 L31.1694962,45.775188 Z M20.7188496,27.9773383 L30.7904286,42.8650827 C30.9381128,43.0833233 31.0871805,43.181203 31.1694962,43.181203 C31.251812,43.181203 31.4008797,43.0833233 31.5485639,42.8650827 L44.1767744,24.1973835 L34.553782,19.4555789 L20.7188496,27.9773383 L20.7188496,27.9773383 Z M2.52775188,36.0667669 L2.52775188,37.3637594 L2.52775188,36.0667669 L2.52775188,36.0667669 Z M2.63566165,5.87485714 L2.63566165,35.7969925 C2.63566165,35.8969474 2.64430827,35.9758045 2.65537594,36.0339098 C2.7086391,36.0135038 2.77919549,35.9799549 2.86669925,35.9263459 L17.0533759,27.1880752 L2.63566165,5.87485714 L2.63566165,5.87485714 Z M47.9930451,23.1857293 L59.2467895,28.7309774 C59.5566842,28.8838496 59.6434962,28.8361203 59.6438421,28.8350827 C59.6424586,28.8264361 59.7033308,28.7033083 59.7033308,28.4473684 L59.7033308,5.87485714 L47.9930451,23.1857293 L47.9930451,23.1857293 Z M5.15459398,4.96903759 L19.2641429,25.8267519 L31.8058872,18.1015188 L5.15459398,4.96903759 L5.15459398,4.96903759 Z M37.1622932,17.8486917 L45.6442782,22.0284662 L56.549391,5.90771429 L37.1622932,17.8486917 L37.1622932,17.8486917 Z M6.9053609,2.93984962 L34.4140526,16.4949774 L56.4214211,2.93984962 L6.9053609,2.93984962 L6.9053609,2.93984962 Z" id="Mark" fill="url(#linearGradient-1)"></path>
            </g>
        </g>
    </g>
</svg>