<?xml version="1.0" encoding="UTF-8" standalone="no"?>
<svg width="280px" height="90px" viewBox="0 0 280 90" version="1.1" xmlns="http://www.w3.org/2000/svg" xmlns:xlink="http://www.w3.org/1999/xlink">
    <!-- Generator: Sketch 3.7 (28169) - http://www.bohemiancoding.com/sketch -->
    <title>microsoft</title>
    <desc>Created with Sketch.</desc>
    <defs></defs>
    <g id="Logos" stroke="none" stroke-width="1" fill="none" fill-rule="evenodd">
        <g id="microsoft">
            <g transform="translate(0.000000, 15.000000)" id="Group">
                <g>
                    <path d="M279.20399,26.9653484 L279.20399,22.055118 L273.106364,22.055118 L273.106364,14.4213709 L272.901123,14.4845043 L267.173858,16.2367111 L267.061095,16.2711475 L267.061095,22.055118 L258.021531,22.055118 L258.021531,18.8332857 C258.021531,17.3329376 258.357118,16.1847188 259.018162,15.4190146 C259.674818,14.6624259 260.614054,14.2778857 261.811564,14.2778857 C262.672813,14.2778857 263.564446,14.4807906 264.461482,14.8808609 L264.686332,14.9811317 L264.686332,9.80992718 L264.580659,9.77110184 C263.743719,9.47028944 262.604953,9.31870162 261.194072,9.31870162 C259.415531,9.31870162 257.799382,9.70560507 256.39019,10.4726597 C254.979984,11.2407273 253.870591,12.3372914 253.093745,13.7316293 C252.319263,15.1242793 251.926282,16.7326633 251.926282,18.5125543 L251.926282,22.055118 L247.680473,22.055118 L247.680473,26.9653484 L251.926282,26.9653484 L251.926282,47.6511792 L258.021531,47.6511792 L258.021531,26.9653484 L267.061095,26.9653484 L267.061095,40.1109506 C267.061095,45.5248982 269.614793,48.2686717 274.650953,48.2686717 C275.478778,48.2686717 276.349493,48.1714394 277.239087,47.9813638 C278.144239,47.7865616 278.760718,47.5917595 279.123638,47.3837904 L279.20399,47.3365247 L279.20399,42.3807167 L278.956182,42.5447962 C278.625322,42.7655945 278.213435,42.9455417 277.730326,43.0792361 C277.245164,43.2156314 276.840029,43.2841667 276.526401,43.2841667 C275.346434,43.2841667 274.47372,42.9661361 273.931839,42.3388528 C273.384232,41.7058301 273.106391,40.5984625 273.106391,39.0498358 L273.106391,26.9653484 L279.20399,26.9653484 L279.20399,26.9653484 L279.20399,26.9653484 Z M234.068831,43.2846393 C231.856459,43.2846393 230.112355,42.5510083 228.883109,41.1060285 C227.646436,39.6536212 227.019827,37.5830463 227.019827,34.9523728 C227.019827,32.2383091 227.646436,30.1140538 228.883784,28.635988 C230.113705,27.167713 231.841266,26.4226031 234.019202,26.4226031 C236.132654,26.4226031 237.814975,27.1342894 239.019912,28.5390934 C240.231265,29.9509871 240.845719,32.0583619 240.845719,34.8041611 C240.845719,37.5837215 240.267727,39.7187804 239.127948,41.1468795 C237.996272,42.5645127 236.294369,43.2846393 234.068831,43.2846393 L234.068831,43.2846393 L234.068831,43.2846393 Z M234.340271,21.4384357 C230.119444,21.4384357 226.766956,22.6751089 224.377,25.1143563 C221.988394,27.5539413 220.777042,30.9297247 220.777042,35.1492007 C220.777042,39.1566562 221.95936,42.3801765 224.291247,44.7286063 C226.623134,47.0780489 229.796687,48.2681315 233.722778,48.2681315 C237.814299,48.2681315 241.09994,47.0142402 243.489221,44.5412316 C245.878164,42.0705862 247.088504,38.726876 247.088504,34.6059827 C247.088504,30.5357313 245.952777,27.2882405 243.711707,24.9553409 C241.469625,22.6214285 238.315991,21.4384357 234.340271,21.4384357 L234.340271,21.4384357 L234.340271,21.4384357 Z M210.949659,21.4383007 C208.078606,21.4383007 205.703842,22.172607 203.889515,23.6206253 C202.064384,25.0770839 201.138652,26.9876307 201.138652,29.2992608 C201.138652,30.5008222 201.338518,31.5683517 201.731836,32.4734897 C202.127518,33.3820039 202.739946,34.1814693 203.553254,34.8526421 C204.360821,35.5184132 205.60661,36.2159198 207.258208,36.9252428 C208.646132,37.4964825 209.681588,37.9799431 210.339256,38.3607695 C210.98207,38.7338308 211.438522,39.1092555 211.69612,39.4745518 C211.94629,39.832083 212.07357,40.3212829 212.07357,40.9256086 C212.07357,42.645067 210.785918,43.4816698 208.136,43.4816698 C207.153211,43.4816698 206.032001,43.2767392 204.803769,42.8719423 C203.574861,42.4678207 202.426642,41.8867902 201.391523,41.1416803 L201.138652,40.9603826 L201.138652,46.8284185 L201.231495,46.8716329 C202.094094,47.2696775 203.181205,47.6052639 204.462781,47.8696142 C205.741993,48.1339645 206.904053,48.2686717 207.913851,48.2686717 C211.029336,48.2686717 213.538131,47.5306516 215.368664,46.0741931 C217.211013,44.6076061 218.144848,42.6521569 218.144848,40.2601751 C218.144848,38.5349773 217.642144,37.0552235 216.651253,35.8621023 C215.667451,34.6784343 213.959809,33.5919986 211.577618,32.6314922 C209.6799,31.8698393 208.464159,31.2374918 207.962805,30.7523432 C207.479344,30.2834 207.233901,29.6203299 207.233901,28.7806886 C207.233901,28.0362539 207.536739,27.4400309 208.158958,26.9569081 C208.785903,26.4714218 209.658293,26.2246274 210.752831,26.2246274 C211.768369,26.2246274 212.807539,26.3849931 213.840632,26.69931 C214.873387,27.0136269 215.780213,27.4346291 216.537477,27.9498252 L216.786297,28.1199817 L216.786297,22.5534334 L216.690753,22.5122447 C215.992234,22.2127828 215.071228,21.9565353 213.952719,21.7485662 C212.838599,21.5426228 211.828126,21.4383007 210.949659,21.4383007 L210.949659,21.4383007 L210.949659,21.4383007 Z M185.248601,43.2846393 C183.036904,43.2846393 181.292125,42.5510083 180.063217,41.1060285 C178.826206,39.6536212 178.20061,37.5837215 178.20061,34.9523728 C178.20061,32.2383091 178.826881,30.1140538 180.064567,28.635988 C181.293475,27.167713 183.020698,26.4226031 185.199647,26.4226031 C187.312424,26.4226031 188.994745,27.1342894 190.20002,28.5390934 C191.411372,29.9509871 192.025826,32.0583619 192.025826,34.8041611 C192.025826,37.5837215 191.447497,39.7187804 190.307718,41.1468795 C189.176042,42.5645127 187.474815,43.2846393 185.248601,43.2846393 L185.248601,43.2846393 L185.248601,43.2846393 Z M185.520716,21.4384357 C181.298877,21.4384357 177.946389,22.6751089 175.557446,25.1143563 C173.16884,27.5539413 171.956812,30.9297247 171.956812,35.1492007 C171.956812,39.1583443 173.139805,42.3801765 175.471692,44.7286063 C177.803579,47.0780489 180.976795,48.2681315 184.903223,48.2681315 C188.993732,48.2681315 192.280385,47.0142402 194.669666,44.5412316 C197.057935,42.0705862 198.268949,38.726876 198.268949,34.6059827 C198.268949,30.5357313 197.132884,27.2882405 194.891477,24.9553409 C192.648721,22.6214285 189.495761,21.4384357 185.520716,21.4384357 L185.520716,21.4384357 L185.520716,21.4384357 Z M162.704418,26.4876272 L162.704418,22.055118 L156.683444,22.055118 L156.683444,47.650504 L162.704418,47.650504 L162.704418,34.5575692 C162.704418,32.3310174 163.209148,30.5021727 164.205104,29.1206639 C165.188567,27.7556983 166.499178,27.0639311 168.099122,27.0639311 C168.641326,27.0639311 169.250041,27.1533983 169.909397,27.330307 C170.562002,27.5062029 171.034659,27.6969537 171.313526,27.897833 L171.566398,28.0811563 L171.566398,22.0112284 L171.468828,21.9693645 C170.908054,21.7310104 170.115003,21.6108205 169.111282,21.6108205 C167.598443,21.6108205 166.244281,22.0969819 165.084583,23.0541122 C164.066683,23.8954415 163.330688,25.0490621 162.768226,26.4876272 L162.704418,26.4876272 L162.704418,26.4876272 L162.704418,26.4876272 Z M145.901296,21.4383007 C143.139292,21.4383007 140.675398,22.0308099 138.579503,23.1982725 C136.479555,24.3684361 134.855641,26.0392784 133.750637,28.1638713 C132.650697,30.2834 132.092286,32.7591095 132.092286,35.5197637 C132.092286,37.9380791 132.633816,40.1575411 133.704046,42.1133279 C134.774952,44.0724909 136.29083,45.6052499 138.20948,46.6683904 C140.125429,47.7301804 142.339826,48.2686717 144.791565,48.2686717 C147.652828,48.2686717 150.095789,47.6964192 152.054614,46.5684572 L152.133616,46.5228795 L152.133616,41.0069731 L151.880744,41.1916469 C150.9935,41.8378365 150.001933,42.3537077 148.935079,42.7254187 C147.870925,43.096792 146.900628,43.2845043 146.050183,43.2845043 C143.687574,43.2845043 141.791206,42.5451338 140.414425,41.088 C139.034604,39.6285029 138.335072,37.5795351 138.335072,35.0008539 C138.335072,32.4059673 139.064651,30.304332 140.502541,28.753342 C141.935704,27.2070786 143.835785,26.4228057 146.149441,26.4228057 C148.128523,26.4228057 150.056963,27.0929657 151.881419,28.4164051 L152.133616,28.5997285 L152.133616,22.7877362 L152.052251,22.741821 C151.365548,22.3576184 150.42935,22.040263 149.266613,21.7995457 C148.109279,21.5595034 146.977266,21.4383007 145.901296,21.4383007 L145.901296,21.4383007 L145.901296,21.4383007 Z M127.945532,22.0551855 L121.924558,22.0551855 L121.924558,47.6505715 L127.945532,47.6505715 L127.945532,22.0551855 L127.945532,22.0551855 L127.945532,22.0551855 Z M124.99649,11.1513276 C124.005599,11.1513276 123.141312,11.4886021 122.431313,12.1570741 C121.718277,12.8275717 121.356357,13.6716019 121.356357,14.6675576 C121.356357,15.6479831 121.713888,16.4764832 122.419835,17.1290874 C123.121393,17.7796659 123.988381,18.1095129 124.99649,18.1095129 C126.004262,18.1095129 126.874627,17.7796659 127.584625,17.1301003 C128.299349,16.4764832 128.661607,15.6479831 128.661607,14.6675576 C128.661607,13.7063759 128.30914,12.870786 127.613997,12.184083 C126.919867,11.4987304 126.039037,11.1513276 124.99649,11.1513276 L124.99649,11.1513276 L124.99649,11.1513276 Z M109.974135,20.166786 L109.974135,47.6504365 L116.118675,47.6504365 L116.118675,11.9351278 L107.614564,11.9351278 L96.8048995,38.4633361 L86.3149544,11.9351278 L77.4644531,11.9351278 L77.4644531,47.6504365 L83.2386327,47.6504365 L83.2386327,20.1640851 L83.4371487,20.1640851 L94.5142015,47.6504365 L98.8717609,47.6504365 L109.775956,20.166786 L109.974135,20.166786 L109.974135,20.166786 L109.974135,20.166786 Z" id="Shape" fill="#706D6E"></path>
                    <polygon id="Shape" fill="#F1511B" points="28.3236293 28.3236293 0 28.3236293 0 0 28.3236293 0 28.3236293 28.3236293"></polygon>
                    <polygon id="Shape" fill="#80CC28" points="59.5963004 28.3236293 31.2730086 28.3236293 31.2730086 0 59.5963004 0 59.5963004 28.3236293"></polygon>
                    <polygon id="Shape" fill="#00ADEF" points="28.3229541 59.6074413 0 59.6074413 0 31.2838122 28.3229541 31.2838122 28.3229541 59.6074413"></polygon>
                    <polygon id="Shape" fill="#FBBC09" points="59.5963004 59.6074413 31.2730086 59.6074413 31.2730086 31.2838122 59.5963004 31.2838122 59.5963004 59.6074413"></polygon>
                </g>
            </g>
        </g>
    </g>
</svg>