<?xml version="1.0" encoding="UTF-8" standalone="no"?>
<svg width="246px" height="90px" viewBox="0 0 246 90" version="1.1" xmlns="http://www.w3.org/2000/svg" xmlns:xlink="http://www.w3.org/1999/xlink">
    <!-- Generator: Sketch 3.7 (28169) - http://www.bohemiancoding.com/sketch -->
    <title>redhat</title>
    <desc>Created with Sketch.</desc>
    <defs></defs>
    <g id="Logos" stroke="none" stroke-width="1" fill="none" fill-rule="evenodd">
        <g id="redhat" fill="#000000">
            <g transform="translate(0.000000, 5.000000)" id="Group">
                <g>
                    <path d="M246.220183,58.8577982 C246.220183,59.7568807 245.449541,60.4311927 244.550459,60.4311927 C243.715596,60.4311927 242.880734,59.7568807 242.880734,58.8577982 C242.880734,57.9844037 243.715596,57.2266055 244.550459,57.2266055 C245.449541,57.2266055 246.220183,57.9844037 246.220183,58.8577982 L246.220183,58.8577982 Z M246.605505,58.8577982 C246.605505,57.740367 245.706422,56.8605505 244.550459,56.8605505 C243.458716,56.8605505 242.559633,57.740367 242.559633,58.8577982 C242.559633,59.9495413 243.458716,60.8165138 244.550459,60.8165138 C245.706422,60.8165138 246.605505,59.9495413 246.605505,58.8577982 L246.605505,58.8577982 Z M244.550459,58.7293578 C244.87156,58.7293578 245.06422,58.7293578 245.06422,58.4082569 C245.06422,58.1 244.87156,58.1 244.614679,58.1 L244.229358,58.1 L244.229358,58.7293578 L244.550459,58.7293578 Z M244.229358,58.9220183 L244.229358,59.8853211 L243.908257,59.8853211 L243.908257,57.7981651 L244.678899,57.7981651 C245.12844,57.7981651 245.385321,57.9844037 245.385321,58.4082569 C245.385321,58.793578 245.12844,58.9220183 244.87156,58.9220183 L245.449541,59.8853211 L245.12844,59.8853211 L244.550459,58.9220183 L244.229358,58.9220183 L244.229358,58.9220183 Z M230.422018,28.3917431 L230.422018,33.3752294 L225.926606,33.3752294 L225.926606,35.5522936 L230.422018,35.5522936 L230.422018,52.6284404 C230.422018,55.4091743 230.87156,57.740367 232.091743,59.1146789 C233.183486,60.3669725 234.788991,61.0091743 236.715596,61.0091743 C238.449541,61.0091743 239.605505,60.7522936 240.504587,60.3669725 L240.183486,58.3440367 C239.477064,58.6009174 238.513761,58.793578 237.100917,58.793578 C234.211009,58.793578 233.119266,56.6807339 233.119266,53.1743119 L233.119266,35.5522936 L240.761468,35.5522936 L240.761468,33.3752294 L233.119266,33.3752294 L233.119266,27.4027523 L230.422018,28.3917431 Z M219.825688,51.7807339 C219.825688,52.2623853 219.697248,52.8724771 219.504587,53.4119266 C218.605505,56.0770642 215.972477,58.8577982 211.477064,58.8577982 C208.651376,58.8577982 206.082569,57.1623853 206.082569,53.1743119 C206.082569,46.7137615 213.853211,45.8146789 219.825688,45.9880734 L219.825688,51.7807339 Z M222.394495,54.0220183 L222.394495,43.4706422 C222.394495,38.6220183 220.981651,32.7522936 213.082569,32.7522936 C210.642202,32.7522936 207.623853,33.4201835 205.247706,35.0963303 L206.082569,37.0422018 C208.009174,35.6678899 210.449541,35.0256881 212.761468,35.0256881 C219.183486,34.9614679 219.825688,40.3302752 219.825688,43.0082569 L219.825688,43.733945 C208.715596,43.6183486 203.256881,47.3623853 203.256881,53.5981651 C203.256881,57.2844037 205.761468,61.0091743 211.220183,61.0091743 C215.522936,61.0091743 218.541284,58.6651376 219.825688,56.6229358 L219.954128,56.6229358 L220.33945,60.4311927 L222.844037,60.4311927 C222.522936,58.4082569 222.394495,56.1990826 222.394495,54.0220183 L222.394495,54.0220183 Z M198.376147,44.1256881 L198.376147,60.4311927 L195.743119,60.4311927 L195.743119,44.4275229 C195.743119,39.540367 193.880734,35.0963303 188.293578,35.0963303 C184.440367,35.0963303 181.293578,37.8642202 180.137615,41.2293578 C179.816514,42.0321101 179.688073,42.8027523 179.688073,43.9073394 L179.688073,60.4311927 L177.055046,60.4311927 L177.055046,24.7568807 L179.688073,25.553211 L179.688073,38.2174312 L179.880734,38.2174312 C180.587156,36.7146789 181.87156,35.2568807 183.477064,34.312844 C185.082569,33.3559633 186.880734,32.7522936 188.93578,32.7522936 C191.568807,32.7522936 198.376147,34.0366972 198.376147,44.1256881 L198.376147,44.1256881 Z M170.889908,52.8724771 C170.889908,55.653211 170.954128,58.6009174 171.082569,60.4311927 L164.981651,60.4311927 L164.66055,56.1990826 L164.59633,56.1990826 C162.926606,59.2431193 159.715596,61.0091743 155.798165,61.0091743 C149.311927,61.0091743 144.238532,55.5311927 144.238532,47.266055 C144.174312,38.1724771 149.825688,32.7844037 156.311927,32.7844037 C160.036697,32.7844037 162.669725,34.312844 163.889908,36.3100917 L164.082569,36.3100917 L164.082569,21.0449541 L170.889908,22.9715596 L170.889908,52.8724771 Z M164.082569,44.6715596 C164.082569,44.1256881 164.018349,43.4449541 163.889908,42.8862385 C163.247706,40.253211 161.06422,38.0825688 157.981651,38.0825688 C153.614679,38.0825688 151.110092,41.9678899 151.110092,47.0155963 C151.110092,51.9605505 153.614679,55.5954128 157.917431,55.5954128 C160.678899,55.5954128 163.183486,53.6559633 163.825688,50.6889908 C164.018349,50.0917431 164.082569,49.4880734 164.082569,48.7366972 L164.082569,44.6715596 Z M122.981651,44.0100917 C123.302752,41.2293578 125.036697,37.4146789 129.275229,37.4146789 C133.899083,37.4146789 134.990826,41.4990826 134.990826,44.0100917 L122.981651,44.0100917 Z M122.981651,48.7366972 L141.155963,48.8009174 C141.284404,48.1779817 141.412844,47.1761468 141.412844,45.9110092 C141.412844,39.9899083 138.522936,32.7522936 129.724771,32.7522936 C120.990826,32.7522936 116.495413,39.8165138 116.495413,47.2788991 C116.495413,55.5311927 121.633028,60.9449541 130.431193,60.9449541 C134.412844,60.9449541 137.559633,60.206422 139.87156,59.2431193 L138.844037,54.5614679 C136.788991,55.287156 134.541284,55.7752294 131.394495,55.7752294 C127.091743,55.7752294 123.238532,53.6559633 122.981651,48.7495413 L122.981651,48.7366972 Z M99.5412844,60.4311927 L106.412844,60.4311927 L106.412844,46.4376147 C106.412844,45.6990826 106.412844,44.9733945 106.605505,44.3761468 C107.247706,41.2743119 109.431193,39.206422 112.706422,39.206422 C113.541284,39.206422 114.119266,39.2706422 114.761468,39.3926606 L114.761468,32.9449541 C114.247706,32.7972477 113.862385,32.7972477 113.155963,32.7972477 C110.266055,32.7972477 107.119266,34.7431193 105.770642,38.5513761 L105.513761,38.5513761 L105.256881,33.4073394 L99.412844,33.4073394 C99.5412844,35.8220183 99.6055046,38.487156 99.6055046,42.1091743 L99.5412844,60.4311927 Z M81.1100917,58.8577982 C81.1100917,59.7568807 80.3394495,60.4311927 79.440367,60.4311927 C78.5412844,60.4311927 77.8348624,59.7568807 77.8348624,58.8577982 C77.8348624,57.9201835 78.5412844,57.2266055 79.440367,57.2266055 C80.3394495,57.2266055 81.1100917,57.9201835 81.1100917,58.8577982 L81.1100917,58.8577982 Z M81.4311927,58.8577982 C81.4311927,57.740367 80.5321101,56.8605505 79.440367,56.8605505 C78.3486239,56.8605505 77.4495413,57.740367 77.4495413,58.8577982 C77.4495413,59.9495413 78.3486239,60.8165138 79.440367,60.8165138 C80.5321101,60.8165138 81.4311927,59.9495413 81.4311927,58.8577982 L81.4311927,58.8577982 Z M79.440367,58.7293578 C79.6972477,58.7293578 79.9541284,58.6651376 79.9541284,58.4082569 C79.9541284,58.1 79.6972477,58.1 79.5045872,58.1 L79.0550459,58.1 L79.0550459,58.7293578 L79.440367,58.7293578 Z M79.0550459,58.9220183 L79.0550459,59.8853211 L78.733945,59.8853211 L78.733945,57.7981651 L79.5688073,57.7981651 C80.0183486,57.7981651 80.2110092,57.9844037 80.2110092,58.4082569 C80.2110092,58.793578 80.0825688,58.9220183 79.7614679,58.9220183 L80.2752294,59.8853211 L79.9541284,59.8853211 L79.440367,58.9220183 L79.0550459,58.9220183 L79.0550459,58.9220183 Z" id="Shape"></path>
                    <path d="M39.9770642,0.0911926606 C18.1614679,0.0911926606 0.462385321,17.7825688 0.462385321,39.6045872 C0.462385321,44.0229358 1.18807339,48.2614679 2.52385321,52.2045872 L5.27247706,52.2045872 C7.71284404,52.2045872 9.9733945,51.6587156 11.8743119,50.6311927 C12.3559633,50.387156 12.8954128,50.2715596 13.4733945,50.2715596 C14.687156,50.2715596 15.7275229,50.6889908 16.3954128,51.7807339 C16.9605505,52.8082569 17.493578,53.3541284 18.1486239,53.7779817 C18.7073394,54.1376147 19.4844037,54.4458716 20.5825688,54.3816514 C21.1027523,54.3174312 21.8926606,54.259633 22.0853211,53.7137615 C22.3100917,53.1100917 22.0211009,52.5706422 21.2761468,52.2623853 C20.2100917,51.8385321 19.9211009,51.1770642 19.3431193,50.1880734 C18.7844037,49.2376147 17.5513761,48.633945 17.3587156,46.7651376 C17.1724771,44.8963303 18.6366972,42.5458716 21.5201835,43.2972477 C23.6137615,43.8366972 24.9559633,46.4183486 25.4697248,47.3174312 C25.7330275,47.7669725 26.6642202,48.312844 27.4220183,47.612844 C28.1798165,46.9192661 28.8733945,46.9192661 29.4385321,47.8183486 C29.9266055,48.5376147 33.4844037,53.2963303 37.3311927,53.4119266 C41.2422018,53.533945 43.3165138,52.5706422 45.0311927,52.5706422 C46.2256881,52.6348624 46.8036697,53.2321101 47.4844037,53.3541284 C48.6788991,53.533945 49.5330275,52.4486239 50.8366972,52.506422 C51.8834862,52.5706422 53.1165138,53.2963303 54.2724771,53.2963303 C55.4926606,53.2963303 57.9972477,51.8385321 57.9330275,52.4486239 C57.8688073,53.4761468 57.0981651,55.3513761 56.9055046,56.1990826 C56.7770642,56.8027523 56.9055046,58.2220183 56.4559633,59.3715596 C56.1990826,60.559633 55.1073394,62.0366972 54.7862385,62.4220183 C53.8229358,63.8990826 53.1165138,64.3486239 52.3458716,65.8899083 C51.4853211,67.559633 50.033945,69.1651376 49.6807339,69.6788991 C49.1798165,70.3211009 52.4100917,69.6146789 53.566055,68.5229358 C54.4651376,67.6238532 56.1990826,64.8623853 58.8963303,64.2844037 C60.6880734,63.8990826 61.0733945,63.1926606 60.8807339,62.5504587 C60.8165138,62.4862385 60.8165138,62.4220183 60.8165138,62.293578 C60.8165138,62.0366972 60.9449541,61.8440367 61.2018349,61.7798165 C63,60.9449541 65.5688073,60.4954128 68.3944954,60.4954128 C69.9357798,60.4954128 71.7981651,60.7522936 73.146789,61.0091743 C77.1284404,54.9275229 79.440367,47.5165138 79.440367,39.6045872 C79.440367,17.7825688 61.7798165,0.0911926606 39.9770642,0.0911926606 L39.9770642,0.0911926606 Z M45.9110092,8.23944954 C48.6275229,8.13669725 51.2348624,8.91376147 52.859633,10.5899083 C55.1073394,12.9082569 58.2541284,20.0559633 59.7247706,25.4055046 C60.4311927,28.1220183 60.3027523,29.4192661 59.853211,30.3376147 C59.6027523,30.9669725 59.4743119,31.3651376 58.5110092,32.9577982 C58.3183486,33.233945 58.446789,33.5422018 58.8963303,33.3559633 C60.3669725,32.566055 61.587156,31.5321101 62.293578,29.0981651 C68.9724771,30.6073394 72.8899083,34.1073394 72.0550459,38.8275229 C70.1926606,49.1862385 53.1807339,52.6862385 36.6440367,47.7155963 C20.8779817,42.9440367 7.03211009,33.4266055 8.63761468,27.8522936 C9.56880734,24.6155963 14.712844,23.2284404 21.5715596,23.9733945 C20.5311927,26.0862385 20.6082569,28.5844037 25.1486239,31.3587156 C30.6908257,34.5119266 40.0669725,37.2027523 42.6036697,36.9394495 C43.5541284,36.8366972 44.3954128,36.3743119 43.5541284,35.8027523 C42.7,35.2376147 41.9486239,34.1009174 41.4669725,32.1165138 C41.2100917,31.0055046 40.9018349,29.4642202 34.9486239,28.333945 C22.1623853,25.9 22.6504587,22.2844037 23.0357798,20.2036697 C23.0357798,20.2036697 24.166055,15.0981651 24.6348624,13.3 C25.1100917,11.5018349 26.3302752,7.37889908 34.5697248,9.23486239 C39.3284404,10.3073394 41.8908257,8.97155963 43.2009174,8.63761468 C44.1,8.40642202 45.0055046,8.27155963 45.9110092,8.23944954 L45.9110092,8.23944954 Z M46.8807339,10.0761468 C46.3862385,10.0761468 45.8917431,10.0761468 45.3330275,10.146789 C43.8238532,10.3009174 42.5201835,10.6990826 41.6211009,11.1422018 C41.4733945,11.212844 41.4862385,11.4183486 41.6853211,11.3669725 C41.8266055,11.3669725 42.2247706,11.3027523 42.4880734,11.2642202 C44.9412844,11.0201835 47.0027523,11.4247706 47.1055046,12.1761468 C47.1761468,12.7348624 46.1165138,13.3385321 44.5366972,13.6981651 C44.459633,13.6981651 44.4018349,13.7880734 44.4018349,13.8715596 C44.4018349,13.9486239 44.466055,14.0385321 44.5366972,14.0385321 C45.1917431,14.2247706 45.9688073,14.366055 46.7844037,14.366055 C49.2954128,14.4302752 51.3440367,13.5055046 51.4018349,12.3238532 C51.466055,11.1422018 49.4495413,10.1211009 46.893578,10.0761468 L46.8807339,10.0761468 Z M48.5825688,57.3743119 C48.5183486,57.3743119 48.5183486,57.3743119 48.4798165,57.4385321 C47.9917431,58.0422018 47.7733945,58.2220183 47.4009174,58.5366972 C46.5082569,59.2431193 45.493578,58.4082569 44.8385321,58.0422018 C43.387156,57.2266055 42.2183486,57.740367 41.9357798,58.4082569 C41.646789,58.9862385 42,59.8853211 42.7577982,59.7568807 C43.8623853,59.5642202 43.9137615,59.8211009 44.7100917,60.2706422 C46.206422,61.2018349 47.2853211,60.6880734 47.8440367,60.206422 C48.306422,59.8853211 48.5825688,59.5642202 48.7816514,59.1146789 C49.2376147,58.2862385 48.8844037,57.6183486 48.6788991,57.4385321 C48.6788991,57.3743119 48.6146789,57.3743119 48.5825688,57.3743119 L48.5825688,57.3743119 Z" id="Shape"></path>
                </g>
            </g>
        </g>
    </g>
</svg>