<?xml version="1.0" encoding="UTF-8" standalone="no"?>
<svg width="262px" height="90px" viewBox="0 0 262 90" version="1.1" xmlns="http://www.w3.org/2000/svg" xmlns:xlink="http://www.w3.org/1999/xlink">
    <!-- Generator: Sketch 3.7 (28169) - http://www.bohemiancoding.com/sketch -->
    <title>vmware</title>
    <desc>Created with Sketch.</desc>
    <defs></defs>
    <g id="Logos" stroke="none" stroke-width="1" fill="none" fill-rule="evenodd">
        <g id="vmware" fill="#000000">
            <g transform="translate(0.000000, 25.000000)" id="Shape">
                <path d="M258.133333,5.26153846 C258.625641,5.26153846 258.895726,5.00717949 258.895726,4.62051282 L258.895726,4.5965812 C258.895726,4.17264957 258.598291,3.94769231 258.133333,3.94769231 L257.128205,3.94769231 L257.128205,5.25162393 L258.133333,5.26153846 Z M256.639316,3.0591453 L258.184615,3.0591453 C258.77265,3.0591453 259.237607,3.22564103 259.507692,3.52410256 C259.777778,3.77367521 259.924786,4.13435897 259.924786,4.55452991 L259.924786,4.57846154 C259.924786,5.29196581 259.555556,5.72786325 259.015385,5.95623932 C259.015385,5.95623932 259.948718,7.02735043 259.948718,7.1791453 C259.948718,7.45504274 259.702564,7.6382906 259.483761,7.6382906 C259.237607,7.6382906 259.11453,7.52547009 258.991453,7.38188034 L258.010256,6.15384615 L257.22735,6.15384615 L257.22735,7.14188034 C257.22735,7.41880342 256.981197,7.63863248 256.735043,7.63863248 C256.441026,7.63863248 256.222222,7.41777778 256.222222,7.14153846 L256.222222,3.56752137 C256.222222,3.2017094 256.464957,3.05811966 256.639316,3.05811966 L256.639316,3.0591453 Z M261.811966,5.41948718 L261.811966,5.39555556 C261.811966,3.29641026 260.167521,1.57504274 258.010256,1.57504274 C255.876923,1.57504274 254.235897,3.32547009 254.235897,5.40888889 L254.235897,5.43282051 C254.235897,7.52854701 255.852991,9.25025641 258.010256,9.25025641 C260.14359,9.25025641 261.811966,7.49982906 261.811966,5.40923077 L261.811966,5.41948718 Z M253.353846,5.44 L253.353846,5.40923077 C253.353846,2.85675214 255.411966,0.707692308 258.010256,0.707692308 C260.659829,0.707692308 262.694017,2.83555556 262.694017,5.38940171 L262.694017,5.41333333 C262.694017,7.9757265 260.635897,10.1251282 258.010256,10.1251282 C255.388034,10.1251282 253.353846,8.00444444 253.353846,5.44478632 L253.353846,5.44 Z M10.3282051,3.18153846 C9.08991453,0.464957265 6.02735043,-0.766495726 3.16854701,0.505982906 C0.307008547,1.77777778 -0.746666667,4.95042735 0.546324786,7.67179487 L12.5497436,33.7606838 C14.4393162,37.8529915 16.4294017,39.9965812 20.162735,39.9965812 C24.1524786,39.9965812 25.8919658,37.6615385 27.7774359,33.7606838 C27.7774359,33.7606838 38.2499145,10.9617094 38.3524786,10.725812 C38.4516239,10.4830769 38.7969231,9.74632479 39.8601709,9.75213675 C40.762735,9.75213675 41.5217094,10.4789744 41.5217094,11.4410256 L41.5217094,33.7401709 C41.5217094,37.1760684 43.4259829,39.9965812 47.094359,39.9965812 C50.7593162,39.9965812 52.7388034,37.1760684 52.7388034,33.7401709 L52.7388034,15.4974359 C52.7388034,11.9781197 55.2618803,9.6957265 58.6977778,9.6957265 C62.1336752,9.6957265 64.4208547,12.0574359 64.4208547,15.4974359 L64.4208547,33.7401709 C64.4208547,37.1760684 66.3319658,39.9965812 69.9935043,39.9965812 C73.6584615,39.9965812 75.6482051,37.1760684 75.6482051,33.7401709 L75.6482051,15.4974359 C75.6482051,11.9781197 78.1610256,9.6957265 81.6003419,9.6957265 C85.0294017,9.6957265 87.3268376,12.0574359 87.3268376,15.4974359 L87.3268376,33.7401709 C87.3268376,37.1760684 89.2345299,39.9965812 92.8994872,39.9965812 C96.5610256,39.9965812 98.5473504,37.1760684 98.5473504,33.7401709 L98.5473504,12.9767521 C98.5470085,5.34461538 92.4136752,0 85.0290598,0 C77.6547009,0 73.0358974,5.10290598 73.0358974,5.10290598 C70.5811966,1.91897436 67.1965812,0.00478632479 61.4666667,0.00478632479 C55.425641,0.00478632479 50.1367521,5.10290598 50.1367521,5.10290598 C47.6786325,1.91897436 43.4940171,0.00478632479 40.034188,0.00478632479 C34.6769231,0.00478632479 30.4252991,2.36102564 27.8283761,8.29367521 L20.1623932,26.3637607 L10.3282051,3.18119658 L10.3282051,3.18153846 Z M184.451282,25.2447863 L184.451282,21.5873504 C181.668376,20.7825641 177.931624,19.9719658 173.326496,19.9719658 C166.239316,19.9719658 162.283761,23.0512821 162.283761,27.8023932 L162.283761,27.9500855 C162.283761,32.7015385 166.670085,35.4844444 171.794872,35.4844444 C178.738462,35.4844444 184.451282,31.2382906 184.451282,25.2451282 L184.451282,25.2447863 Z M156.577778,28.1729915 L156.577778,28.0259829 C156.577778,20.0533333 163.162393,15.8071795 172.74188,15.8071795 C177.57265,15.8071795 181.008547,16.465641 184.382906,17.4208547 L184.382906,16.0991453 C184.382906,9.2991453 180.201709,5.78358974 173.111111,5.78358974 C169.302564,5.78358974 167.090598,6.26837607 164.307692,7.50769231 C163.94188,7.65470085 163.576068,7.73094017 163.288889,7.73094017 C161.97265,7.73094017 160.796581,6.63008547 160.796581,5.31589744 C160.796581,4.14803419 161.305983,3.42598291 162.338462,2.96957265 C166.05812,1.35350427 168.868376,0.815726496 173.695726,0.815726496 C179.035897,0.815726496 183.131624,2.20034188 185.904274,4.9825641 C188.468376,7.54324786 189.788034,11.2013675 189.788034,16.0287179 L189.788034,36.9022222 C189.788034,38.5090598 188.618803,39.6817094 187.073504,39.6817094 C185.470085,39.6817094 184.382906,38.5090598 184.382906,37.045812 L184.382906,33.4358974 C181.747009,36.8786325 177.350427,39.9487179 170.707692,39.9487179 C163.675214,39.9487179 156.577778,35.9247863 156.577778,28.1750427 L156.577778,28.1729915 Z M247.247863,18.2126496 C246.683761,11.3835897 242.796581,5.43316239 235.391453,5.43316239 C228.919658,5.43316239 224.030769,10.8748718 223.323077,18.2126496 L247.247863,18.2126496 Z M236.25641,39.9316239 C226.047863,39.9316239 217.705983,32.0102564 217.705983,20.3938462 L217.705983,20.2420513 C217.705983,9.42735043 225.25812,0.709401709 235.538462,0.709401709 C246.536752,0.709401709 252.789744,9.78153846 252.789744,19.7364103 C252.789744,21.2639316 251.562393,22.3552137 250.188034,22.3552137 L223.323077,22.3552137 C224.105983,30.4817094 229.784615,35.0594872 236.406838,35.0594872 C241.005128,35.0594872 244.379487,33.2441026 247.11453,30.702906 C247.54188,30.3422222 248.054701,30.0505983 248.694017,30.0505983 C250.041026,30.0505983 251.121368,31.1411966 251.121368,32.4505983 C251.121368,33.1035897 250.851282,33.7565812 250.263248,34.2591453 C246.755556,37.6711111 242.581197,39.9309402 236.25641,39.9309402 L236.25641,39.9316239 Z M196.62906,3.6 C196.62906,2.05333333 197.873504,0.733675214 199.411966,0.733675214 C201.02906,0.733675214 202.276923,1.98051282 202.276923,3.59965812 L202.276923,10.0953846 C205.063248,3.78290598 211.241026,0.806495726 215.336752,0.806495726 C217.02906,0.806495726 218.133333,2.05299145 218.133333,3.66598291 C218.133333,5.20786325 217.107692,6.30358974 215.630769,6.52752137 C208.290598,7.40752137 202.276923,12.9117949 202.276923,23.8495726 L202.276923,36.7145299 C202.276923,38.2529915 201.104274,39.5692308 199.490598,39.5692308 C197.873504,39.5692308 196.62906,38.3179487 196.62906,36.7145299 L196.62906,3.6 L196.62906,3.6 Z M112.813675,37.0700855 L101.316239,5.05128205 C101.169231,4.60854701 100.947009,4.02564103 100.947009,3.51282051 C100.947009,2.12376068 102.123077,0.806837607 103.801709,0.806837607 C105.268376,0.806837607 106.222222,1.75726496 106.663248,3.14632479 L116.188034,30.7350427 L125.781197,3.07008547 C126.218803,1.75726496 127.100855,0.806837607 128.557265,0.806837607 L128.854701,0.806837607 C130.396581,0.806837607 131.350427,1.75726496 131.784615,3.07008547 L141.305983,30.7350427 L150.981197,3.00273504 C151.350427,1.82803419 152.147009,0.806837607 153.692308,0.806837607 C155.302564,0.806837607 156.475214,2.04615385 156.475214,3.44102564 C156.475214,3.95384615 156.252991,4.53435897 156.112821,4.97948718 L144.536752,37.0700855 C143.945299,38.7452991 142.779487,39.6239316 141.45641,39.6239316 L141.237607,39.6239316 C139.77094,39.6239316 138.670085,38.7452991 138.153846,37.0700855 L128.71453,9.86324786 L119.186325,37.0700855 C118.673504,38.7452991 117.57265,39.6239316 116.112821,39.6239316 L115.965812,39.6239316 C114.577778,39.6239316 113.408547,38.7452991 112.820513,37.0700855 L112.813675,37.0700855 Z"></path>
            </g>
        </g>
    </g>
</svg>