<svg xmlns="http://www.w3.org/2000/svg" width="1920" height="720" viewBox="0 0 1920 720" xmlns:xlink="http://www.w3.org/1999/xlink">
  <defs>
    <path id="b" d="M425.148553,2.63597522 C430.589357,0.0755968052 439.409275,0.0749531388 444.851447,2.63597522 L493.148553,25.3640248 C498.589357,27.9244032 498.590725,32.0749531 493.148553,34.6359752 L444.851447,57.3640248 C439.410643,59.9244032 430.590725,59.9250469 425.148553,57.3640248 L376.851447,34.6359752 C371.410643,32.0755968 371.409275,27.9250469 376.851447,25.3640248 L425.148553,2.63597522 Z"/>
    <filter id="a" width="200%" height="200%" x="-50%" y="-50%" filterUnits="objectBoundingBox">
      <feOffset in="SourceAlpha" result="shadowOffsetOuter1"/>
      <feGaussianBlur stdDeviation="30" in="shadowOffsetOuter1" result="shadowBlurOuter1"/>
      <feColorMatrix values="0 0 0 0 0 0 0 0 0 0 0 0 0 0 0 0 0 0 0.3 0" in="shadowBlurOuter1"/>
    </filter>
    <path id="d" d="M200.148553,172.635975 C205.589357,170.075597 214.409275,170.074953 219.851447,172.635975 L268.148553,195.364025 C273.589357,197.924403 273.590725,202.074953 268.148553,204.635975 L219.851447,227.364025 C214.410643,229.924403 205.590725,229.925047 200.148553,227.364025 L151.851447,204.635975 C146.410643,202.075597 146.409275,197.925047 151.851447,195.364025 L200.148553,172.635975 Z"/>
    <filter id="c" width="200%" height="200%" x="-50%" y="-50%" filterUnits="objectBoundingBox">
      <feOffset in="SourceAlpha" result="shadowOffsetOuter1"/>
      <feGaussianBlur stdDeviation="30" in="shadowOffsetOuter1" result="shadowBlurOuter1"/>
      <feColorMatrix values="0 0 0 0 0 0 0 0 0 0 0 0 0 0 0 0 0 0 0.3 0" in="shadowBlurOuter1"/>
    </filter>
    <path id="f" d="M279.148553,68.6359752 C284.589357,66.0755968 293.409275,66.0749531 298.851447,68.6359752 L347.148553,91.3640248 C352.589357,93.9244032 352.590725,98.0749531 347.148553,100.635975 L298.851447,123.364025 C293.410643,125.924403 284.590725,125.925047 279.148553,123.364025 L230.851447,100.635975 C225.410643,98.0755968 225.409275,93.9250469 230.851447,91.3640248 L279.148553,68.6359752 Z"/>
    <filter id="e" width="200%" height="200%" x="-50%" y="-50%" filterUnits="objectBoundingBox">
      <feOffset in="SourceAlpha" result="shadowOffsetOuter1"/>
      <feGaussianBlur stdDeviation="30" in="shadowOffsetOuter1" result="shadowBlurOuter1"/>
      <feColorMatrix values="0 0 0 0 0 0 0 0 0 0 0 0 0 0 0 0 0 0 0.3 0" in="shadowBlurOuter1"/>
    </filter>
    <path id="h" d="M53.1485527,105.635975 C58.5893568,103.075597 67.4092754,103.074953 72.8514473,105.635975 L121.148553,128.364025 C126.589357,130.924403 126.590725,135.074953 121.148553,137.635975 L72.8514473,160.364025 C67.4106432,162.924403 58.5907246,162.925047 53.1485527,160.364025 L4.85144734,137.635975 C-0.589356789,135.075597 -0.59072458,130.925047 4.85144734,128.364025 L53.1485527,105.635975 Z"/>
    <filter id="g" width="200%" height="200%" x="-50%" y="-50%" filterUnits="objectBoundingBox">
      <feOffset in="SourceAlpha" result="shadowOffsetOuter1"/>
      <feGaussianBlur stdDeviation="30" in="shadowOffsetOuter1" result="shadowBlurOuter1"/>
      <feColorMatrix values="0 0 0 0 0 0 0 0 0 0 0 0 0 0 0 0 0 0 0.3 0" in="shadowBlurOuter1"/>
    </filter>
    <linearGradient id="i" x1="10.005%" y1="9.768%" y2="100%">
      <stop stop-color="#BFAEE3" offset="0%"/>
      <stop stop-color="#34215C" offset="100%"/>
    </linearGradient>
    <linearGradient id="j" x1="60.556%" x2="0%" y1="39.261%" y2="100%">
      <stop stop-color="#AC9AD5" offset="0%"/>
      <stop stop-color="#271B43" offset="100%"/>
    </linearGradient>
    <linearGradient id="m" x1="0%" y1="50%" y2="50%">
      <stop stop-color="#957DC8" offset="0%"/>
      <stop stop-color="#8670B3" offset="50.17%"/>
      <stop stop-color="#957DC8" offset="100%"/>
    </linearGradient>
    <path id="l" d="M8.48175143,5.7 L1,5.7 L1,9.49252995 C0.883372165,9.81901224 1.09112985,10.1669489 1.62706191,10.4187253 L9.40519616,14.0728265 C10.2803758,14.4839784 11.714018,14.4866121 12.5948038,14.0728265 L20.3729381,10.4187253 C20.9067893,10.1679265 21.1170824,9.81950627 21,9.49196313 L21,5.7 L13.5182486,5.7 L12.5948038,5.26617353 C11.7196242,4.85502159 10.285982,4.85238785 9.40519616,5.26617353 L8.48175143,5.7 Z"/>
    <filter id="k" width="200%" height="200%" x="-50%" y="-50%" filterUnits="objectBoundingBox">
      <feOffset dy=".5" in="SourceAlpha" result="shadowOffsetOuter1"/>
      <feColorMatrix values="0 0 0 0 0 0 0 0 0 0 0 0 0 0 0 0 0 0 0.34 0" in="shadowOffsetOuter1"/>
    </filter>
    <path id="o" d="M8.48175143,5.7 L1,5.7 L1,9.49252995 C0.883372165,9.81901224 1.09112985,10.1669489 1.62706191,10.4187253 L9.40519616,14.0728265 C10.2803758,14.4839784 11.714018,14.4866121 12.5948038,14.0728265 L20.3729381,10.4187253 C20.9067893,10.1679265 21.1170824,9.81950627 21,9.49196313 L21,5.7 L13.5182486,5.7 L12.5948038,5.26617353 C11.7196242,4.85502159 10.285982,4.85238785 9.40519616,5.26617353 L8.48175143,5.7 Z"/>
    <filter id="n" width="200%" height="200%" x="-50%" y="-50%" filterUnits="objectBoundingBox">
      <feOffset dy=".5" in="SourceAlpha" result="shadowOffsetOuter1"/>
      <feColorMatrix values="0 0 0 0 0 0 0 0 0 0 0 0 0 0 0 0 0 0 0.34 0" in="shadowOffsetOuter1"/>
    </filter>
    <path id="q" d="M8.48175143,5.7 L1,5.7 L1,9.49252995 C0.883372165,9.81901224 1.09112985,10.1669489 1.62706191,10.4187253 L9.40519616,14.0728265 C10.2803758,14.4839784 11.714018,14.4866121 12.5948038,14.0728265 L20.3729381,10.4187253 C20.9067893,10.1679265 21.1170824,9.81950627 21,9.49196313 L21,5.7 L13.5182486,5.7 L12.5948038,5.26617353 C11.7196242,4.85502159 10.285982,4.85238785 9.40519616,5.26617353 L8.48175143,5.7 Z"/>
    <filter id="p" width="200%" height="200%" x="-50%" y="-50%" filterUnits="objectBoundingBox">
      <feOffset dy=".5" in="SourceAlpha" result="shadowOffsetOuter1"/>
      <feColorMatrix values="0 0 0 0 0 0 0 0 0 0 0 0 0 0 0 0 0 0 0.34 0" in="shadowOffsetOuter1"/>
    </filter>
    <path id="s" d="M8.48175143,5.7 L1,5.7 L1,9.49252995 C0.883372165,9.81901224 1.09112985,10.1669489 1.62706191,10.4187253 L9.40519616,14.0728265 C10.2803758,14.4839784 11.714018,14.4866121 12.5948038,14.0728265 L20.3729381,10.4187253 C20.9067893,10.1679265 21.1170824,9.81950627 21,9.49196313 L21,5.7 L13.5182486,5.7 L12.5948038,5.26617353 C11.7196242,4.85502159 10.285982,4.85238785 9.40519616,5.26617353 L8.48175143,5.7 Z"/>
    <filter id="r" width="200%" height="200%" x="-50%" y="-50%" filterUnits="objectBoundingBox">
      <feOffset dy=".5" in="SourceAlpha" result="shadowOffsetOuter1"/>
      <feColorMatrix values="0 0 0 0 0 0 0 0 0 0 0 0 0 0 0 0 0 0 0.34 0" in="shadowOffsetOuter1"/>
    </filter>
    <path id="u" d="M8.48175143,5.7 L1,5.7 L1,9.49252995 C0.883372165,9.81901224 1.09112985,10.1669489 1.62706191,10.4187253 L9.40519616,14.0728265 C10.2803758,14.4839784 11.714018,14.4866121 12.5948038,14.0728265 L20.3729381,10.4187253 C20.9067893,10.1679265 21.1170824,9.81950627 21,9.49196313 L21,5.7 L13.5182486,5.7 L12.5948038,5.26617353 C11.7196242,4.85502159 10.285982,4.85238785 9.40519616,5.26617353 L8.48175143,5.7 Z"/>
    <filter id="t" width="200%" height="200%" x="-50%" y="-50%" filterUnits="objectBoundingBox">
      <feOffset dy=".5" in="SourceAlpha" result="shadowOffsetOuter1"/>
      <feColorMatrix values="0 0 0 0 0 0 0 0 0 0 0 0 0 0 0 0 0 0 0.34 0" in="shadowOffsetOuter1"/>
    </filter>
    <linearGradient id="x" x1="0%" y1="50%" y2="50%">
      <stop stop-color="#7059A2" offset="0%"/>
      <stop stop-color="#634D92" offset="50.17%"/>
      <stop stop-color="#7059A2" offset="100%"/>
    </linearGradient>
    <path id="w" d="M8.48175143,5.7 L1,5.7 L1,9.49252995 C0.883372165,9.81901224 1.09112985,10.1669489 1.62706191,10.4187253 L9.40519616,14.0728265 C10.2803758,14.4839784 11.714018,14.4866121 12.5948038,14.0728265 L20.3729381,10.4187253 C20.9067893,10.1679265 21.1170824,9.81950627 21,9.49196313 L21,5.7 L13.5182486,5.7 L12.5948038,5.26617353 C11.7196242,4.85502159 10.285982,4.85238785 9.40519616,5.26617353 L8.48175143,5.7 Z"/>
    <filter id="v" width="200%" height="200%" x="-50%" y="-50%" filterUnits="objectBoundingBox">
      <feOffset dy=".5" in="SourceAlpha" result="shadowOffsetOuter1"/>
      <feColorMatrix values="0 0 0 0 0 0 0 0 0 0 0 0 0 0 0 0 0 0 0.34 0" in="shadowOffsetOuter1"/>
    </filter>
    <path id="z" d="M8.48175143,5.7 L1,5.7 L1,9.49252995 C0.883372165,9.81901224 1.09112985,10.1669489 1.62706191,10.4187253 L9.40519616,14.0728265 C10.2803758,14.4839784 11.714018,14.4866121 12.5948038,14.0728265 L20.3729381,10.4187253 C20.9067893,10.1679265 21.1170824,9.81950627 21,9.49196313 L21,5.7 L13.5182486,5.7 L12.5948038,5.26617353 C11.7196242,4.85502159 10.285982,4.85238785 9.40519616,5.26617353 L8.48175143,5.7 Z"/>
    <filter id="y" width="200%" height="200%" x="-50%" y="-50%" filterUnits="objectBoundingBox">
      <feOffset dy=".5" in="SourceAlpha" result="shadowOffsetOuter1"/>
      <feColorMatrix values="0 0 0 0 0 0 0 0 0 0 0 0 0 0 0 0 0 0 0.34 0" in="shadowOffsetOuter1"/>
    </filter>
    <path id="B" d="M8.48175143,5.7 L1,5.7 L1,9.49252995 C0.883372165,9.81901224 1.09112985,10.1669489 1.62706191,10.4187253 L9.40519616,14.0728265 C10.2803758,14.4839784 11.714018,14.4866121 12.5948038,14.0728265 L20.3729381,10.4187253 C20.9067893,10.1679265 21.1170824,9.81950627 21,9.49196313 L21,5.7 L13.5182486,5.7 L12.5948038,5.26617353 C11.7196242,4.85502159 10.285982,4.85238785 9.40519616,5.26617353 L8.48175143,5.7 Z"/>
    <filter id="A" width="200%" height="200%" x="-50%" y="-50%" filterUnits="objectBoundingBox">
      <feOffset dy=".5" in="SourceAlpha" result="shadowOffsetOuter1"/>
      <feColorMatrix values="0 0 0 0 0 0 0 0 0 0 0 0 0 0 0 0 0 0 0.34 0" in="shadowOffsetOuter1"/>
    </filter>
    <path id="D" d="M8.48175143,5.7 L1,5.7 L1,9.49252995 C0.883372165,9.81901224 1.09112985,10.1669489 1.62706191,10.4187253 L9.40519616,14.0728265 C10.2803758,14.4839784 11.714018,14.4866121 12.5948038,14.0728265 L20.3729381,10.4187253 C20.9067893,10.1679265 21.1170824,9.81950627 21,9.49196313 L21,5.7 L13.5182486,5.7 L12.5948038,5.26617353 C11.7196242,4.85502159 10.285982,4.85238785 9.40519616,5.26617353 L8.48175143,5.7 Z"/>
    <filter id="C" width="200%" height="200%" x="-50%" y="-50%" filterUnits="objectBoundingBox">
      <feOffset dy=".5" in="SourceAlpha" result="shadowOffsetOuter1"/>
      <feColorMatrix values="0 0 0 0 0 0 0 0 0 0 0 0 0 0 0 0 0 0 0.34 0" in="shadowOffsetOuter1"/>
    </filter>
    <linearGradient id="E" x1="44.616%" x2="0%" y1="55.413%" y2="100%">
      <stop stop-color="#AC9AD5" offset="0%"/>
      <stop stop-color="#24193D" offset="100%"/>
    </linearGradient>
    <path id="G" d="M17,27.6217311 L17,4.7756 L1,4.7756 L1,27.6221816 C0.906697732,27.8816929 1.07290388,28.1582577 1.50164953,28.3583874 L7.72415693,31.2629264 C8.42430066,31.5897391 9.5712144,31.5918326 10.2758431,31.2629264 L16.4983505,28.3583874 C16.9254315,28.1590347 17.0936659,27.8820856 17,27.6217311 Z"/>
    <filter id="F" width="200%" height="200%" x="-50%" y="-50%" filterUnits="objectBoundingBox">
      <feOffset dy=".5" in="SourceAlpha" result="shadowOffsetOuter1"/>
      <feColorMatrix values="0 0 0 0 0 0 0 0 0 0 0 0 0 0 0 0 0 0 0.34 0" in="shadowOffsetOuter1"/>
    </filter>
    <linearGradient id="J" x1="0%" y1="50%" y2="50%">
      <stop stop-color="#846DB4" offset="0%"/>
      <stop stop-color="#735CA4" offset="50.05%"/>
      <stop stop-color="#826CB3" offset="100%"/>
    </linearGradient>
    <path id="I" d="M17,34.5467092 L17,4.8404 L1,4.8404 L1,34.5471675 C0.906697732,34.8111325 1.07290388,35.0924438 1.50164953,35.2960081 L7.72415693,38.2503953 C8.42430066,38.5828169 9.5712144,38.5849463 10.2758431,38.2503953 L16.4983505,35.2960081 C16.9254315,35.0932341 17.0936659,34.811532 17,34.5467092 Z"/>
    <filter id="H" width="200%" height="200%" x="-50%" y="-50%" filterUnits="objectBoundingBox">
      <feOffset dy=".5" in="SourceAlpha" result="shadowOffsetOuter1"/>
      <feColorMatrix values="0 0 0 0 0 0 0 0 0 0 0 0 0 0 0 0 0 0 0.34 0" in="shadowOffsetOuter1"/>
    </filter>
    <path id="L" d="M17,23.6260642 L17,4.7721 L1,4.7721 L1,23.6265143 C0.906697732,23.8857809 1.07290388,24.1620849 1.50164953,24.3620258 L7.72415693,27.2638259 C8.42430066,27.5903305 9.5712144,27.592422 10.2758431,27.2638259 L16.4983505,24.3620258 C16.9254315,24.1628612 17.0936659,23.8861732 17,23.6260642 Z"/>
    <filter id="K" width="200%" height="200%" x="-50%" y="-50%" filterUnits="objectBoundingBox">
      <feOffset dy=".5" in="SourceAlpha" result="shadowOffsetOuter1"/>
      <feColorMatrix values="0 0 0 0 0 0 0 0 0 0 0 0 0 0 0 0 0 0 0.34 0" in="shadowOffsetOuter1"/>
    </filter>
    <path id="N" d="M13.9966335,4 C12.6998482,2.80439726 10.2760588,2 7.5,2 C4.72394116,2 2.30015179,2.80439726 1.00336646,4 L0,4 L0,6 C0,8.209139 3.35786438,10 7.5,10 C11.6421356,10 15,8.209139 15,6 L15,4 L13.9966335,4 Z"/>
    <filter id="M" width="200%" height="200%" x="-50%" y="-50%" filterUnits="objectBoundingBox">
      <feOffset dy=".5" in="SourceAlpha" result="shadowOffsetOuter1"/>
      <feColorMatrix values="0 0 0 0 0 0 0 0 0 0 0 0 0 0 0 0 0 0 0.34 0" in="shadowOffsetOuter1"/>
    </filter>
    <path id="P" d="M13.9966335,4 C12.6998482,2.80439726 10.2760588,2 7.5,2 C4.72394116,2 2.30015179,2.80439726 1.00336646,4 L0,4 L0,6 C0,8.209139 3.35786438,10 7.5,10 C11.6421356,10 15,8.209139 15,6 L15,4 L13.9966335,4 Z"/>
    <filter id="O" width="200%" height="200%" x="-50%" y="-50%" filterUnits="objectBoundingBox">
      <feOffset dy=".5" in="SourceAlpha" result="shadowOffsetOuter1"/>
      <feColorMatrix values="0 0 0 0 0 0 0 0 0 0 0 0 0 0 0 0 0 0 0.34 0" in="shadowOffsetOuter1"/>
    </filter>
    <path id="R" d="M13.9966335,4 C12.6998482,2.80439726 10.2760588,2 7.5,2 C4.72394116,2 2.30015179,2.80439726 1.00336646,4 L0,4 L0,6 C0,8.209139 3.35786438,10 7.5,10 C11.6421356,10 15,8.209139 15,6 L15,4 L13.9966335,4 Z"/>
    <filter id="Q" width="200%" height="200%" x="-50%" y="-50%" filterUnits="objectBoundingBox">
      <feOffset dy=".5" in="SourceAlpha" result="shadowOffsetOuter1"/>
      <feColorMatrix values="0 0 0 0 0 0 0 0 0 0 0 0 0 0 0 0 0 0 0.34 0" in="shadowOffsetOuter1"/>
    </filter>
    <path id="T" d="M13.9966335,4 C12.6998482,2.80439726 10.2760588,2 7.5,2 C4.72394116,2 2.30015179,2.80439726 1.00336646,4 L0,4 L0,6 C0,8.209139 3.35786438,10 7.5,10 C11.6421356,10 15,8.209139 15,6 L15,4 L13.9966335,4 Z"/>
    <filter id="S" width="200%" height="200%" x="-50%" y="-50%" filterUnits="objectBoundingBox">
      <feOffset dy=".5" in="SourceAlpha" result="shadowOffsetOuter1"/>
      <feColorMatrix values="0 0 0 0 0 0 0 0 0 0 0 0 0 0 0 0 0 0 0.34 0" in="shadowOffsetOuter1"/>
    </filter>
    <path id="V" d="M13.9966335,4 C12.6998482,2.80439726 10.2760588,2 7.5,2 C4.72394116,2 2.30015179,2.80439726 1.00336646,4 L0,4 L0,6 C0,8.209139 3.35786438,10 7.5,10 C11.6421356,10 15,8.209139 15,6 L15,4 L13.9966335,4 Z"/>
    <filter id="U" width="200%" height="200%" x="-50%" y="-50%" filterUnits="objectBoundingBox">
      <feOffset dy=".5" in="SourceAlpha" result="shadowOffsetOuter1"/>
      <feColorMatrix values="0 0 0 0 0 0 0 0 0 0 0 0 0 0 0 0 0 0 0.34 0" in="shadowOffsetOuter1"/>
    </filter>
    <path id="X" d="M13.9966335,4 C12.6998482,2.80439726 10.2760588,2 7.5,2 C4.72394116,2 2.30015179,2.80439726 1.00336646,4 L0,4 L0,6 C0,8.209139 3.35786438,10 7.5,10 C11.6421356,10 15,8.209139 15,6 L15,4 L13.9966335,4 Z"/>
    <filter id="W" width="200%" height="200%" x="-50%" y="-50%" filterUnits="objectBoundingBox">
      <feOffset dy=".5" in="SourceAlpha" result="shadowOffsetOuter1"/>
      <feColorMatrix values="0 0 0 0 0 0 0 0 0 0 0 0 0 0 0 0 0 0 0.34 0" in="shadowOffsetOuter1"/>
    </filter>
    <path id="Z" d="M496.974136,103 C496.454123,108.014282 488.157976,112 478,112 C467.842024,112 459.545877,108.014282 459.025864,103 L459,103 L459,95 L466.336678,95 C469.556064,93.7465774 473.60366,93 478,93 C482.39634,93 486.443936,93.7465774 489.663322,95 L497,95 L497,103 L496.974136,103 Z"/>
    <filter id="Y" width="200%" height="200%" x="-50%" y="-50%" filterUnits="objectBoundingBox">
      <feOffset dy=".5" in="SourceAlpha" result="shadowOffsetOuter1"/>
      <feColorMatrix values="0 0 0 0 0 0 0 0 0 0 0 0 0 0 0 0 0 0 0.34 0" in="shadowOffsetOuter1"/>
    </filter>
    <linearGradient id="aa" x1="65.636%" y1="34.749%" y2="0%">
      <stop stop-color="#2C1D4B" offset="0%"/>
      <stop stop-color="#2C1D4B" stop-opacity="0" offset="100%"/>
    </linearGradient>
    <linearGradient id="ab" x1="0%" x2="37.06%" y1="0%" y2="37.235%">
      <stop stop-color="#23193B" stop-opacity="0" offset="0%"/>
      <stop stop-color="#24193B" offset="100%"/>
    </linearGradient>
    <linearGradient id="ac" x1="0%" x2="43.171%" y1="0%" y2="43.274%">
      <stop stop-color="#2C1D4B" stop-opacity="0" offset="0%"/>
      <stop stop-color="#2C1D4B" offset="100%"/>
    </linearGradient>
    <linearGradient id="ad" x1="100%" x2="65.299%" y1="0%" y2="34.741%">
      <stop stop-color="#34215C" stop-opacity="0" offset="0%"/>
      <stop stop-color="#34215C" offset="100%"/>
    </linearGradient>
    <linearGradient id="ae" x1="11.719%" x2="55.596%" y1="86.16%" y2="44.395%">
      <stop stop-color="#34215C" stop-opacity="0" offset="0%"/>
      <stop stop-color="#34215C" offset="100%"/>
    </linearGradient>
    <linearGradient id="af" x1="11.719%" x2="55.596%" y1="86.16%" y2="44.395%">
      <stop stop-color="#221839" stop-opacity="0" offset="0%"/>
      <stop stop-color="#211838" offset="100%"/>
    </linearGradient>
    <linearGradient id="ag" x1="0%" x2="37.034%" y1="100%" y2="62.564%">
      <stop stop-color="#271B43" stop-opacity="0" offset="0%"/>
      <stop stop-color="#271B43" offset="100%"/>
    </linearGradient>
  </defs>
  <g fill="none" fill-rule="evenodd">
    <g transform="translate(754 171)">
      <g fill="black" transform="translate(189 71)">
        <use filter="url(#a)" xlink:href="#b"/>
        <use filter="url(#c)" xlink:href="#d"/>
        <use filter="url(#e)" xlink:href="#f"/>
        <use filter="url(#g)" xlink:href="#h"/>
      </g>
      <path stroke="#AC9AD5" stroke-width="2" d="M409.5,71.5 L552.0042,137.2712" stroke-linecap="square"/>
      <path stroke="url(#i)" stroke-width="2" d="M432.5,220.5 L771.1234,376.7878" stroke-linecap="square"/>
      <ellipse cx="439.791" cy="223.806" fill="#4F3188" transform="rotate(112 439.792 223.807)" rx="1" ry="1.5"/>
      <ellipse cx="454.926" cy="230.903" fill="#4F3188" opacity=".8" transform="rotate(112 454.926 230.903)" rx="1" ry="1.5"/>
      <ellipse cx="471.785" cy="238.638" fill="#4F3188" opacity=".6" transform="rotate(112 471.785 238.639)" rx="1" ry="1.5"/>
      <ellipse cx="488.765" cy="246.489" fill="#4F3188" opacity=".4" transform="rotate(112 488.765 246.49)" rx="1" ry="1.5"/>
      <ellipse cx="506.675" cy="254.695" fill="#4F3188" opacity=".2" transform="rotate(112 506.675 254.695)" rx="1" ry="1.5"/>
      <path fill="#BFAEE3" d="M459.546992,228.906466 C459.46367,228.437223 459.05881,228.0858 458.571922,228.0858 L454.553478,228.0858 C454.013675,228.0858 453.5627,228.533515 453.5627,229.0858 C453.5627,229.641935 454.006286,230.0858 454.553478,230.0858 L457.395487,230.0858 L455.959484,235.845296 C455.826128,236.380155 456.152572,236.921521 456.688451,237.055131 C457.228067,237.189672 457.766793,236.863703 457.900075,236.329139 L459.594716,229.532304 C459.648754,229.315572 459.627293,229.097772 459.546992,228.906466 Z" transform="rotate(69 456.594 232.586)"/>
      <path stroke="url(#j)" stroke-width="2" d="M0,390 L551.7262,137.5488" stroke-linecap="square"/>
      <path stroke="#AC9AD5" stroke-width="2" d="M455.5 104.5L581.7847 46.7087M474 114.9656L603.0126 55.9259" stroke-linecap="square"/>
      <path fill="#AC9AD5" d="M554.81276,76.1870216 L548.062579,76.4227431 C547.511681,76.4419809 547.081267,76.9049994 547.100541,77.4569477 C547.11995,78.0127441 547.581785,78.4407519 548.132378,78.4215248 L553.770794,78.2246269 L553.127629,80.8042177 C552.997039,81.327986 553.322355,81.8738774 553.858234,82.0074872 C554.39785,82.1420285 554.935843,81.8189991 555.068221,81.2880614 L555.973226,77.6582854 C556.056726,77.5057626 556.101573,77.3293859 556.095059,77.1428523 C556.083464,76.8108236 555.913977,76.5243998 555.661999,76.3516858 C555.559621,76.2758867 555.441008,76.2184352 555.309766,76.1857128 C555.139722,76.1433162 554.96984,76.1463566 554.81276,76.1870216 Z" transform="rotate(-178 551.598 79.097)"/>
      <path fill="#AC9AD5" d="M490.81276,164.187022 L484.062579,164.422743 C483.511681,164.441981 483.081267,164.904999 483.100541,165.456948 C483.11995,166.012744 483.581785,166.440752 484.132378,166.421525 L489.770794,166.224627 L489.127629,168.804218 C488.997039,169.327986 489.322355,169.873877 489.858234,170.007487 C490.39785,170.142028 490.935843,169.818999 491.068221,169.288061 L491.973226,165.658285 C492.056726,165.505763 492.101573,165.329386 492.095059,165.142852 C492.083464,164.810824 491.913977,164.5244 491.661999,164.351686 C491.559621,164.275887 491.441008,164.218435 491.309766,164.185713 C491.139722,164.143316 490.96984,164.146357 490.81276,164.187022 Z" transform="rotate(-178 487.598 167.097)"/>
      <path fill="#AC9AD5" d="M354.81276,226.187022 L348.062579,226.422743 C347.511681,226.441981 347.081267,226.904999 347.100541,227.456948 C347.11995,228.012744 347.581785,228.440752 348.132378,228.421525 L353.770794,228.224627 L353.127629,230.804218 C352.997039,231.327986 353.322355,231.873877 353.858234,232.007487 C354.39785,232.142028 354.935843,231.818999 355.068221,231.288061 L355.973226,227.658285 C356.056726,227.505763 356.101573,227.329386 356.095059,227.142852 C356.083464,226.810824 355.913977,226.5244 355.661999,226.351686 C355.559621,226.275887 355.441008,226.218435 355.309766,226.185713 C355.139722,226.143316 354.96984,226.146357 354.81276,226.187022 Z" transform="rotate(-178 351.598 229.097)"/>
      <path fill="#BFAEE3" d="M389.148553,177.635975 C394.589357,175.075597 403.409275,175.074953 408.851447,177.635975 L457.148553,200.364025 C462.589357,202.924403 462.590725,207.074953 457.148553,209.635975 L408.851447,232.364025 C403.410643,234.924403 394.590725,234.925047 389.148553,232.364025 L340.851447,209.635975 C335.410643,207.075597 335.409275,202.925047 340.851447,200.364025 L389.148553,177.635975 Z"/>
      <g transform="translate(388 183)">
        <use fill="black" filter="url(#k)" xlink:href="#l"/>
        <use fill="url(#m)" xlink:href="#l"/>
        <path fill="#7459AD" d="M9.40519616,1.26617353 C10.285982,0.85238785 11.7196242,0.855021585 12.5948038,1.26617353 L20.3729381,4.92027474 C21.2537239,5.33406043 21.2481178,6.00757331 20.3729381,6.41872526 L12.5948038,10.0728265 C11.714018,10.4866121 10.2803758,10.4839784 9.40519616,10.0728265 L1.62706191,6.41872526 C0.746276066,6.00493957 0.751882245,5.33142669 1.62706191,4.92027474 L9.40519616,1.26617353 Z"/>
      </g>
      <g transform="translate(375 189)">
        <use fill="black" filter="url(#n)" xlink:href="#o"/>
        <use fill="url(#m)" xlink:href="#o"/>
        <path fill="#7459AD" d="M9.40519616,1.26617353 C10.285982,0.85238785 11.7196242,0.855021585 12.5948038,1.26617353 L20.3729381,4.92027474 C21.2537239,5.33406043 21.2481178,6.00757331 20.3729381,6.41872526 L12.5948038,10.0728265 C11.714018,10.4866121 10.2803758,10.4839784 9.40519616,10.0728265 L1.62706191,6.41872526 C0.746276066,6.00493957 0.751882245,5.33142669 1.62706191,4.92027474 L9.40519616,1.26617353 Z"/>
      </g>
      <g transform="translate(362 195)">
        <use fill="black" filter="url(#p)" xlink:href="#q"/>
        <use fill="url(#m)" xlink:href="#q"/>
        <path fill="#7459AD" d="M9.40519616,1.26617353 C10.285982,0.85238785 11.7196242,0.855021585 12.5948038,1.26617353 L20.3729381,4.92027474 C21.2537239,5.33406043 21.2481178,6.00757331 20.3729381,6.41872526 L12.5948038,10.0728265 C11.714018,10.4866121 10.2803758,10.4839784 9.40519616,10.0728265 L1.62706191,6.41872526 C0.746276066,6.00493957 0.751882245,5.33142669 1.62706191,4.92027474 L9.40519616,1.26617353 Z"/>
      </g>
      <g transform="translate(401 189)">
        <use fill="black" filter="url(#r)" xlink:href="#s"/>
        <use fill="url(#m)" xlink:href="#s"/>
        <path fill="#7459AD" d="M9.40519616,1.26617353 C10.285982,0.85238785 11.7196242,0.855021585 12.5948038,1.26617353 L20.3729381,4.92027474 C21.2537239,5.33406043 21.2481178,6.00757331 20.3729381,6.41872526 L12.5948038,10.0728265 C11.714018,10.4866121 10.2803758,10.4839784 9.40519616,10.0728265 L1.62706191,6.41872526 C0.746276066,6.00493957 0.751882245,5.33142669 1.62706191,4.92027474 L9.40519616,1.26617353 Z"/>
      </g>
      <g transform="translate(414 195)">
        <use fill="black" filter="url(#t)" xlink:href="#u"/>
        <use fill="url(#m)" xlink:href="#u"/>
        <path fill="#7459AD" d="M9.40519616,1.26617353 C10.285982,0.85238785 11.7196242,0.855021585 12.5948038,1.26617353 L20.3729381,4.92027474 C21.2537239,5.33406043 21.2481178,6.00757331 20.3729381,6.41872526 L12.5948038,10.0728265 C11.714018,10.4866121 10.2803758,10.4839784 9.40519616,10.0728265 L1.62706191,6.41872526 C0.746276066,6.00493957 0.751882245,5.33142669 1.62706191,4.92027474 L9.40519616,1.26617353 Z"/>
      </g>
      <g transform="translate(388 195)">
        <use fill="black" filter="url(#v)" xlink:href="#w"/>
        <use fill="url(#x)" xlink:href="#w"/>
        <path fill="#4F3188" d="M9.40519616,1.26617353 C10.285982,0.85238785 11.7196242,0.855021585 12.5948038,1.26617353 L20.3729381,4.92027474 C21.2537239,5.33406043 21.2481178,6.00757331 20.3729381,6.41872526 L12.5948038,10.0728265 C11.714018,10.4866121 10.2803758,10.4839784 9.40519616,10.0728265 L1.62706191,6.41872526 C0.746276066,6.00493957 0.751882245,5.33142669 1.62706191,4.92027474 L9.40519616,1.26617353 Z"/>
      </g>
      <g transform="translate(401 201)">
        <use fill="black" filter="url(#y)" xlink:href="#z"/>
        <use fill="url(#m)" xlink:href="#z"/>
        <path fill="#7459AD" d="M9.40519616,1.26617353 C10.285982,0.85238785 11.7196242,0.855021585 12.5948038,1.26617353 L20.3729381,4.92027474 C21.2537239,5.33406043 21.2481178,6.00757331 20.3729381,6.41872526 L12.5948038,10.0728265 C11.714018,10.4866121 10.2803758,10.4839784 9.40519616,10.0728265 L1.62706191,6.41872526 C0.746276066,6.00493957 0.751882245,5.33142669 1.62706191,4.92027474 L9.40519616,1.26617353 Z"/>
      </g>
      <g transform="translate(375 201)">
        <use fill="black" filter="url(#A)" xlink:href="#B"/>
        <use fill="url(#m)" xlink:href="#B"/>
        <path fill="#7459AD" d="M9.40519616,1.26617353 C10.285982,0.85238785 11.7196242,0.855021585 12.5948038,1.26617353 L20.3729381,4.92027474 C21.2537239,5.33406043 21.2481178,6.00757331 20.3729381,6.41872526 L12.5948038,10.0728265 C11.714018,10.4866121 10.2803758,10.4839784 9.40519616,10.0728265 L1.62706191,6.41872526 C0.746276066,6.00493957 0.751882245,5.33142669 1.62706191,4.92027474 L9.40519616,1.26617353 Z"/>
      </g>
      <g transform="translate(388 207)">
        <use fill="black" filter="url(#C)" xlink:href="#D"/>
        <use fill="url(#m)" xlink:href="#D"/>
        <path fill="#7459AD" d="M9.40519616,1.26617353 C10.285982,0.85238785 11.7196242,0.855021585 12.5948038,1.26617353 L20.3729381,4.92027474 C21.2537239,5.33406043 21.2481178,6.00757331 20.3729381,6.41872526 L12.5948038,10.0728265 C11.714018,10.4866121 10.2803758,10.4839784 9.40519616,10.0728265 L1.62706191,6.41872526 C0.746276066,6.00493957 0.751882245,5.33142669 1.62706191,4.92027474 L9.40519616,1.26617353 Z"/>
      </g>
      <path stroke="url(#E)" stroke-width="2" d="M10,249.4 L409.4225,71.6624" stroke-linecap="square"/>
      <path fill="#AC9AD5" d="M358.78998 93.0025L351.997545 93.0025C351.446311 93.0025 351 93.4502153 351 94.0025 351 94.5586352 351.446616 95.0025 351.997545 95.0025L357.58528 95.0025 356.925429 97.6490177C356.794839 98.172786 357.120155 98.7186774 357.656034 98.8522872 358.19565 98.9868285 358.733643 98.6637991 358.866021 98.1328614L359.723515 94.6936393C359.89482 94.5140748 360 94.2706091 360 94.0025 360 93.4463648 359.553384 93.0025 359.002455 93.0025L358.93164 93.0025C358.883961 92.9991342 358.836646 92.9991933 358.78998 93.0025zM204.20328 162.0462L197.410845 162.0462C196.859611 162.0462 196.4133 162.493915 196.4133 163.0462 196.4133 163.602335 196.859916 164.0462 197.410845 164.0462L202.99858 164.0462 202.338729 166.692718C202.208139 167.216486 202.533455 167.762377 203.069334 167.895987 203.60895 168.030528 204.146943 167.707499 204.279321 167.176561L205.136815 163.737339C205.30812 163.557775 205.4133 163.314309 205.4133 163.0462 205.4133 162.490065 204.966684 162.0462 204.415755 162.0462L204.34494 162.0462C204.297261 162.042834 204.249946 162.042893 204.20328 162.0462z"/>
      <path fill="#BFAEE3" d="M242.148553 110.635975C247.589357 108.075597 256.409275 108.074953 261.851447 110.635975L310.148553 133.364025C315.589357 135.924403 315.590725 140.074953 310.148553 142.635975L261.851447 165.364025C256.410643 167.924403 247.590725 167.925047 242.148553 165.364025L193.851447 142.635975C188.410643 140.075597 188.409275 135.925047 193.851447 133.364025L242.148553 110.635975zM468.148553 73.6359752C473.589357 71.0755968 482.409275 71.0749531 487.851447 73.6359752L536.148553 96.3640248C541.589357 98.9244032 541.590725 103.074953 536.148553 105.635975L487.851447 128.364025C482.410643 130.924403 473.590725 130.925047 468.148553 128.364025L419.851447 105.635975C414.410643 103.075597 414.409275 98.9250469 419.851447 96.3640248L468.148553 73.6359752zM614.148553 7.63597522C619.589357 5.07559681 628.409275 5.07495314 633.851447 7.63597522L682.148553 30.3640248C687.589357 32.9244032 687.590725 37.0749531 682.148553 39.6359752L633.851447 62.3640248C628.410643 64.9244032 619.590725 64.9250469 614.148553 62.3640248L565.851447 39.6359752C560.410643 37.0755968 560.409275 32.9250469 565.851447 30.3640248L614.148553 7.63597522z"/>
      <g transform="translate(628 1)">
        <use fill="black" filter="url(#F)" xlink:href="#G"/>
        <use fill="url(#m)" xlink:href="#G"/>
        <path fill="#7459AD" d="M7.72415693,1.21157362 C8.4287856,0.882667387 9.57569934,0.884760867 10.2758431,1.21157362 L16.4983505,4.11611259 C17.2029791,4.44501882 17.1984942,4.98037466 16.4983505,5.30718741 L10.2758431,8.21172638 C9.5712144,8.54063261 8.42430066,8.53853913 7.72415693,8.21172638 L1.50164953,5.30718741 C0.797020853,4.97828118 0.801505796,4.44292534 1.50164953,4.11611259 L7.72415693,1.21157362 Z"/>
      </g>
      <g transform="translate(615)">
        <use fill="black" filter="url(#H)" xlink:href="#I"/>
        <use fill="url(#J)" xlink:href="#I"/>
        <path fill="#4F3188" d="M7.72415693,1.21520468 C8.4287856,0.880653704 9.57569934,0.882783112 10.2758431,1.21520468 L16.4983505,4.16959187 C17.2029791,4.50414285 17.1984942,5.04868656 16.4983505,5.38110813 L10.2758431,8.33549532 C9.5712144,8.6700463 8.42430066,8.66791689 7.72415693,8.33549532 L1.50164953,5.38110813 C0.797020853,5.04655715 0.801505796,4.50201344 1.50164953,4.16959187 L7.72415693,1.21520468 Z"/>
      </g>
      <g transform="translate(602 17)">
        <use fill="black" filter="url(#K)" xlink:href="#L"/>
        <use fill="url(#m)" xlink:href="#L"/>
        <path fill="#7459AD" d="M7.72415693,1.21137411 C8.4287856,0.882778029 9.57569934,0.884869535 10.2758431,1.21137411 L16.4983505,4.11317417 C17.2029791,4.44177025 17.1984942,4.97662126 16.4983505,5.30312583 L10.2758431,8.20492589 C9.5712144,8.53352197 8.42430066,8.53143047 7.72415693,8.20492589 L1.50164953,5.30312583 C0.797020853,4.97452975 0.801505796,4.43967874 1.50164953,4.11317417 L7.72415693,1.21137411 Z"/>
      </g>
      <g transform="translate(232 125)">
        <use fill="black" filter="url(#M)" xlink:href="#N"/>
        <use fill="url(#m)" xlink:href="#N"/>
        <ellipse cx="7.5" cy="4" fill="#7459AD" rx="7.5" ry="4"/>
      </g>
      <g transform="translate(219 131)">
        <use fill="black" filter="url(#O)" xlink:href="#P"/>
        <use fill="url(#m)" xlink:href="#P"/>
        <ellipse cx="7.5" cy="4" fill="#7459AD" rx="7.5" ry="4"/>
      </g>
      <g transform="translate(258 125)">
        <use fill="black" filter="url(#Q)" xlink:href="#R"/>
        <use fill="url(#x)" xlink:href="#R"/>
        <ellipse cx="7.5" cy="4" fill="#4F3188" rx="7.5" ry="4"/>
      </g>
      <g transform="translate(245 131)">
        <use fill="black" filter="url(#S)" xlink:href="#T"/>
        <use fill="url(#m)" xlink:href="#T"/>
        <ellipse cx="7.5" cy="4" fill="#7459AD" rx="7.5" ry="4"/>
      </g>
      <g transform="translate(232 137)">
        <use fill="black" filter="url(#U)" xlink:href="#V"/>
        <use fill="url(#m)" xlink:href="#V"/>
        <ellipse cx="7.5" cy="4" fill="#7459AD" rx="7.5" ry="4"/>
      </g>
      <g transform="translate(245 143)">
        <use fill="black" filter="url(#W)" xlink:href="#X"/>
        <use fill="url(#m)" xlink:href="#X"/>
        <ellipse cx="7.5" cy="4" fill="#7459AD" rx="7.5" ry="4"/>
      </g>
      <use fill="black" filter="url(#Y)" xlink:href="#Z"/>
      <use fill="url(#m)" xlink:href="#Z"/>
      <ellipse cx="478" cy="94.5" fill="#7459AD" rx="19" ry="9.5"/>
      <path fill="url(#m)" d="M466.336678,81 L459,81 L459,89 L459.025864,89 C459.545877,94.0142824 467.842024,98 478,98 C488.157976,98 496.454123,94.0142824 496.974136,89 L497,89 L497,81 L489.663322,81 C486.443936,79.7465774 482.39634,79 478,79 C473.60366,79 469.556064,79.7465774 466.336678,81 Z"/>
      <ellipse cx="478" cy="80.5" fill="#6446A5" rx="19" ry="9.5"/>
      <ellipse cx="494.75" cy="88.5" fill="#4F3188" opacity=".4" rx=".75" ry="1.5"/>
      <ellipse cx="492" cy="90.5" fill="#4F3188" opacity=".4" rx="1" ry="1.5"/>
      <ellipse cx="494.75" cy="102.5" fill="#4F3188" opacity=".4" rx=".75" ry="1.5"/>
      <ellipse cx="492" cy="104.5" fill="#4F3188" opacity=".4" rx="1" ry="1.5"/>
      <ellipse cx="208.678" cy="161.057" fill="#4F3188" opacity=".8" transform="rotate(66 208.678 161.057)" rx="1" ry="1.5"/>
      <ellipse cx="199.188" cy="165.179" fill="#4F3188" opacity=".7" transform="rotate(66 199.188 165.18)" rx="1" ry="1.5"/>
      <ellipse cx="191.777" cy="168.524" fill="#4F3188" opacity=".6" transform="rotate(66 191.777 168.524)" rx="1" ry="1.5"/>
      <ellipse cx="182.777" cy="172.524" fill="#4F3188" opacity=".5" transform="rotate(66 182.777 172.524)" rx="1" ry="1.5"/>
      <ellipse cx="172.566" cy="177.085" fill="#4F3188" opacity=".4" transform="rotate(66 172.566 177.085)" rx="1" ry="1.5"/>
      <ellipse cx="162.777" cy="181.524" fill="#4F3188" opacity=".3" transform="rotate(66 162.777 181.524)" rx="1" ry="1.5"/>
      <ellipse cx="152.928" cy="185.689" fill="#4F3188" opacity=".2" transform="rotate(66 152.928 185.689)" rx="1" ry="1.5"/>
      <ellipse cx="215.496" cy="157.937" fill="#4F3188" transform="rotate(66 215.496 157.937)" rx="1" ry="1.5"/>
      <ellipse cx="304.983" cy="118.46" fill="#4F3188" transform="rotate(66 304.983 118.46)" rx="1" ry="1.5"/>
      <ellipse cx="347.484" cy="99.473" fill="#4F3188" transform="rotate(66 347.484 99.473)" rx="1" ry="1.5"/>
      <ellipse cx="389.197" cy="80.864" fill="#4F3188" transform="rotate(66 389.197 80.864)" rx="1" ry="1.5"/>
      <ellipse cx="540.705" cy="142.696" fill="#4F3188" transform="rotate(66 540.705 142.696)" rx="1" ry="1.5"/>
      <ellipse cx="506.454" cy="158.235" fill="#4F3188" transform="rotate(66 506.454 158.235)" rx="1" ry="1.5"/>
      <ellipse cx="469.233" cy="175.394" fill="#4F3188" transform="rotate(66 469.233 175.394)" rx="1" ry="1.5"/>
      <ellipse cx="439.139" cy="188.961" fill="#4F3188" transform="rotate(66 439.139 188.96)" rx="1" ry="1.5"/>
      <ellipse cx="358.971" cy="225.748" fill="#4F3188" transform="rotate(66 358.97 225.748)" rx="1" ry="1.5"/>
      <ellipse cx="341.734" cy="233.727" fill="#4F3188" opacity=".8" transform="rotate(66 341.734 233.728)" rx="1" ry="1.5"/>
      <ellipse cx="327.627" cy="240.111" fill="#4F3188" opacity=".6" transform="rotate(66 327.627 240.111)" rx="1" ry="1.5"/>
      <ellipse cx="311.777" cy="247.315" fill="#4F3188" opacity=".4" transform="rotate(66 311.777 247.315)" rx="1" ry="1.5"/>
      <ellipse cx="294.837" cy="255.141" fill="#4F3188" opacity=".2" transform="rotate(66 294.837 255.14)" rx="1" ry="1.5"/>
      <ellipse cx="514.555" cy="77.417" fill="#4F3188" transform="rotate(66 514.555 77.417)" rx="1" ry="1.5"/>
      <ellipse cx="544.255" cy="82.822" fill="#4F3188" transform="rotate(66 544.255 82.821)" rx="1" ry="1.5"/>
      <ellipse cx="559.688" cy="75.721" fill="#4F3188" transform="rotate(66 559.688 75.72)" rx="1" ry="1.5"/>
      <ellipse cx="577.144" cy="67.702" fill="#4F3188" transform="rotate(66 577.144 67.702)" rx="1" ry="1.5"/>
      <ellipse cx="595.308" cy="59.372" fill="#4F3188" transform="rotate(66 595.309 59.372)" rx="1" ry="1.5"/>
      <ellipse cx="529.777" cy="70.524" fill="#4F3188" transform="rotate(66 529.777 70.524)" rx="1" ry="1.5"/>
      <ellipse cx="547.777" cy="62.304" fill="#4F3188" transform="rotate(66 547.777 62.304)" rx="1" ry="1.5"/>
      <ellipse cx="565.209" cy="54.345" fill="#4F3188" transform="rotate(66 565.209 54.345)" rx="1" ry="1.5"/>
      <ellipse cx="579.69" cy="47.66" fill="#4F3188" transform="rotate(66 579.69 47.66)" rx="1" ry="1.5"/>
      <ellipse cx="424.538" cy="78.641" fill="#4F3188" transform="rotate(112 424.538 78.641)" rx="1" ry="1.5"/>
      <ellipse cx="526.774" cy="125.775" fill="#4F3188" transform="rotate(112 526.774 125.775)" rx="1" ry="1.5"/>
      <path fill="#AC9AD5" d="M562.298141,56.8602333 C562.391174,56.7082144 562.4448,56.5293394 562.4448,56.3379 C562.4448,55.7817648 561.998184,55.3379 561.447255,55.3379 L554.442345,55.3379 C553.891111,55.3379 553.4448,55.7856153 553.4448,56.3379 C553.4448,56.8940352 553.891416,57.3379 554.442345,57.3379 L560.117818,57.3379 L559.453329,60.0030177 C559.322739,60.526786 559.648055,61.0726774 560.183934,61.2062872 C560.72355,61.3408285 561.261543,61.0177991 561.393921,60.4868614 L562.298141,56.8602333 Z"/>
    </g>
    <g transform="translate(1320 136)">
      <circle cx="15" cy="15" r="15" fill="#D2642C"/>
      <path fill="#FFFFFF" d="M20.0821325,19.8064171 C20.0424555,19.7235262 20.0245417,19.6816461 20.0029266,19.6415049 C19.4270186,18.5698654 18.852443,17.4973564 18.2713533,16.4283253 C18.2127262,16.3207991 18.2199806,16.256892 18.3002228,16.1651614 C19.2161978,15.1177226 20.1274353,14.0662261 21.0397091,13.0154542 C21.0716875,12.9786461 21.100557,12.9392294 21.112845,12.8737283 C20.8460619,12.9419828 20.5792788,13.0093678 20.3127918,13.0784918 C19.2059825,13.3655666 18.098877,13.6517719 16.993104,13.9427593 C16.8899143,13.9698583 16.8431311,13.9402958 16.7919064,13.8566804 C16.1634412,12.8290947 15.5314229,11.8036828 14.9001448,10.7776913 C14.8674261,10.7245078 14.8323386,10.6729184 14.762904,10.627995 C14.7121234,10.9017377 14.6604545,11.1753354 14.6107103,11.449223 C14.4348289,12.4160897 14.2595396,13.3831012 14.0842504,14.3502577 C14.0651522,14.4545958 14.0387996,14.5584992 14.0297686,14.6637068 C14.0208857,14.7635526 13.9686247,14.8003608 13.8763906,14.8287639 C12.5719367,15.2295962 11.2688153,15.6343412 9.96569387,16.0386514 C9.90839916,16.0563309 9.85258494,16.0792274 9.79114489,16.13386 C10.8572409,16.548604 11.923337,16.9633481 13.0058664,17.3844683 C12.9664855,17.4150452 12.9408731,17.4385213 12.9120037,17.4569254 C12.2454901,17.87906 11.5779402,18.2994557 10.9130551,18.7237641 C10.8335532,18.774484 10.7703366,18.7817297 10.6809154,18.7423131 C9.88485948,18.3914762 9.08569458,18.0471604 8.28845432,17.698642 C7.93047345,17.5421348 7.60846833,17.3343281 7.35767446,17.0340661 C6.79079739,16.3552887 6.90272193,15.5830416 7.65806452,15.1113463 C7.90530523,14.9570129 8.18585682,14.8410816 8.46581622,14.7518145 C9.74332527,14.3444611 11.0257199,13.9515991 12.3075224,13.5574328 C12.4148574,13.5245373 12.4647497,13.4774403 12.4847362,13.3635378 C12.655436,12.3956568 12.8326498,11.4287901 13.010752,10.4623583 C13.1060951,9.9455947 13.1567276,9.41549906 13.4137395,8.9419199 C13.5123397,8.75990783 13.6306303,8.58151862 13.7712762,8.42892411 C14.2799703,7.87622187 14.9901582,7.85477459 15.5281658,8.3813923 C15.709673,8.55905694 15.865864,8.76874759 16.0007361,8.98380006 C16.5935216,9.92965415 17.1765359,10.8815946 17.7564412,11.8351292 C17.8249876,11.9478723 17.8868718,11.9706238 18.0137492,11.9372936 C19.4430078,11.562256 20.8737469,11.193015 22.304486,10.8230494 C22.5995463,10.7468246 22.8980118,10.7187112 23.2009186,10.7742133 C23.8603259,10.8952166 24.148576,11.3864752 23.9254672,12.0097506 C23.823906,12.294072 23.6487648,12.5339048 23.4517125,12.7605504 C22.4534226,13.9097189 21.4567612,15.0601917 20.4550662,16.2064619 C20.3731955,16.3000764 20.3714189,16.3680411 20.4281214,16.4725241 C21.0256445,17.5750303 21.6179859,18.680145 22.212548,19.7842452 C22.3548224,20.0485685 22.4633418,20.3227459 22.4665989,20.6261959 C22.4737052,21.3164216 21.9580529,21.8811517 21.2573401,21.9817221 C20.864864,22.0380937 20.500221,21.9560723 20.1324689,21.8449232 C19.2363324,21.573789 18.3385673,21.3071471 17.440358,21.042679 C17.3571549,21.0183334 17.3253245,20.9864523 17.3106677,20.8986344 C17.20733,20.2799962 17.0946652,19.6626623 16.9857016,19.0447488 C16.9825926,19.0277938 16.9877743,19.0093897 16.9904392,18.9715672 C18.013009,19.2477734 19.0266959,19.5213711 20.0821325,19.8064171"/>
      <rect width="1" height="41" x="15" y="26" fill="#D2642C"/>
      <circle cx="15.5" cy="67.5" r="1.5" fill="#D2642C"/>
    </g>
    <g transform="translate(945 241)">
      <circle cx="15" cy="15" r="15" fill="#E8DEFB"/>
      <path fill="#000000" d="M19.0950938,16.3081276 C18.5260547,16.3081276 18.0159023,16.5669175 17.6665547,16.9743556 L16.7713711,16.323826 C16.8663984,16.0552562 16.9209609,15.7668737 16.9209609,15.4650303 C16.9209609,15.1684198 16.8682969,14.8848732 16.7763984,14.620273 L17.6695781,13.9766364 C18.0188906,14.3820174 18.527707,14.6393999 19.0950938,14.6393999 C20.1453867,14.6393999 21,13.7622713 21,12.6839859 C21,11.6057005 20.1453867,10.7285719 19.0950938,10.7285719 C18.0448008,10.7285719 17.1901875,11.6057005 17.1901875,12.6839859 C17.1901875,12.8769867 17.2185938,13.0630946 17.2695703,13.2393503 L16.375793,13.8833118 C16.0024336,13.4078471 15.4648594,13.0758699 14.8523672,12.9745336 L14.8523672,11.868785 C15.7152422,11.6827493 16.3653867,10.8957695 16.3653867,9.95541398 C16.3653867,8.87712861 15.5107734,8 14.4604805,8 C13.4101875,8 12.5555742,8.87712861 12.5555742,9.95541398 C12.5555742,10.8831746 13.1888789,11.6604466 14.0344922,11.8597629 L14.0344922,12.9798747 C12.8804531,13.1878161 12,14.2216766 12,15.4650303 C12,16.7144469 12.8891719,17.7520967 14.051543,17.9529648 L14.051543,19.1357261 C13.1972812,19.3284742 12.5555742,20.1105099 12.5555742,21.044586 C12.5555742,22.1228714 13.4101875,23 14.4604805,23 C15.5107734,23 16.3653867,22.1228714 16.3653867,21.044586 C16.3653867,20.1105099 15.7236797,19.3284742 14.869418,19.1357261 L14.869418,17.9529287 C15.4698516,17.8491384 15.9975469,17.5237293 16.3670742,17.0588024 L17.2682344,17.7135543 C17.218207,17.8882222 17.1901875,18.0724896 17.1901875,18.2635416 C17.1901875,19.3418269 18.0448008,20.2189556 19.0950938,20.2189556 C20.1453867,20.2189556 21,19.3418269 21,18.2635416 C21,17.1852562 20.1453867,16.3081276 19.0950938,16.3081276 L19.0950938,16.3081276 Z M19.09515,11.7359 C19.604456,11.7359 20.0187,12.1613166 20.0187,12.683993 C20.0187,13.2066694 19.604456,13.63205 19.09515,13.63205 C18.585844,13.63205 18.1716,13.2066694 18.1716,12.683993 C18.1716,12.1613166 18.585844,11.7359 19.09515,11.7359 L19.09515,11.7359 Z M13.5369,9.955475 C13.5369,9.43278866 13.9511713,9.0074 14.4604676,9.0074 C14.9697639,9.0074 15.384,9.43278866 15.384,9.955475 C15.384,10.4781613 14.9697639,10.90355 14.4604676,10.90355 C13.9511713,10.90355 13.5369,10.4781613 13.5369,9.955475 L13.5369,9.955475 Z M15.384,21.044675 C15.384,21.5673613 14.9697639,21.99275 14.4604676,21.99275 C13.9511713,21.99275 13.5369,21.5673613 13.5369,21.044675 C13.5369,20.5219887 13.9511713,20.0966 14.4604676,20.0966 C14.9697639,20.0966 15.384,20.5219887 15.384,21.044675 L15.384,21.044675 Z M14.4604676,16.78715 C13.7501233,16.78715 13.17225,16.1940862 13.17225,15.4649722 C13.17225,14.735822 13.7501233,14.14265 14.4604676,14.14265 C15.1707767,14.14265 15.74865,14.735822 15.74865,15.4649722 C15.74865,16.1940862 15.1707767,16.78715 14.4604676,16.78715 L14.4604676,16.78715 Z M19.09515,19.2116 C18.585844,19.2116 18.1716,18.7861834 18.1716,18.263507 C18.1716,17.7408306 18.585844,17.31545 19.09515,17.31545 C19.604456,17.31545 20.0187,17.7408306 20.0187,18.263507 C20.0187,18.7861834 19.604456,19.2116 19.09515,19.2116 L19.09515,19.2116 Z"/>
      <rect width="1" height="41" x="15" y="26" fill="#E8DEFB"/>
      <circle cx="15.5" cy="67.5" r="1.5" fill="#E8DEFB"/>
    </g>
    <g transform="translate(1170 204)">
      <circle cx="15" cy="15" r="15" fill="#1287B1"/>
      <g transform="translate(6 10)">
        <path fill="#BBE6FB" d="M15.9301971,3.68009969 C16.0774831,5.45142037 13.4030799,7.14185883 9.95348745,7.44921128 C6.50389498,7.75656372 3.59693504,6.56759505 3.44964906,4.79627436 C3.30236309,3.02495368 5.97676624,1.33451522 9.42635871,1.02716278 C12.8681993,0.71981033 15.7829111,1.90069078 15.9301971,3.68009969"/>
        <path fill="#FFFFFF" d="M9.51940233,1.22947486 C8.20158194,1.20520996 6.66670878,1.75521436 5.51942985,2.26477726 C5.40315158,2.62066246 5.33338462,3.00081256 5.33338462,3.39713926 C5.33338462,5.50009727 7.15507751,7.20672857 9.40312406,7.20672857 C11.6511706,7.20672857 13.4806154,5.50818557 13.4806154,3.39713926 C13.4806154,2.73389866 13.2945702,2.10301126 12.9767429,1.56109516 C12.0620205,1.41550576 10.7984633,1.25373976 9.51940233,1.22947486"/>
        <path fill="#FFFFFF" d="M9.41095212,1.22944587 C8.68226191,1.18091685 7.42643409,1.57723718 6.37991091,1.9735575 C6.21711841,2.36178965 6.13184615,2.79046265 6.13184615,3.24340016 C6.13184615,5.08750287 7.73651503,6.58381429 9.42645617,6.58381429 C11.1086453,6.58381429 12.5970338,5.08750287 12.7210662,3.24340016 C12.7598263,2.64487559 12.5660257,2.0787037 12.2869529,1.59341351 C11.2094216,1.39929744 10.0621221,1.27797489 9.41095212,1.22944587"/>
        <path fill="#373535" d="M7.54258355,3.00881657 C7.63560812,2.79851717 7.76739292,2.7014559 7.89917772,2.53159868 C7.88367362,2.49115649 7.85266544,2.35365303 7.85266544,2.31321084 C7.85266544,2.10291143 8.01545842,1.94114265 8.2092596,1.94114265 C8.25577188,1.94114265 8.30228417,1.94923109 8.3410444,1.96540797 C8.93795202,1.48819007 9.72090878,1.2859791 10.5116176,1.4720132 C10.581386,1.48819007 10.6511544,1.51245539 10.7209228,1.52863227 C9.94571814,1.41539412 9.06198478,1.70657792 8.46507715,2.20806113 C8.48058125,2.25659176 8.53484558,2.37791835 8.53484558,2.43453742 C8.53484558,2.64483683 8.40306078,2.69336746 8.2092596,2.69336746 C8.16274732,2.69336746 8.12398708,2.68527902 8.0774748,2.66910214 C7.94569,2.85513624 7.77514497,3.21911598 7.6976245,3.44559227 C8.03096252,3.75295295 8.32554031,3.86619109 8.71314266,4.01987143 C8.71314266,4.00369455 8.72864675,3.97942923 8.72864675,3.96325236 C8.72864675,3.34044257 9.25578595,2.83087092 9.85269358,2.83087092 C10.3875848,2.83087092 10.8372036,3.23529286 10.9224761,3.76912982 C11.1937977,3.59118417 11.4496153,3.45368071 11.6434164,3.19485066 C11.5969042,3.1382316 11.5503919,2.96837438 11.5503919,2.88748999 C11.5503919,2.7014559 11.6976808,2.54777556 11.8759779,2.54777556 C11.899234,2.54777556 11.9224901,2.54777556 11.9534983,2.555864 C12.0542749,2.33747615 12.1317954,2.11099986 12.1783077,1.87643514 C11.24031,1.14847564 9.42633099,1.25362535 9.42633099,1.25362535 C9.42633099,1.25362535 7.98445024,1.17274096 7.00769231,1.67422417 C7.07746073,2.14335362 7.26350986,2.61248307 7.54258355,3.00881657"/>
        <path fill="#373535" d="M12.0232713 2.72579734C12.0930364 2.79050302 12.1240432 2.83903227 12.1550499 2.89564974 12.2403185 3.05741392 12.0697814 3.2110899 11.8837409 3.2110899 11.8682375 3.2110899 11.8449825 3.2110899 11.8294791 3.20300169 11.6279352 3.53461827 11.2713576 3.95520515 10.9535385 4.1735868 11.4418947 4.25446889 11.8992443 4.45667412 12.2558219 4.77211429 12.5193792 4.27873352 12.7209231 3.5588829 12.7209231 2.9522672 12.7209231 2.49123928 12.5271309 2.15153448 12.2325668 1.9008 12.2248151 2.15153448 12.0930364 2.49932748 12.0232713 2.72579734M8.08523784 5.86394286C8.24803 5.3948157 8.64338239 5.03892614 9.02323077 4.72347857 8.96896672 4.64259458 8.88369463 4.448473 8.8526866 4.35950061 8.39531815 4.21390942 7.99221374 3.93890385 7.67438143 3.58301429 7.67438143 3.59110268 7.66662942 3.60727948 7.66662942 3.61536788 7.60461336 3.89037345 7.59686135 4.17346743 7.62786938 4.4403846 7.8449256 4.4808266 8.01546977 4.68303658 8.01546977 4.92568855 8.01546977 5.07127974 7.89143764 5.27348972 7.79841355 5.37055051 7.89143764 5.58084889 7.96120571 5.69408647 8.08523784 5.86394286"/>
        <path fill="#373535" d="M8.05430769 6.25216899C7.86051117 6.04996514 7.72872953 5.6536456 7.60469975 5.40291283 7.58144417 5.40291283 7.55818859 5.41100098 7.534933 5.41100098 7.27136973 5.41100098 7.00005459 5.18453267 7.06206947 4.91762359 7.09307692 4.77203682 7.19385112 4.67497897 7.34888834 4.59409743 7.31012903 4.28674759 7.30237717 3.85807543 7.37214392 3.54263742 7.38764764 3.45366773 7.43415881 3.41322696 7.45741439 3.32425727 7.17059553 2.88749696 6.98455087 2.30514987 6.98455087 1.73089095L6.98455087 1.66618571C6.49618362 1.92500664 6.13184615 2.32132618 6.13184615 2.95220219 6.13184615 4.35145282 6.90703226 5.72643898 8.05430769 6.26025714L8.05430769 6.25216899M10.8837501 4.31907143C10.736464 4.75582661 10.3333652 5.07934896 9.86049924 5.07934896 9.60468653 5.07934896 9.37212952 4.99038032 9.19383582 4.8367072 8.8139927 5.14405344 8.46515719 5.68595338 8.29461538 6.16314885 8.37213439 6.2521175 8.42639769 6.32491003 8.51942049 6.40579062 8.7829851 6.47858315 9.15507631 6.40579062 9.44189663 6.40579062 10.5969298 6.40579062 11.6279325 5.87197874 12.2170769 4.92567585 11.8139781 4.63450573 11.3488641 4.35951172 10.8837501 4.31907143"/>
        <path fill="#1287B1" d="M7.51169484,3.17058189 C7.60471941,2.96028248 7.71324807,2.77424839 7.84503287,2.59630273 C7.82952877,2.55586054 7.82177673,2.50732991 7.82177673,2.46688771 C7.82177673,2.2565883 7.98456972,2.09481953 8.17837089,2.09481953 C8.22488317,2.09481953 8.27139546,2.10290797 8.31015569,2.11908484 C8.90706331,1.64186695 9.69002007,1.43965598 10.4807289,1.62569007 C10.5504973,1.64186695 10.6202657,1.66613227 10.6900341,1.68230915 C9.91482943,1.569071 9.10861654,1.81981261 8.51170891,2.32129581 C8.52721301,2.36982645 8.5427171,2.41835708 8.5427171,2.46688771 C8.5427171,2.67718712 8.37992419,2.8389559 8.18612294,2.8389559 C8.13961066,2.8389559 8.10085042,2.83086746 8.05433814,2.81469058 C7.92255334,3.00072468 7.80627263,3.21102409 7.72875216,3.43750037 C8.0155779,3.75294949 8.36442002,4.01177953 8.75202237,4.15737143 L8.75202237,4.10075236 C8.75202237,3.47794257 9.24040134,2.96837092 9.83730896,2.96837092 C10.3722002,2.96837092 10.8218189,3.37279286 10.9070915,3.90662982 C11.1784131,3.72868417 11.4109745,3.50220788 11.6125277,3.2352894 C11.5660155,3.17867033 11.5350073,3.10587438 11.5350073,3.02498999 C11.5350073,2.8389559 11.6822962,2.68527556 11.8605932,2.68527556 C11.8838494,2.68527556 11.9071055,2.68527556 11.9381137,2.693364 C12.0388903,2.47497615 12.1164108,2.24849986 12.1629231,2.01393514 C11.2249254,1.28597564 9.41094637,1.39112535 9.41094637,1.39112535 C9.41094637,1.39112535 7.96906562,1.31024096 6.99230769,1.81172417 C7.04657202,2.30511894 7.23262115,2.77424839 7.51169484,3.17058189"/>
        <path fill="#1287B1" d="M12.0696598 2.78237003C12.1394241 2.84707745 12.1781821 2.93605015 12.1781821 3.03311128 12.1781821 3.2191451 12.0309019 3.37282522 11.8526154 3.37282522 11.8371122 3.37282522 11.8138574 3.37282522 11.7983543 3.3647368 11.596813 3.69636231 11.3255074 3.97945727 11.0076923 4.18975638 11.4727876 4.26255223 11.9146281 4.47285134 12.2789527 4.7883 12.5425067 4.29490593 12.6975385 3.7206276 12.6975385 3.11399555 12.6975385 2.65295519 12.5037488 2.31324125 12.2091884 2.0625 12.1936853 2.31324125 12.1471757 2.55589407 12.0696598 2.78237003M8.13183114 5.96907143C8.29462221 5.4999499 8.57369262 5.08744648 8.95353846 4.77200269 8.89927477 4.69111967 8.85276304 4.61023665 8.82175521 4.51317702 8.36438982 4.36758758 7.96128811 4.0925853 7.64345792 3.7367 7.64345792 3.7447883 7.63570597 3.76096491 7.63570597 3.76905321 7.57369032 4.04405549 7.56593836 4.32714607 7.59694619 4.59406004 7.81400095 4.63450155 7.98454398 4.83670911 7.98454398 5.07935818 7.98454398 5.22494762 7.92252833 5.35436046 7.82950486 5.44333178 7.90702442 5.62936273 8.0155518 5.80730538 8.13183114 5.96907143"/>
        <path fill="#1287B1" d="M8.05430769 6.2439976C7.86050427 6.04179467 7.6977094 5.8153274 7.57367521 5.56459577 7.5504188 5.56459577 7.52716239 5.57268389 7.50390598 5.57268389 7.24033333 5.57268389 7.03102564 5.35430473 7.03102564 5.07930875 7.03102564 4.88519394 7.13955556 4.71534348 7.29459829 4.63446231 7.25583761 4.32711387 7.27134188 4.01976542 7.34111111 3.70432886 7.35661538 3.61535957 7.38762393 3.52639028 7.41088034 3.437421 7.12405128 3.00066268 6.95350427 2.46684696 6.95350427 1.89259065L6.95350427 1.82788571C6.46511966 2.08670546 6.10076923 2.48302319 6.10076923 3.11389632 6.10076923 4.51314056 6.89923932 5.71826999 8.04655556 6.25208571 8.05430769 6.25208571 8.05430769 6.25208571 8.05430769 6.2439976M10.8527047 4.48092857C10.7054194 4.91767973 10.3023226 5.24119911 9.82945906 5.24119911 9.57364764 5.24119911 9.34109181 5.15223128 9.16279901 4.99855958 8.78295782 5.30590299 8.49613896 5.72647818 8.31784615 6.20366927 8.39536476 6.2926371 8.48063524 6.37351694 8.56590571 6.45439679 8.82946898 6.52718865 9.10853598 6.56762857 9.39535484 6.56762857 10.5503821 6.56762857 11.5736278 5.94485377 12.1627692 4.99855958 11.7751762 4.70739214 11.3178164 4.52136849 10.8527047 4.48092857"/>
        <polygon fill="#FFFFFF" points="10.892 4.19 11.892 3.939 10.884 3.882 11.705 3.235 10.775 3.583 11.403 2.669 10.527 3.276 10.83 2.208 10.233 3.09 10.217 1.973 9.822 2.968 9.496 1.965 9.512 3.146 8.946 2.087 9.256 3.211 8.333 2.515 9.054 3.462 7.907 3.025 8.806 3.721 7.651 3.761 8.837 4.076 7.651 4.343 8.822 4.432 7.837 5.087 8.853 4.707 8.147 5.638 9.039 4.885 8.721 6.131 9.411 5.112 9.318 6.309 9.705 5.217 10.039 6.357 10.116 5.209 10.612 6.188 10.318 5.071 11.217 5.799 10.636 4.869 11.628 5.274 10.868 4.497 11.884 4.578"/>
        <path fill="#373535" fill-opacity=".35" d="M0.217076923,6.1875 C3.32560235,2.94410756 5.80622115,1.94116327 8.06203386,1.48822068 C8.35660735,1.43160286 8.41862282,0.744100719 8.41862282,0.744100719 C8.41862282,0.744100719 8.45738248,1.24557287 8.66668469,1.31027895 C8.87598691,1.37498503 9.14730459,0.525717687 9.14730459,0.525717687 C9.14730459,0.525717687 8.89924271,1.28601417 9.14730459,1.33454373 C9.39536647,1.37498503 9.86048249,0.590423771 9.86048249,0.590423771 C9.86048249,0.590423771 9.67443608,1.26174939 9.79846702,1.31027895 C9.92249796,1.35072025 10.5504046,0.331599436 10.5504046,0.331599436 C10.5504046,0.331599436 10.1783118,1.00292505 10.5271488,1.0757194 C10.8837377,1.14042548 11.4031173,0.614688552 11.4031173,0.614688552 C11.4031173,0.614688552 11.0000167,1.09189592 11.1783112,1.16469026 C11.9535046,1.44777938 12.5736593,0.40439378 12.5736593,0.40439378 C12.5736593,0.40439378 12.4263726,0.865424626 12.0542797,1.36689677 C12.8682328,1.58527981 13.4728836,0.307334655 13.4728836,0.307334655 L12.8682328,1.58527981 C13.1783101,1.74704501 14.4263715,0.242628571 14.4263715,0.242628571 C14.4263715,0.242628571 13.782961,1.41542634 13.4031162,1.65807415 C13.6124184,1.83601588 14.364356,1.13233722 14.364356,1.13233722 C14.364356,1.13233722 13.7597052,1.91689848 13.9922632,1.95733979 C14.3255963,2.2404289 15.5581538,0.501452906 15.5581538,0.501452906 C15.5581538,0.501452906 15.0775339,1.52866198 14.3721079,2.32939977 C14.9612549,2.64484192 16.4341223,0.663218115 16.4341223,0.663218115 C16.4341223,0.663218115 16.3953626,1.29410243 15.3255958,2.29704672 C16.116293,2.19189934 17.1395483,0.622776812 17.1395483,0.622776812 C17.1395483,0.622776812 16.7674554,1.79557458 15.8682311,2.6286654 C16.6434245,2.5477828 17.8914858,0.541894208 17.8914858,0.541894208 C17.8914858,0.541894208 17.4108659,1.933075 16.4341223,2.74190105 C17.519393,2.99263712 19.0852836,1.30219069 19.0852836,1.30219069 C19.0852836,1.30219069 18.4728809,2.49925324 17.6666798,2.99263712 C18.5659041,3.34852058 19.7984615,1.86836892 19.7984615,1.86836892 C19.7984615,1.86836892 18.5659041,3.84999273 16.6046648,3.76102187 C15.9612543,3.72866882 14.015519,1.72278023 9.84497862,1.88454544 C4.3256018,2.09484021 3.16281174,4.53749487 0.217076923,6.1875"/>
        <path fill="#373535" d="M0.341076923,5.94487143 C3.44959289,2.70148402 5.93020413,1.69854128 8.18600998,1.2455994 C8.48058257,1.18898166 8.54259785,0.501480589 8.54259785,0.501480589 C8.54259785,0.501480589 8.5813574,1.00295196 8.79065898,1.06765794 C8.99996055,1.13236393 9.2712774,0.283097895 9.2712774,0.283097895 C9.2712774,0.283097895 9.02321628,1.0433932 9.2712774,1.09192269 C9.51933853,1.13236393 9.98445314,0.347803878 9.98445314,0.347803878 C9.98445314,0.347803878 9.79840729,1.01912845 9.92243786,1.06765794 C10.0464684,1.10809918 10.6743731,0.0889799454 10.6743731,0.0889799454 C10.6743731,0.0889799454 10.3022815,0.760304522 10.6511174,0.833098753 C11.0077053,0.897804736 11.5270833,0.372068622 11.5270833,0.372068622 C11.5270833,0.372068622 11.1239839,0.849275248 11.3022779,0.92206948 C12.0774689,1.20515816 12.6976217,0.161774177 12.6976217,0.161774177 C12.6976217,0.161774177 12.5503354,0.622804307 12.1782437,1.12427568 C12.9921943,1.34265837 13.5968433,0.0647152017 13.5968433,0.0647152017 L12.9921943,1.34265837 C13.3022707,1.52059982 14.5580801,0.0161857143 14.5580801,0.0161857143 C14.5580801,0.0161857143 13.9146716,1.18898166 13.534828,1.4316291 C13.7441296,1.58530581 14.4960648,0.889716488 14.4960648,0.889716488 C14.4960648,0.889716488 13.8914158,1.67427653 14.1239732,1.71471777 C14.4573053,1.99780645 15.689859,0.258833151 15.689859,0.258833151 C15.689859,0.258833151 15.2014887,1.28604064 14.4960648,2.08677718 C15.08521,2.3941306 16.5658248,0.412509862 16.5658248,0.412509862 C16.5658248,0.412509862 16.5270653,1.0433932 15.4573017,2.04633594 C16.2479965,1.94118872 17.2712487,0.372068622 17.2712487,0.372068622 C17.2712487,0.372068622 16.899157,1.54486457 15.9999354,2.3779541 C16.7751264,2.29707162 18.023184,0.291186143 18.023184,0.291186143 C18.023184,0.291186143 17.5425655,1.68236478 16.5658248,2.49118957 C17.6510923,2.74192526 19.2169781,1.05148145 19.2169781,1.05148145 C19.2169781,1.05148145 18.6045772,2.24854214 17.7983786,2.74192526 C18.6976001,3.09780817 19.9301538,1.6176588 19.9301538,1.6176588 C19.9301538,1.6176588 18.6976001,3.59927954 16.7363669,3.51030881 C16.0929583,3.47795582 14.1472289,1.47207034 9.97670123,1.6338353 C4.45734121,1.85221799 3.28680278,4.28678061 0.341076923,5.94487143"/>
        <path fill="#373535" fill-opacity=".35" d="M0.139538462,6.54330113 C1.78294409,7.40064828 3.28681528,6.41389024 5.17828214,6.9719747 C6.62013802,7.3925601 8.37207044,7.91829185 10.7519078,7.55432371 C13.1317452,7.19844376 15.1627465,6.11462755 16.1394876,4.18964054 C16.4418122,3.33229339 17.6743665,4.38375688 17.6743665,4.38375688 C17.6743665,4.38375688 16.7751445,3.99552421 16.7984002,4.17346418 C16.821656,4.35949234 18.1472332,4.99845861 18.1472332,4.99845861 C18.1472332,4.99845861 16.9456866,4.61022594 17.0232057,4.90140044 C17.092973,5.19257495 18.5270769,6.37344933 18.5270769,6.37344933 C18.5270769,6.37344933 16.8914232,5.09551678 16.7596407,5.27345676 C16.6201062,5.45139673 17.449561,6.15506845 17.449561,6.15506845 C17.449561,6.15506845 16.0852242,5.27345676 15.6046056,5.53227854 C15.2557695,5.7183067 17.0232057,6.92344562 17.0232057,6.92344562 C17.0232057,6.92344562 15.8759226,6.0094812 15.6046056,6.25212662 C15.3332886,6.49477204 16.8991751,8.45211177 16.8991751,8.45211177 C16.8991751,8.45211177 15.116235,6.44624296 14.937941,6.54330113 C14.759647,6.6403593 15.4263116,7.6028528 15.4263116,7.6028528 C15.4263116,7.6028528 14.5580973,6.59991839 14.317788,6.76977019 C14.0774787,6.94771016 15.5735979,9.54401617 15.5735979,9.54401617 C15.5735979,9.54401617 13.953448,6.88300472 13.2790316,7.32785466 C14.3255399,9.73004432 13.9379442,10.0697479 13.9379442,10.0697479 C13.9379442,10.0697479 13.8061617,7.61902916 12.4960883,7.68373461 C11.8371757,7.71608733 12.8061649,9.51166344 12.8061649,9.51166344 C12.8061649,9.51166344 11.9146948,7.86976276 11.3177975,7.90211548 C12.4108173,10.0697479 12.0232216,10.9432714 12.0232216,10.9432714 C12.0232216,10.9432714 12.2015156,9.09107805 10.7209002,8.0638791 C11.2867899,8.58961084 10.3643122,10.9432714 10.3643122,10.9432714 C10.3643122,10.9432714 11.1705112,7.47344191 9.76741484,8.13667273 C9.54260935,8.24181907 9.75191101,9.8675434 9.75191101,9.8675434 C9.75191101,9.8675434 9.47284213,8.00726183 9.0464869,8.10432 C8.79842567,8.16093727 7.4806004,10.6844496 7.4806004,10.6844496 C7.4806004,10.6844496 8.55811636,7.95873275 8.232536,8.07196728 C7.99222668,8.15284909 7.54261571,9.2771062 7.54261571,9.2771062 C7.54261571,9.2771062 7.75966928,8.16902545 7.54261571,8.10432 C7.32556214,8.03961456 6.10075983,9.2771062 6.10075983,9.2771062 C6.10075983,9.2771062 7.00773369,8.16902545 6.85269542,7.93446821 C6.61238611,7.58667644 6.34106914,7.57050008 6.00773687,7.70799915 C5.52711824,7.90211548 4.88370943,8.8160799 4.88370943,8.8160799 C4.88370943,8.8160799 5.52711824,7.88593912 5.41859145,7.54623553 C5.24029744,6.98815107 3.38759015,8.62196357 3.38759015,8.62196357 C3.38759015,8.62196357 4.48060994,7.54623553 4.23254871,7.31167829 C3.98448748,7.08520923 2.62015073,7.14991468 2.20154741,7.14991468 C0.953489363,7.16609104 0.519382216,6.85874017 0.139538462,6.54330113"/>
        <path fill="#373535" d="M0.0696923077,6.34926125 C1.71309794,7.20661846 3.21696913,6.21984884 5.10843598,6.77793985 C6.55029187,7.19853018 8.30222428,7.72426809 10.6820617,7.36029569 C13.0618991,7.00441157 15.0929004,5.92058264 16.0696415,3.99557306 C16.3719661,3.13821585 17.6045203,4.18969167 17.6045203,4.18969167 C17.6045203,4.18969167 16.7052984,3.80145445 16.7285541,3.97939651 C16.7518098,4.16542685 18.077387,4.80440062 18.077387,4.80440062 C18.077387,4.80440062 16.8758404,4.41616339 16.9533596,4.70734131 C17.0231268,4.99851923 18.4572308,6.17940746 18.4572308,6.17940746 C18.4572308,6.17940746 16.8370809,4.89337165 16.7052984,5.07131371 C16.5735158,5.24925577 17.3952186,5.95293575 17.3952186,5.95293575 C17.3952186,5.95293575 16.0308819,5.07131371 15.5502633,5.33013853 C15.2014272,5.51616887 16.9688634,6.72132192 16.9688634,6.72132192 C16.9688634,6.72132192 15.8215802,5.80734679 15.5502633,6.04999505 C15.2789463,6.29264332 16.8448328,8.25000601 16.8448328,8.25000601 C16.8448328,8.25000601 15.0696446,6.24411367 14.8913506,6.34117297 C14.7130566,6.43823228 15.3797212,7.40073707 15.3797212,7.40073707 C15.3797212,7.40073707 14.496003,6.40587918 14.2556937,6.57573296 C14.0153844,6.75367503 15.5037518,9.35001148 15.5037518,9.35001148 C15.5037518,9.35001148 13.8836019,6.68088055 13.2169373,7.1257357 C14.2711976,9.53604182 13.87585,9.87574939 13.87585,9.87574939 C13.87585,9.87574939 13.7440675,7.4250019 12.4339941,7.4897081 C11.7750815,7.5220612 12.7440706,9.31765838 12.7440706,9.31765838 C12.7440706,9.31765838 11.8603525,7.68382672 11.2634552,7.71617982 C12.356475,9.88383767 11.9688793,10.7573714 11.9688793,10.7573714 C11.9688793,10.7573714 12.1471733,8.90515633 10.6665579,7.87794533 C11.2324475,8.40368324 10.3099698,10.7573714 10.3099698,10.7573714 C10.3099698,10.7573714 11.1161688,7.28750121 9.71307251,7.95073981 C9.48826703,8.05588739 9.69756869,9.68163078 9.69756869,9.68163078 C9.69756869,9.68163078 9.41849981,7.8213274 8.99214457,7.91838671 C8.74408334,7.97500464 7.42625807,10.4985466 7.42625807,10.4985466 C7.42625807,10.4985466 8.50377403,7.77279775 8.17819367,7.8860336 C7.93788436,7.96691636 7.48827338,9.09118666 7.48827338,9.09118666 C7.48827338,9.09118666 7.70532696,7.98309291 7.48827338,7.91838671 C7.27121981,7.8536805 6.0464175,9.09118666 6.0464175,9.09118666 C6.0464175,9.09118666 6.95339136,7.98309291 6.79835309,7.74853292 C6.55804378,7.40073707 6.28672681,7.38456052 5.95339454,7.5220612 C5.47277591,7.71617982 4.8293671,8.63015496 4.8293671,8.63015496 C4.8293671,8.63015496 5.47277591,7.70000327 5.36424912,7.36029569 C5.18595512,6.80220468 3.33324783,8.43603634 3.33324783,8.43603634 C3.33324783,8.43603634 4.42626761,7.36029569 4.17820638,7.1257357 C3.93014516,6.89926399 2.56580841,6.96397019 2.14720508,6.96397019 C0.883643209,6.97205847 0.449536062,6.664704 0.0696923077,6.34926125"/>
      </g>
      <rect width="1" height="41" x="15" y="26" fill="#1287B1"/>
      <circle cx="15.5" cy="67.5" r="1.5" fill="#1287B1"/>
    </g>
    <g transform="translate(1092 308)">
      <circle cx="15" cy="15" r="15" fill="#25A9CC"/>
      <g fill="#FFFFFF" transform="translate(8 9)">
        <path d="M11.8347532,10.5939961 C13.9644009,12.4731377 15.3287991,6.86190288 11.9356,5.82739283 C9.08816025,4.95657109 6.22292399,6.44940837 3.35175556,9.93269535 C3.35768772,9.93269535 8.65511212,7.79165241 11.8347532,10.5939961 Z"/>
        <path d="M3.40512382,9.88684143 C5.44580082,7.54934926 8.83901957,4.94340561 12.0008825,5.90590238 C12.7364754,6.13506828 13.258509,6.60649527 13.5966444,7.16958863 L10.6068153,0.51068236 C10.1796969,-0.242291309 9.08817199,-0.0851489779 8.47122313,0.491039568 L0.569531933,7.79815795 C-0.148264339,8.47910805 -0.195721944,9.68386592 0.474616724,10.4237444 C1.06190458,11.0719565 1.99326008,11.1308849 2.63986994,10.5546963 L3.40512382,9.88684143 L3.40512382,9.88684143 Z" opacity=".5"/>
      </g>
      <rect width="1" height="41" x="15" y="26" fill="#25A9CC"/>
      <circle cx="15.5" cy="67.5" r="1.5" fill="#25A9CC"/>
    </g>
    <path fill="#2C1D4B" d="M848.378253,133.920475 C853.819057,131.360097 862.638975,131.359453 868.081147,133.920475 L916.378253,156.648525 C921.819057,159.208903 921.820425,163.359453 916.378253,165.920475 L868.081147,188.648525 C862.640343,191.208903 853.820425,191.209547 848.378253,188.648525 L800.081147,165.920475 C794.640343,163.360097 794.638975,159.209547 800.081147,156.648525 L848.378253,133.920475 Z"/>
    <path stroke="url(#aa)" stroke-width="2" d="M886.5,145.5 L1204.9368,3.1889" stroke-linecap="square"/>
    <path fill="#271B43" d="M639.378253,516.920475 C644.819057,514.360097 653.638975,514.359453 659.081147,516.920475 L707.378253,539.648525 C712.819057,542.208903 712.820425,546.359453 707.378253,548.920475 L659.081147,571.648525 C653.640343,574.208903 644.820425,574.209547 639.378253,571.648525 L591.081147,548.920475 C585.640343,546.360097 585.638975,542.209547 591.081147,539.648525 L639.378253,516.920475 Z"/>
    <path fill="#BFAEE3" d="M334.378253,199.920475 C339.819057,197.360097 348.638975,197.359453 354.081147,199.920475 L402.378253,222.648525 C407.819057,225.208903 407.820425,229.359453 402.378253,231.920475 L354.081147,254.648525 C348.640343,257.208903 339.820425,257.209547 334.378253,254.648525 L286.081147,231.920475 C280.640343,229.360097 280.638975,225.209547 286.081147,222.648525 L334.378253,199.920475 Z" opacity=".1"/>
    <path fill="#34215C" d="M1542.37825,535.920475 C1547.81906,533.360097 1556.63898,533.359453 1562.08115,535.920475 L1610.37825,558.648525 C1615.81906,561.208903 1615.82042,565.359453 1610.37825,567.920475 L1562.08115,590.648525 C1556.64034,593.208903 1547.82042,593.209547 1542.37825,590.648525 L1494.08115,567.920475 C1488.64034,565.360097 1488.63898,561.209547 1494.08115,558.648525 L1542.37825,535.920475 Z"/>
    <path fill="#271B43" d="M711.378253,549.920475 C716.819057,547.360097 725.638975,547.359453 731.081147,549.920475 L779.378253,572.648525 C784.819057,575.208903 784.820425,579.359453 779.378253,581.920475 L731.081147,604.648525 C725.640343,607.208903 716.820425,607.209547 711.378253,604.648525 L663.081147,581.920475 C657.640343,579.360097 657.638975,575.209547 663.081147,572.648525 L711.378253,549.920475 Z"/>
    <path fill="#BFAEE3" d="M406.378253,232.920475 C411.819057,230.360097 420.638975,230.359453 426.081147,232.920475 L474.378253,255.648525 C479.819057,258.208903 479.820425,262.359453 474.378253,264.920475 L426.081147,287.648525 C420.640343,290.208903 411.820425,290.209547 406.378253,287.648525 L358.081147,264.920475 C352.640343,262.360097 352.638975,258.209547 358.081147,255.648525 L406.378253,232.920475 Z" opacity=".1"/>
    <path stroke="#24193D" stroke-width="2" d="M449.5,275.5 L763.6085,420.4732" stroke-linecap="square"/>
    <path stroke="url(#ab)" stroke-width="2" d="M8.5,70.5 L322.6085,215.4732" stroke-linecap="square"/>
    <path stroke="url(#ac)" stroke-width="2" d="M550,15 L826.608534,145.473238" stroke-linecap="square"/>
    <path fill="#BFAEE3" d="M262.378253,232.920475 C267.819057,230.360097 276.638975,230.359453 282.081147,232.920475 L330.378253,255.648525 C335.819057,258.208903 335.820425,262.359453 330.378253,264.920475 L282.081147,287.648525 C276.640343,290.208903 267.820425,290.209547 262.378253,287.648525 L214.081147,264.920475 C208.640343,262.360097 208.638975,258.209547 214.081147,255.648525 L262.378253,232.920475 Z" opacity=".1"/>
    <path fill="#34215C" d="M1614.37825 568.920475C1619.81906 566.360097 1628.63898 566.359453 1634.08115 568.920475L1682.37825 591.648525C1687.81906 594.208903 1687.82042 598.359453 1682.37825 600.920475L1634.08115 623.648525C1628.64034 626.208903 1619.82042 626.209547 1614.37825 623.648525L1566.08115 600.920475C1560.64034 598.360097 1560.63898 594.209547 1566.08115 591.648525L1614.37825 568.920475zM1614.37825 502.920475C1619.81906 500.360097 1628.63898 500.359453 1634.08115 502.920475L1682.37825 525.648525C1687.81906 528.208903 1687.82042 532.359453 1682.37825 534.920475L1634.08115 557.648525C1628.64034 560.208903 1619.82042 560.209547 1614.37825 557.648525L1566.08115 534.920475C1560.64034 532.360097 1560.63898 528.209547 1566.08115 525.648525L1614.37825 502.920475z"/>
    <path stroke="url(#ad)" stroke-width="2" d="M1652,513 L1910.9223,394.5259" stroke-linecap="square"/>
    <path stroke="url(#ae)" stroke-width="2" d="M1335,732.4741 L1593.9223,614" stroke-linecap="square"/>
    <path stroke="url(#af)" stroke-width="2" d="M12,381.5757 L242.7331,276" stroke-linecap="square"/>
    <path stroke="url(#ag)" stroke-width="2" d="M347,686.5757 L623.1995,560.1961" stroke-linecap="square"/>
  </g>
</svg>
