<?xml version="1.0" encoding="UTF-8" standalone="no"?>
<svg width="10px" height="15px" viewBox="0 0 10 15" version="1.1" xmlns="http://www.w3.org/2000/svg" xmlns:xlink="http://www.w3.org/1999/xlink">
    <!-- Generator: Sketch 3.6.1 (26313) - http://www.bohemiancoding.com/sketch -->
    <title>Shape</title>
    <desc>Created with Sketch.</desc>
    <defs></defs>
    <g id="5-april-2016" stroke="none" stroke-width="1" fill="none" fill-rule="evenodd">
        <g id="docs" transform="translate(-570.000000, -1692.000000)" fill="#442484">
            <g id="Group-2" transform="translate(570.000000, 1688.000000)">
                <path d="M4.42307692,6.21367857 L1.93663196,8.73241503 L1.15384615,7.93946315 L4.24789058,4.80523633 L4.23076923,4.78789263 L5.00856067,4 L5.02568202,4.0173437 L5.02568202,4.0173437 L5.04280337,4 L5.82558919,4.79295186 L5.80846783,4.81029556 L8.92248971,7.96475929 L8.14469827,8.75265192 L5.57692308,6.15152899 L5.57692308,14.7142857 L4.42307692,14.7142857 L4.42307692,6.21367857 L4.42307692,6.21367857 Z M8.88888873,17.8831168 L1.1111111,17.8831168 L1.11111112,10.6233766 L0,10.6233766 L0,19 L10,19 L10,10.6233766 L8.88888888,10.6233766 L8.88888873,17.8831168 L8.88888873,17.8831168 Z" id="Shape"></path>
            </g>
        </g>
    </g>
</svg>