<svg id="Layer_1" data-name="Layer 1" xmlns="http://www.w3.org/2000/svg" viewBox="0 0 156.75 127.38"><defs><style>.cls-1{fill:#fff;}</style></defs><title>twitter</title><path class="cls-1" d="M164.13,21.08a64.37,64.37,0,0,1-18.47,5.06A32.28,32.28,0,0,0,159.79,8.35a64.4,64.4,0,0,1-20.42,7.8A32.17,32.17,0,0,0,84.58,45.48,91.3,91.3,0,0,1,18.3,11.89a32.2,32.2,0,0,0,10,42.93,32,32,0,0,1-14.57-4V51.2A32.19,32.19,0,0,0,39.47,82.73,32.34,32.34,0,0,1,25,83.28a32.22,32.22,0,0,0,30,22.34,64.6,64.6,0,0,1-39.94,13.76,66.86,66.86,0,0,1-7.67-.45,91.06,91.06,0,0,0,49.3,14.45c59.15,0,91.49-49,91.49-91.5,0-1.39,0-2.78-.1-4.16a65.61,65.61,0,0,0,16.05-16.64h0Z" transform="translate(-7.38 -6)"/></svg>