<?xml version="1.0" encoding="UTF-8" standalone="no"?>
<svg width="157px" height="128px" viewBox="0 0 157 128" version="1.1" xmlns="http://www.w3.org/2000/svg" xmlns:xlink="http://www.w3.org/1999/xlink">
    <!-- Generator: Sketch 3.6.1 (26313) - http://www.bohemiancoding.com/sketch -->
    <title>Shape</title>
    <desc>Created with Sketch.</desc>
    <defs></defs>
    <g id="Page-1" stroke="none" stroke-width="1" fill="none" fill-rule="evenodd">
        <g id="twitter" transform="translate(0.000000, -1.000000)" fill="#000000">
            <path d="M156.75,16.08 C150.880075,18.6781826 144.654528,20.3837197 138.28,21.14 C144.990107,17.1181287 150.011326,10.7962979 152.41,3.35 C146.097542,7.09462246 139.191413,9.73261477 131.99,11.15 C122.029856,0.530438063 106.178983,-2.07580547 93.3429353,4.79554469 C80.5068877,11.6668949 73.885955,26.3026703 77.2,40.48 C51.3435535,39.1868147 27.2517629,26.9773511 10.92,6.89 C2.40147378,21.5966167 6.77950735,40.3915148 20.92,49.82 C15.8136719,49.6687782 10.8177572,48.2972161 6.35,45.82 L6.35,46.2 C6.35340941,61.4891312 17.1109361,74.6664745 32.09,77.73 C27.3702406,79.0046973 22.4229033,79.1927439 17.62,78.28 C21.8315919,91.3630844 33.8787152,100.334176 47.62,100.62 C36.2249349,109.553052 22.1591773,114.398942 7.68,114.38 C5.11682121,114.377145 2.55592735,114.226897 0.01,113.93 C14.7158331,123.378577 31.8303857,128.394912 49.31,128.38 C108.46,128.38 140.8,79.38 140.8,36.88 C140.8,35.49 140.8,34.1 140.7,32.72 C146.992772,28.1670828 152.427122,22.5329653 156.75,16.08 L156.75,16.08 L156.75,16.08 Z" id="Shape"></path>
        </g>
    </g>
</svg>