<?xml version="1.0" encoding="UTF-8" standalone="no"?>
<svg width="716px" height="250px" viewBox="0 0 716 250" version="1.1" xmlns="http://www.w3.org/2000/svg" xmlns:xlink="http://www.w3.org/1999/xlink">
    <!-- Generator: Sketch 3.6.1 (26313) - http://www.bohemiancoding.com/sketch -->
    <title>logo-dark</title>
    <desc>Created with Sketch.</desc>
    <defs></defs>
    <g id="Page-1" stroke="none" stroke-width="1" fill="none" fill-rule="evenodd">
        <g id="logo-dark" fill="#000000">
            <g id="Logo-(Horizontal)">
                <g id="logo-horizontal-black-large">
                    <path d="M416.74781,-1.42108547e-14 C417.85477,-1.42108547e-14 418.520981,0.856223 418.228436,1.939827 L351.782342,248.060173 C351.493109,249.13151 350.363859,250 349.254311,250 L338.051101,250 C336.944141,250 336.27793,249.143777 336.570475,248.060173 L403.016569,1.939827 C403.305802,0.86849 404.435052,-1.42108547e-14 405.5446,-1.42108547e-14 L416.74781,-1.42108547e-14 L416.74781,-1.42108547e-14 Z M698.05038,77.965695 C698.05038,80.36464 698.94998,81.564112 701.34893,81.564112 L710.0451,81.564112 C712.74391,81.564112 713.64352,80.36464 713.64352,77.965695 L713.64352,63.27216 C713.64352,39.882452 700.14945,20.990764 653.37004,20.990764 C606.29075,20.990764 593.09656,39.882452 593.09656,63.27216 L593.09656,79.465035 C593.09656,98.356723 606.89049,110.351445 618.88521,114.849466 L674.66067,136.439966 C686.35552,140.937987 699.54972,148.134821 699.54972,164.327696 L699.54972,185.618328 C699.54972,203.610411 688.15473,216.20487 652.7703,216.20487 C617.68574,216.20487 606.59062,203.610411 606.59062,185.618328 L606.59062,171.824397 C606.59062,169.125585 605.39115,167.926113 602.9922,167.926113 L594.29603,167.926113 C591.89709,167.926113 590.69761,169.125585 590.69761,171.824397 L590.69761,187.417536 C590.69761,210.807245 605.39115,229.698932 653.07017,229.698932 C700.74919,229.698932 715.14286,210.807245 715.14286,187.417536 L715.14286,161.029147 C715.14286,140.638119 700.14945,129.243133 685.15605,123.54564 L627.58138,101.655272 C619.48495,98.656591 608.6897,91.459758 608.6897,76.166487 L608.6897,65.071369 C608.6897,47.079285 618.58534,34.484827 653.37004,34.484827 C688.15473,34.484827 698.05038,47.079285 698.05038,65.071369 L698.05038,77.965695 L698.05038,77.965695 Z M438.964376,188.017272 C438.964376,211.406981 453.358042,230.298669 501.33693,230.298669 C549.61569,230.298669 564.30922,211.406981 564.30922,188.017272 L564.30922,63.871896 C564.30922,40.482188 549.61569,21.5905 501.33693,21.5905 C453.358042,21.5905 438.964376,40.482188 438.964376,63.871896 L438.964376,188.017272 L438.964376,188.017272 Z M548.11635,185.618328 C548.11635,203.910279 536.42149,216.504738 501.33693,216.504738 C466.552237,216.504738 454.857383,203.910279 454.857383,185.618328 L454.857383,66.270841 C454.857383,47.978889 466.552237,35.384431 501.33693,35.384431 C536.42149,35.384431 548.11635,47.978889 548.11635,66.270841 L548.11635,185.618328 L548.11635,185.618328 Z M315.718604,162.828356 C315.718604,157.43073 313.919395,155.331654 308.821638,155.331654 L283.93259,155.331654 C278.534965,155.331654 276.435888,157.43073 276.435888,162.828356 L276.435888,174.223342 C276.435888,189.216745 265.940506,196.713446 245.849346,196.713446 C225.758186,196.713446 215.562672,189.216745 215.562672,174.223342 L215.562672,77.665827 C215.562672,62.672424 225.758186,55.175723 245.849346,55.175723 C265.940506,55.175723 276.435888,62.672424 276.435888,77.665827 L276.435888,84.86266 C276.435888,90.260285 278.534965,92.359362 283.93259,92.359362 L308.821638,92.359362 C313.919395,92.359362 315.718604,90.260285 315.718604,84.86266 L315.718604,70.468994 C315.718604,45.280077 299.525729,21.5905 245.24961,21.5905 C190.973492,21.5905 174.780617,45.280077 174.780617,70.468994 L174.780617,181.420175 C174.780617,206.609092 190.973492,230.298669 245.24961,230.298669 C299.525729,230.298669 315.718604,206.609092 315.718604,181.420175 L315.718604,162.828356 L315.718604,162.828356 Z M73.425213,227.00012 C127.701331,227.00012 146.593019,203.310543 146.593019,178.121626 L146.593019,71.968334 C146.593019,46.779417 127.701331,23.08984 73.425213,23.08984 L8.053976,23.08984 C2.656351,23.08984 0.857143,25.488785 0.857143,30.88641 L0.857143,219.20355 C0.857143,224.301307 2.356483,227.00012 7.154372,227.00012 L73.425213,227.00012 L73.425213,227.00012 Z M73.425213,56.675063 C93.816241,56.675063 106.110831,64.171764 106.110831,79.165167 L106.110831,170.924793 C106.110831,185.918196 93.816241,193.414897 73.425213,193.414897 L41.339331,193.414897 L41.339331,56.675063 L73.425213,56.675063 L73.425213,56.675063 Z" id="logo"></path>
                </g>
            </g>
        </g>
    </g>
</svg>