<?xml version="1.0" encoding="UTF-8" standalone="no"?>
<svg width="42px" height="42px" viewBox="0 0 42 42" version="1.1" xmlns="http://www.w3.org/2000/svg" xmlns:xlink="http://www.w3.org/1999/xlink">
    <!-- Generator: Sketch 3.6.1 (26313) - http://www.bohemiancoding.com/sketch -->
    <title>Combined Shape</title>
    <desc>Created with Sketch.</desc>
    <defs></defs>
    <g id="icons" stroke="none" stroke-width="1" fill="none" fill-rule="evenodd">
        <g id="Icons-Copy" transform="translate(-400.000000, -99.000000)" fill="#FFFFFF">
            <path d="M424.999997,139 L429.00297,139 C429.553614,139 430,139.443865 430,140 C430,140.552285 429.546964,141 429.00297,141 L422.99703,141 C422.996926,141 422.996822,141 422.996718,141 L402.003595,141 C400.89704,141 400,140.110237 400,138.996405 L400,118.003595 C400,118.002396 400.000001,118.001198 400.000003,118 L400,110.99703 C400,110.446386 400.443865,110 401,110 C401.552285,110 402,110.453036 402,110.99703 L402,116.000003 C402.001198,116.000001 402.002396,116 402.003595,116 L422.996405,116 C424.10296,116 425,116.889763 425,118.003595 L425,138.996405 C425,138.997604 424.999999,138.998802 424.999997,139 Z M411,100 C411,99.4477153 411.453036,99 411.99703,99 L418.00297,99 C418.553614,99 419,99.4438648 419,100 C419,100.552285 418.546964,101 418.00297,101 L411.99703,101 C411.446386,101 411,100.556135 411,100 Z M423,100 C423,99.4477153 423.453036,99 423.99703,99 L430.00297,99 C430.553614,99 431,99.4438648 431,100 C431,100.552285 430.546964,101 430.00297,101 L423.99703,101 C423.446386,101 423,100.556135 423,100 Z M440,110.99703 C440,110.446386 440.443865,110 441,110 C441.552285,110 442,110.453036 442,110.99703 L442,117.00297 C442,117.553614 441.556135,118 441,118 C440.447715,118 440,117.546964 440,117.00297 L440,110.99703 Z M440,122.99703 C440,122.446386 440.443865,122 441,122 C441.552285,122 442,122.453036 442,122.99703 L442,129.00297 C442,129.553614 441.556135,130 441,130 C440.447715,130 440,129.546964 440,129.00297 L440,122.99703 Z M400,100.002929 C400,99.4490268 400.437881,99 401.002929,99 L405.997071,99 C406.550973,99 407,99.4447453 407,100.001984 C407,100.555364 406.556283,101.003967 406.000193,101.003967 L402,101.003967 L402,105.000986 C402,105.552726 401.556135,106 401,106 C400.447715,106 400,105.562119 400,104.997071 L400,100.002929 Z M440.997071,99 C441.550973,99 442,99.4378814 442,100.002929 L442,104.997071 C442,105.550973 441.555255,106 440.998016,106 C440.444636,106 439.996033,105.556283 439.996033,105.000193 L439.996033,101 L435.999014,101 C435.447274,101 435,100.556135 435,100 C435,99.4477153 435.437881,99 436.002929,99 L440.997071,99 Z M442,139.997071 C442,140.550973 441.562119,141 440.997071,141 L436.002929,141 C435.449027,141 435,140.555255 435,139.998016 C435,139.444636 435.443717,138.996033 435.999807,138.996033 L440,138.996033 L440,134.999014 C440,134.447274 440.443865,134 441,134 C441.552285,134 442,134.437881 442,135.002929 L442,139.997071 Z" id="Combined-Shape"></path>
        </g>
    </g>
</svg>